<svg width="408" height="239" viewBox="0 0 408 239" fill="none" xmlns="http://www.w3.org/2000/svg">
<path d="M154.941 35.9334C134.261 36.5904 105.765 45.3602 89.4707 55.1171C66.205 69.0485 48.126 86.9097 39.0618 107.628C29.9975 128.347 28.5922 138.707 28.5922 160.854C28.5922 183.002 33.6593 202.405 50.6946 214.794C72.797 230.869 95.1483 233.477 129.41 235.513C165.472 237.657 230.184 232.538 261.249 223.725C325.384 205.529 356.076 189.095 383.394 160.854C410.711 132.614 416.078 73.3765 376.202 43.5037C347.532 22.0261 311.493 11.7795 274.82 7.24965C208.65 -0.923836 181.028 2.40341 116.614 19.7524C57.027 35.8011 27.4289 56.1888 3 79.4084" stroke="#FFE600" stroke-width="5" stroke-linecap="round"/>
</svg>
