<svg width="90" height="115" viewBox="0 0 90 115" fill="none" xmlns="http://www.w3.org/2000/svg">
<path d="M53.5 10H28.5566C26.8778 10 25.5257 11.3776 25.5571 13.0561L26.481 62.4813C26.4914 63.0408 26.0407 63.5 25.4811 63.5H8.95223C8.13713 63.5 7.66443 64.4228 8.1407 65.0843L42.7007 113.084C42.8886 113.345 43.1906 113.5 43.5122 113.5H51.5L74.8123 64.9327C75.1309 64.2689 74.6471 63.5 73.9108 63.5H57.5C56.9477 63.5 56.5 63.0523 56.5 62.5V13C56.5 11.3431 55.1569 10 53.5 10Z" fill="#F3F7F0" stroke="#F3F7F0"/>
<path d="M61.5 10H36.5566C34.8778 10 33.5257 11.3776 33.5571 13.0561L34.481 62.4813C34.4914 63.0408 34.0407 63.5 33.4811 63.5H16.9454C16.1316 63.5 15.6586 64.4202 16.1322 65.082L50.6322 113.287C51.0461 113.866 51.9145 113.839 52.2925 113.237L82.5391 65.0315C82.9569 64.3655 82.4782 63.5 81.692 63.5H65.5C64.9477 63.5 64.5 63.0523 64.5 62.5V13C64.5 11.3431 63.1569 10 61.5 10Z" fill="#2C3238" stroke="#F3F7F0"/>
<path d="M58.8456 15.7373C58.6748 30.3994 58.506 45.0473 58.3352 59.7093C58.3301 60.4328 59.4604 60.5776 59.4673 59.84C59.6381 45.178 59.807 30.53 59.9777 15.868C59.9828 15.1445 58.8526 14.9997 58.8456 15.7373Z" fill="#F3F7F0"/>
<path d="M53.9277 15.9183C53.321 23.3827 53.1065 30.8709 53.2817 38.3467C53.2969 39.0797 54.433 38.9169 54.4178 38.1839C54.2433 30.8086 54.4586 23.4208 55.0599 16.049C55.1235 15.3179 53.9913 15.1873 53.9277 15.9183Z" fill="#F3F7F0"/>
<path d="M53.0311 44.1459C53.4775 44.7208 54.3857 44.0155 53.9393 43.4407C53.4929 42.8658 52.5847 43.5711 53.0311 44.1459Z" fill="#F3F7F0"/>
<path d="M40.3348 81.1364C40.7812 81.7112 41.6894 81.006 41.243 80.4311C40.7966 79.8563 39.8884 80.5615 40.3348 81.1364Z" fill="#F3F7F0"/>
<path d="M28.3096 73.5515C34.4956 82.0752 40.6816 90.599 46.8675 99.1227C47.2968 99.7107 48.2441 99.0589 47.8148 98.4709C41.6288 89.9472 35.4429 81.4235 29.2569 72.8998C28.8276 72.3117 27.8803 72.9635 28.3096 73.5515Z" fill="#F3F7F0"/>
<path d="M33.2921 71.223C34.7547 73.3652 36.2119 75.4989 37.6745 77.6411C38.0892 78.24 39.0611 77.6256 38.6464 77.0267C37.1838 74.8845 35.7266 72.7507 34.264 70.6085C33.8493 70.0096 32.8774 70.6241 33.2921 71.223Z" fill="#F3F7F0"/>
<path d="M52.9843 49.0297C53.2116 53.5364 53.4309 58.0494 53.6643 62.564C53.7017 63.2924 54.8378 63.1296 54.8005 62.4013C54.5732 57.8945 54.3539 53.3815 54.1205 48.8669C54.0831 48.1385 52.947 48.3013 52.9843 49.0297Z" fill="#F3F7F0"/>
</svg>
