<svg width="584" height="584" viewBox="0 0 584 584" fill="none" xmlns="http://www.w3.org/2000/svg">
<g clip-path="url(#clip0_18_2310)">
<path d="M196.494 61.4396L198.574 68.7846L206.894 68.3326C207.685 69.9469 208.588 71.4804 209.603 72.9171L205.25 80.02L210.716 85.3471L217.698 80.7949C219.165 81.7796 220.713 82.6513 222.326 83.3939L222.1 91.7397L229.501 93.6123L233.274 86.1866C235.032 86.3157 236.806 86.2834 238.595 86.1059L242.578 93.4347L249.915 91.3523L249.463 83.0226C251.076 82.2316 252.608 81.3276 254.027 80.3106L261.121 84.6692L266.443 79.1967L261.895 72.2069C262.879 70.7379 263.75 69.1882 264.491 67.5739L272.828 67.7999L274.698 60.3903L267.281 56.6129C267.41 54.8533 267.378 53.0776 267.2 51.2857L274.521 47.2984L272.441 39.9534L264.121 40.4054C263.33 38.7912 262.428 37.2576 261.412 35.8209L265.765 28.718L260.299 23.3909L253.317 27.9432C251.85 26.9584 250.302 26.0867 248.689 25.3442L248.915 16.9983L241.514 15.1257L237.741 22.5514C235.983 22.4223 234.21 22.4546 232.42 22.6322L228.437 15.3033L221.1 17.3857L221.552 25.7154C219.939 26.5064 218.407 27.4104 216.988 28.4274L209.894 24.0689L204.573 29.5413L209.12 36.5312C208.136 38.0002 207.265 39.5499 206.524 41.1642L198.187 40.9382L196.317 48.3477L203.734 52.1252C203.605 53.8847 203.637 55.6604 203.815 57.4523L196.494 61.4396ZM230.162 35.4496C240.595 32.4954 251.447 38.5652 254.397 49.0257C257.348 59.4701 251.285 70.3343 240.837 73.2884C230.404 76.2426 219.552 70.1729 216.601 59.7123C213.651 49.2679 219.714 38.4037 230.162 35.4334V35.4496Z" fill="#2C3238"/>
<path d="M229.533 94.3226C229.533 94.3226 229.421 94.3226 229.356 94.3065L221.955 92.4339C221.632 92.3532 221.407 92.0626 221.423 91.7236L221.632 83.8459C220.278 83.2002 218.972 82.4738 217.714 81.6505L211.119 85.9445C210.845 86.1221 210.474 86.0898 210.232 85.8638L204.766 80.5366C204.524 80.3106 204.476 79.9394 204.653 79.6488L208.765 72.9495C207.926 71.7388 207.152 70.4312 206.475 69.0752L198.623 69.4949C198.3 69.5111 197.994 69.3012 197.897 68.9784L195.817 61.6334C195.72 61.3105 195.865 60.9715 196.156 60.8101L203.073 57.0488C202.944 55.5314 202.928 54.0301 203.008 52.5449L196.01 48.9774C195.72 48.8321 195.559 48.4931 195.64 48.1702L197.51 40.7606C197.591 40.4378 197.913 40.2118 198.219 40.2279L206.088 40.4378C206.733 39.0818 207.459 37.7742 208.281 36.5151L203.992 29.9127C203.815 29.6382 203.847 29.2669 204.073 29.0248L209.394 23.5524C209.62 23.3102 209.99 23.2618 210.281 23.4394L216.972 27.5558C218.182 26.7164 219.488 25.9415 220.842 25.2635L220.423 17.4019C220.407 17.0629 220.616 16.7724 220.939 16.6755L228.276 14.5931C228.598 14.4962 228.937 14.6415 229.098 14.9321L232.855 21.8574C234.371 21.7282 235.87 21.7121 237.354 21.7928L240.917 14.7868C241.062 14.4962 241.401 14.3348 241.724 14.4155L249.125 16.2881C249.447 16.3688 249.673 16.6594 249.657 16.9984L249.447 24.8761C250.802 25.5218 252.108 26.2482 253.366 27.0715L259.96 22.7775C260.235 22.5999 260.605 22.6322 260.847 22.8582L266.314 28.1854C266.555 28.4114 266.604 28.7826 266.426 29.0732L262.315 35.7725C263.153 36.9832 263.927 38.2908 264.604 39.6468L272.457 39.2271C272.78 39.2109 273.086 39.4208 273.183 39.7436L275.263 47.0886C275.359 47.4115 275.214 47.7505 274.924 47.9119L268.007 51.6732C268.136 53.1906 268.152 54.6919 268.071 56.1771L275.069 59.7446C275.359 59.8899 275.521 60.2289 275.44 60.5518L273.57 67.9614C273.489 68.2842 273.166 68.5102 272.86 68.4941L264.991 68.2842C264.346 69.6402 263.621 70.9478 262.798 72.2069L267.088 78.8093C267.265 79.0838 267.233 79.4551 267.007 79.6972L261.686 85.1696C261.46 85.4118 261.089 85.4602 260.799 85.2826L254.107 81.1662C252.898 82.0056 251.592 82.7805 250.237 83.4585L250.657 91.3201C250.673 91.6591 250.463 91.9496 250.141 92.0465L242.804 94.1289C242.481 94.2258 242.143 94.0805 241.982 93.7899L238.225 86.8646C236.725 86.9938 235.209 87.0099 233.726 86.9292L230.162 93.9352C230.033 94.1773 229.791 94.3226 229.533 94.3226ZM222.858 91.1909L229.146 92.7891L232.662 85.8638C232.791 85.6055 233.065 85.4602 233.339 85.4763C235.048 85.5893 236.789 85.5732 238.531 85.3956C238.805 85.3633 239.095 85.5086 239.224 85.7669L242.933 92.5954L249.189 90.8196L248.77 83.0549C248.77 82.7644 248.915 82.5061 249.173 82.3769C250.753 81.6021 252.253 80.7142 253.64 79.7295C253.865 79.5681 254.188 79.5519 254.43 79.6972L261.041 83.7491L265.572 79.0838L261.331 72.5621C261.17 72.3199 261.17 72.0132 261.331 71.7711C262.299 70.3344 263.153 68.8169 263.863 67.2349C263.975 66.9766 264.25 66.8152 264.524 66.8152L272.296 67.0251L273.892 60.7294L266.975 57.2102C266.717 57.0811 266.572 56.8066 266.588 56.5322C266.701 54.8372 266.684 53.0776 266.507 51.3342C266.475 51.0436 266.62 50.7692 266.878 50.6401L273.699 46.9272L271.925 40.6638L264.169 41.0835C263.879 41.0835 263.621 40.9382 263.492 40.6799C262.718 39.0979 261.831 37.5966 260.847 36.2084C260.686 35.9824 260.67 35.6595 260.815 35.4174L264.862 28.7988L260.202 24.2626L253.688 28.5082C253.446 28.6697 253.14 28.6697 252.898 28.5082C251.463 27.5396 249.947 26.6841 248.367 25.9738C248.109 25.8608 247.948 25.5864 247.948 25.3119L248.157 17.5311L241.869 15.9329L238.354 22.8582C238.225 23.1165 237.95 23.2618 237.676 23.2457C235.983 23.1327 234.226 23.1488 232.484 23.3264C232.194 23.3587 231.92 23.2134 231.791 22.9551L228.082 16.1267L221.826 17.9024L222.245 25.6671C222.245 25.9576 222.1 26.2159 221.842 26.3451C220.262 27.1199 218.762 28.0078 217.375 28.9925C217.15 29.1539 216.827 29.1701 216.585 29.0248L209.974 24.9729L205.443 29.6382L209.684 36.1599C209.845 36.4021 209.845 36.7088 209.684 36.9509C208.717 38.3876 207.862 39.9051 207.152 41.4871C207.04 41.7454 206.782 41.9068 206.491 41.9068L198.719 41.6969L197.123 47.9926L204.04 51.5118C204.298 51.6409 204.444 51.9154 204.427 52.1898C204.315 53.9009 204.331 55.6444 204.508 57.3878C204.54 57.6784 204.395 57.9528 204.137 58.0819L197.316 61.7948L199.09 68.0582L206.846 67.6385C207.136 67.6385 207.394 67.7838 207.523 68.0421C208.297 69.6241 209.184 71.1254 210.168 72.5136C210.329 72.7396 210.345 73.0625 210.2 73.3046L206.153 79.9232L210.813 84.4594L217.327 80.2138C217.569 80.0523 217.875 80.0685 218.117 80.2138C219.552 81.1824 221.068 82.0379 222.648 82.7482C222.906 82.8612 223.067 83.1356 223.067 83.4101L222.858 91.1909ZM235.499 74.7575C232.065 74.7575 228.679 73.8858 225.599 72.1585C220.858 69.4949 217.424 65.1525 215.956 59.9222C214.473 54.6919 215.118 49.1872 217.779 44.4412C220.439 39.6952 224.777 36.2568 230.001 34.7878C235.225 33.3026 240.724 33.9484 245.464 36.6119C250.205 39.2755 253.64 43.6179 255.123 48.8482C256.607 54.0785 255.962 59.5832 253.301 64.3292C250.64 69.0752 246.303 72.5136 241.079 73.9988C239.24 74.5154 237.37 74.7736 235.516 74.7736L235.499 74.7575ZM230.372 36.1438C225.502 37.5159 221.471 40.7122 219.004 45.1354C216.537 49.5585 215.94 54.6758 217.311 59.5348C218.682 64.4099 221.874 68.4456 226.292 70.9155C230.71 73.3854 235.822 73.9826 240.675 72.6105C245.545 71.2384 249.576 68.0421 252.043 63.6189C254.51 59.1958 255.107 54.0785 253.736 49.2195C252.366 44.3444 249.173 40.3086 244.755 37.8388C240.337 35.3689 235.225 34.7716 230.372 36.1438Z" fill="#F3F7F0"/>
<path d="M75.1244 138.764L78.6718 151.339L92.9098 150.58C94.2482 153.341 95.7961 155.972 97.5537 158.41L90.1042 170.565L99.4564 179.686L111.405 171.889C113.92 173.584 116.565 175.069 119.338 176.328L118.967 190.599L131.625 193.811L138.075 181.09C141.074 181.3 144.121 181.252 147.169 180.945L153.974 193.488L166.535 189.937L165.777 175.683C168.534 174.343 171.162 172.793 173.597 171.033L185.739 178.491L194.849 169.129L187.061 157.167C188.754 154.648 190.238 152.001 191.496 149.224L205.75 149.596L208.958 136.924L196.252 130.466C196.462 127.464 196.414 124.413 196.107 121.362L208.636 114.55L205.089 101.974L190.851 102.733C189.512 99.9726 187.964 97.3413 186.207 94.9037L193.656 82.7481L184.304 73.6274L172.356 81.4244C169.84 79.7294 167.18 78.2443 164.422 76.9851L164.793 62.7149L152.135 59.5024L145.686 72.223C142.686 72.0132 139.639 72.0616 136.591 72.3683L129.787 59.8253L117.226 63.3767L117.984 77.6309C115.226 78.9707 112.598 80.5204 110.163 82.28L98.0213 74.822L88.9109 84.1849L96.6991 96.1467C95.006 98.665 93.5226 101.329 92.2648 104.089L78.0107 103.718L74.8019 116.39L87.5081 122.847C87.2985 125.85 87.3468 128.901 87.6532 131.952L75.1244 138.764ZM132.754 94.2742C150.62 89.2214 169.195 99.6174 174.242 117.504C179.289 135.39 168.905 153.987 151.039 159.039C133.173 164.092 114.597 153.696 109.55 135.81C104.503 117.923 114.888 99.3269 132.754 94.2742Z" fill="#2C3238"/>
<path d="M131.641 194.521C131.641 194.521 131.528 194.521 131.464 194.505L118.806 191.293C118.483 191.212 118.258 190.921 118.274 190.582L118.629 176.78C116.129 175.618 113.711 174.262 111.421 172.745L99.8595 180.283C99.5854 180.461 99.2145 180.429 98.9727 180.203L89.6204 171.082C89.3786 170.856 89.3302 170.485 89.5075 170.194L96.6991 158.442C95.135 156.214 93.7161 153.825 92.4745 151.323L78.7041 152.066C78.3816 152.082 78.0752 151.872 77.9785 151.549L74.4311 138.974C74.3343 138.651 74.4794 138.312 74.7697 138.15L86.8954 131.564C86.6374 128.788 86.6051 125.995 86.7664 123.283L74.4794 117.036C74.1892 116.89 74.0279 116.551 74.1086 116.228L77.3174 103.556C77.398 103.233 77.6882 103.007 78.0268 103.024L91.8134 103.379C92.9743 100.877 94.3288 98.4552 95.8445 96.1629L88.3143 84.5885C88.137 84.314 88.1692 83.9428 88.3949 83.7006L97.5053 74.3378C97.7311 74.0956 98.1019 74.0472 98.3922 74.2248L110.131 81.4245C112.356 79.8586 114.743 78.438 117.242 77.195L116.5 63.409C116.484 63.07 116.694 62.7795 117.016 62.6826L129.577 59.1312C129.9 59.0343 130.238 59.1796 130.399 59.4702L136.978 71.6096C139.752 71.3513 142.541 71.319 145.25 71.4805L151.49 59.1796C151.636 58.889 151.974 58.7276 152.297 58.8083L164.954 62.0208C165.277 62.1015 165.503 62.392 165.487 62.731L165.132 76.5332C167.631 77.6955 170.05 79.0515 172.34 80.5689L183.901 73.0302C184.175 72.8526 184.546 72.8849 184.788 73.1109L194.14 82.2316C194.382 82.4576 194.43 82.8289 194.253 83.1195L187.061 94.8715C188.625 97.0992 190.044 99.4883 191.286 101.99L205.056 101.248C205.379 101.232 205.685 101.442 205.782 101.764L209.329 114.34C209.426 114.663 209.281 115.002 208.991 115.163L196.865 121.749C197.123 124.526 197.155 127.319 196.994 130.031L209.281 136.278C209.571 136.423 209.732 136.762 209.652 137.085L206.443 149.757C206.362 150.08 206.056 150.306 205.734 150.29L191.947 149.935C190.786 152.437 189.432 154.858 187.916 157.151L195.446 168.725C195.623 168.999 195.591 169.371 195.365 169.613L186.255 178.976C186.029 179.218 185.658 179.266 185.368 179.089L173.629 171.889C171.404 173.455 169.018 174.875 166.519 176.118L167.26 189.904C167.276 190.243 167.067 190.534 166.744 190.631L154.183 194.182C153.861 194.279 153.522 194.134 153.361 193.843L146.782 181.704C144.009 181.962 141.219 181.994 138.51 181.833L132.27 194.134C132.141 194.376 131.899 194.521 131.641 194.521ZM119.709 190.05L131.27 192.988L137.462 180.784C137.591 180.525 137.865 180.38 138.139 180.396C141.074 180.606 144.105 180.558 147.121 180.251C147.395 180.219 147.685 180.364 147.814 180.622L154.344 192.665L165.809 189.42L165.067 175.731C165.067 175.44 165.212 175.182 165.47 175.053C168.195 173.729 170.792 172.18 173.194 170.468C173.42 170.307 173.742 170.291 173.984 170.436L185.642 177.587L193.963 169.032L186.497 157.538C186.336 157.296 186.336 156.989 186.497 156.747C188.174 154.261 189.641 151.63 190.867 148.918C190.98 148.659 191.254 148.498 191.528 148.498L205.218 148.853L208.152 137.279L195.962 131.08C195.704 130.951 195.559 130.676 195.575 130.402C195.785 127.464 195.736 124.445 195.43 121.41C195.398 121.12 195.543 120.845 195.801 120.716L207.83 114.178L204.589 102.701L190.915 103.443C190.625 103.443 190.367 103.298 190.238 103.04C188.916 100.312 187.368 97.7126 185.658 95.3073C185.497 95.0813 185.481 94.7585 185.626 94.5163L192.769 82.845L184.223 74.5153L172.743 82.0056C172.501 82.167 172.194 82.167 171.953 82.0056C169.469 80.3429 166.841 78.8578 164.132 77.6309C163.874 77.5179 163.713 77.2435 163.713 76.969L164.068 63.2638L152.506 60.3258L146.314 72.5298C146.185 72.788 145.911 72.9333 145.637 72.9172C142.703 72.7073 139.687 72.7558 136.656 73.0625C136.382 73.0948 136.091 72.9495 135.962 72.6912L129.432 60.6486L117.967 63.8933L118.709 77.5825C118.709 77.873 118.564 78.1313 118.306 78.2605C115.581 79.5842 112.985 81.1339 110.582 82.845C110.357 83.0065 110.034 83.0226 109.792 82.8773L98.1342 75.726L89.8139 84.2818L97.2957 95.7755C97.457 96.0176 97.457 96.3243 97.2957 96.5665C95.6349 99.0363 94.1514 101.684 92.926 104.396C92.8131 104.654 92.5551 104.815 92.2649 104.815L78.5751 104.46L75.6404 116.035L87.8306 122.234C88.0886 122.363 88.2337 122.637 88.2176 122.912C88.008 125.85 88.0563 128.868 88.3627 131.903C88.3949 132.194 88.2498 132.468 87.9918 132.597L75.9629 139.135L79.2039 150.613L92.8776 149.87C93.1678 149.854 93.4258 150.015 93.5548 150.274C94.877 153.002 96.425 155.601 98.1342 158.006C98.2954 158.232 98.3116 158.555 98.1664 158.797L91.0233 170.468L99.5693 178.798L111.05 171.324C111.292 171.163 111.598 171.163 111.84 171.324C114.323 172.987 116.952 174.472 119.661 175.699C119.918 175.812 120.08 176.086 120.08 176.361L119.725 190.066L119.709 190.05ZM141.912 161.025C126.933 161.025 113.146 151.129 108.873 136.003C103.729 117.778 114.356 98.7457 132.56 93.5962C141.38 91.094 150.652 92.1918 158.65 96.6633C166.648 101.135 172.436 108.48 174.919 117.31C177.419 126.14 176.322 135.422 171.856 143.429C167.389 151.436 160.053 157.231 151.232 159.717C148.12 160.589 144.992 161.009 141.912 161.009V161.025ZM141.945 93.7092C138.946 93.7092 135.914 94.1289 132.947 94.9683C115.484 99.908 105.31 118.149 110.244 135.616C115.178 153.099 133.399 163.285 150.845 158.345C159.295 155.956 166.325 150.403 170.614 142.719C174.903 135.035 175.951 126.156 173.565 117.681C171.179 109.222 165.632 102.184 157.956 97.8902C152.974 95.0975 147.492 93.693 141.945 93.693V93.7092Z" fill="#F3F7F0"/>
<path d="M551.041 0.710205H404.163C398.436 0.710205 393.794 5.35742 393.794 11.0901V173.326C393.794 179.058 398.436 183.706 404.163 183.706H551.041C556.767 183.706 561.409 179.058 561.409 173.326V11.0901C561.409 5.35742 556.767 0.710205 551.041 0.710205Z" fill="#2C3238"/>
<path d="M551.041 184.416H404.179C398.067 184.416 393.085 179.444 393.085 173.31V11.1063C393.085 4.98814 398.051 0 404.179 0H551.041C557.153 0 562.135 4.972 562.135 11.1063V173.326C562.135 179.444 557.169 184.432 551.041 184.432V184.416ZM404.179 1.42057C398.841 1.42057 394.52 5.763 394.52 11.0901V173.31C394.52 178.653 398.858 182.979 404.179 182.979H551.041C556.379 182.979 560.7 178.637 560.7 173.31V11.1063C560.7 5.763 556.362 1.43671 551.041 1.43671H404.179V1.42057Z" fill="#F3F7F0"/>
<path d="M553.299 18.4674H402.05C401.663 18.4674 401.341 18.1446 401.341 17.7572C401.341 17.3697 401.663 17.0469 402.05 17.0469H553.299C553.686 17.0469 554.008 17.3697 554.008 17.7572C554.008 18.1446 553.686 18.4674 553.299 18.4674Z" fill="#F3F7F0"/>
<path d="M404.711 11.3645C406.18 11.3645 407.371 10.172 407.371 8.70092C407.371 7.22987 406.18 6.03735 404.711 6.03735C403.241 6.03735 402.05 7.22987 402.05 8.70092C402.05 10.172 403.241 11.3645 404.711 11.3645Z" fill="#F3F7F0"/>
<path d="M415.353 11.3645C416.822 11.3645 418.014 10.172 418.014 8.70092C418.014 7.22987 416.822 6.03735 415.353 6.03735C413.884 6.03735 412.692 7.22987 412.692 8.70092C412.692 10.172 413.884 11.3645 415.353 11.3645Z" fill="#F3F7F0"/>
<path d="M425.995 11.3645C427.465 11.3645 428.656 10.172 428.656 8.70092C428.656 7.22987 427.465 6.03735 425.995 6.03735C424.526 6.03735 423.335 7.22987 423.335 8.70092C423.335 10.172 424.526 11.3645 425.995 11.3645Z" fill="#F3F7F0"/>
<path d="M553.299 9.41129H538.319C537.932 9.41129 537.61 9.08844 537.61 8.70101C537.61 8.31358 537.932 7.99072 538.319 7.99072H553.299C553.686 7.99072 554.008 8.31358 554.008 8.70101C554.008 9.08844 553.686 9.41129 553.299 9.41129Z" fill="#F3F7F0"/>
<path d="M531.563 9.41129H469.483C469.096 9.41129 468.774 9.08844 468.774 8.70101C468.774 8.31358 469.096 7.99072 469.483 7.99072H531.563C531.95 7.99072 532.272 8.31358 532.272 8.70101C532.272 9.08844 531.95 9.41129 531.563 9.41129Z" fill="#F3F7F0"/>
<path d="M453.165 9.41129H439.959C439.572 9.41129 439.25 9.08844 439.25 8.70101C439.25 8.31358 439.572 7.99072 439.959 7.99072H453.165C453.552 7.99072 453.875 8.31358 453.875 8.70101C453.875 9.08844 453.552 9.41129 453.165 9.41129Z" fill="#F3F7F0"/>
<path d="M452.182 87.5103C457.019 79.0353 466.016 73.0625 476.465 71.9809L477.191 30.5745C447.151 30.6713 420.658 47.6213 408.581 72.6589L452.182 87.5264V87.5103Z" fill="#2C3238"/>
<path d="M452.182 88.2207C452.182 88.2207 452.02 88.2207 451.956 88.1884L408.355 73.3208C408.161 73.2563 408 73.111 407.936 72.9173C407.855 72.7236 407.855 72.5137 407.936 72.3361C420.336 46.6367 447.505 29.9611 477.191 29.8481C477.4 29.8481 477.562 29.9289 477.691 30.058C477.82 30.1871 477.9 30.3809 477.9 30.5746L477.175 71.981C477.175 72.3361 476.901 72.6428 476.546 72.6751C466.516 73.7083 457.632 79.3906 452.794 87.8494C452.665 88.0754 452.423 88.2046 452.182 88.2046V88.2207ZM409.58 72.2393L451.859 86.6549C456.874 78.2444 465.742 72.5783 475.772 71.3353L476.481 31.2849C447.909 31.64 421.803 47.6376 409.58 72.2393Z" fill="#F3F7F0"/>
<path d="M450.118 42.5365C449.843 42.5365 449.569 42.3751 449.456 42.0845C449.311 41.7132 449.489 41.3097 449.843 41.1644C456.616 38.4201 463.775 36.709 471.08 36.0632C471.467 36.031 471.821 36.3215 471.854 36.709C471.886 37.0964 471.596 37.4515 471.209 37.4838C464.033 38.0972 457.035 39.7922 450.392 42.4881C450.311 42.5204 450.214 42.5365 450.134 42.5365H450.118Z" fill="#F3F7F0"/>
<path d="M426.189 58.5017C426.011 58.5017 425.834 58.4371 425.689 58.2918C425.415 58.0174 425.399 57.5654 425.689 57.2909C430.8 52.0607 436.75 47.6537 443.329 44.1829C443.684 44.0054 444.103 44.1345 444.281 44.4897C444.458 44.8448 444.329 45.2645 443.974 45.4421C437.508 48.8321 431.687 53.1584 426.672 58.2757C426.527 58.4209 426.35 58.4855 426.173 58.4855L426.189 58.5017Z" fill="#F3F7F0"/>
<path d="M510.117 105.865C507.65 119.473 495.283 130.16 480.109 130.644C475.594 130.789 471.273 129.998 467.339 128.481L443.668 165.174C454.665 170.146 467.097 172.583 480.109 171.841C517.921 169.661 547.655 141.169 550.961 106.866L510.117 105.881V105.865Z" fill="#2C3238"/>
<path d="M475.562 172.664C464.404 172.664 453.359 170.323 443.378 165.803C443.184 165.723 443.055 165.561 442.991 165.351C442.926 165.158 442.958 164.932 443.071 164.77L466.742 128.077C466.919 127.787 467.274 127.674 467.597 127.803C471.547 129.353 475.756 130.063 480.077 129.918C494.621 129.466 506.957 119.296 509.408 105.736C509.472 105.397 509.795 105.155 510.117 105.155L550.961 106.139C551.154 106.139 551.348 106.236 551.477 106.381C551.606 106.527 551.67 106.72 551.654 106.914C548.268 142.17 517.518 170.388 480.142 172.535C478.61 172.616 477.094 172.664 475.562 172.664ZM444.716 164.851C455.664 169.645 467.871 171.808 480.061 171.114C516.47 169.016 546.478 141.75 550.155 107.544L510.682 106.591C507.86 120.506 495.105 130.886 480.109 131.354C475.788 131.484 471.579 130.806 467.613 129.337L444.7 164.851H444.716Z" fill="#F3F7F0"/>
<path d="M475.498 166.723C467.516 166.723 459.728 165.464 452.359 162.962C451.988 162.833 451.795 162.429 451.907 162.058C452.036 161.687 452.44 161.493 452.81 161.606C460.05 164.044 467.677 165.287 475.498 165.287C476.901 165.287 478.32 165.238 479.722 165.157C480.109 165.125 480.448 165.432 480.464 165.819C480.48 166.207 480.19 166.546 479.803 166.562C478.368 166.643 476.917 166.691 475.498 166.691V166.723Z" fill="#F3F7F0"/>
<path d="M494.718 164.157C494.412 164.157 494.122 163.947 494.041 163.64C493.944 163.269 494.154 162.865 494.541 162.768C519.389 155.988 538.561 136.246 543.414 112.467C543.495 112.08 543.866 111.838 544.253 111.918C544.64 111.999 544.882 112.37 544.801 112.758C539.851 137.053 520.259 157.215 494.912 164.14C494.847 164.157 494.783 164.173 494.718 164.173V164.157Z" fill="#F3F7F0"/>
<path d="M436.25 161.299L460.147 124.494C453.004 119.199 448.408 110.95 448.408 101.603C448.408 99.3429 448.683 97.1475 449.182 95.0167L405.42 80.3267C403.066 87.2197 401.808 94.5647 401.808 102.168C401.808 127.351 415.611 149.015 436.25 161.283V161.299Z" fill="#2C3238"/>
<path d="M436.25 162.01C436.121 162.01 436.009 161.977 435.896 161.913C414.111 148.966 401.099 126.641 401.099 102.184C401.099 94.6616 402.324 87.2359 404.759 80.1169C404.888 79.7456 405.291 79.5519 405.662 79.6649L449.424 94.3549C449.779 94.4679 449.973 94.8392 449.892 95.1943C449.392 97.2929 449.134 99.456 449.134 101.603C449.134 110.385 453.31 118.521 460.583 123.929C460.889 124.155 460.953 124.574 460.76 124.881L436.863 161.687C436.734 161.897 436.492 162.01 436.267 162.01H436.25ZM405.872 81.2308C403.647 87.9946 402.518 95.049 402.518 102.168C402.518 125.898 415.031 147.594 436.041 160.331L459.196 124.655C451.875 118.989 447.699 110.627 447.699 101.603C447.699 99.5529 447.925 97.5028 448.36 95.4849L405.888 81.2308H405.872Z" fill="#F3F7F0"/>
<path d="M490.026 70.399C503.845 72.4491 514.455 83.168 515.712 96.4213L582.484 98.3584C582.484 98.3584 582.484 98.31 582.484 98.2777C582.484 49.2357 543.447 7.2643 491.203 1.85645L490.01 70.4151L490.026 70.399Z" fill="#2C3238"/>
<path d="M582.5 99.0688L515.729 97.1316C515.374 97.1316 515.084 96.8411 515.035 96.4859C513.81 83.5555 503.49 73.1272 489.945 71.1094C489.591 71.0609 489.333 70.7542 489.333 70.3991L490.526 1.84038C490.526 1.64667 490.623 1.45295 490.768 1.32381C490.913 1.19467 491.106 1.13009 491.316 1.14624C516.664 3.76138 539.996 15.1582 556.991 33.2059C573.906 51.1729 583.226 74.2895 583.226 98.2616C583.226 98.4554 583.145 98.6814 583.016 98.8105C582.887 98.9396 582.694 99.0526 582.517 99.0526L582.5 99.0688ZM516.374 95.7272L581.807 97.6321C581.468 48.9452 543.011 8.29752 491.945 2.64752L490.768 69.8018C504.441 72.0941 514.842 82.6354 516.374 95.7272Z" fill="#F3F7F0"/>
<path d="M415.16 80.6172H327.764C323.454 80.6172 319.96 84.1153 319.96 88.4303V204.675C319.96 208.99 323.454 212.488 327.764 212.488H415.16C419.47 212.488 422.964 208.99 422.964 204.675V88.4303C422.964 84.1153 419.47 80.6172 415.16 80.6172Z" fill="#2C3238"/>
<path d="M415.16 213.199H327.764C323.072 213.199 319.251 209.373 319.251 204.675V88.4143C319.251 83.7167 323.072 79.8909 327.764 79.8909H415.16C419.852 79.8909 423.673 83.7167 423.673 88.4143V204.675C423.673 209.373 419.852 213.199 415.16 213.199ZM327.764 81.3276C323.862 81.3276 320.669 84.5077 320.669 88.4304V204.691C320.669 208.598 323.846 211.794 327.764 211.794H415.16C419.062 211.794 422.254 208.614 422.254 204.691V88.4143C422.254 84.5077 419.078 81.3114 415.16 81.3114H327.764V81.3276Z" fill="#F3F7F0"/>
<path d="M354.628 118.295H332.199V192.116H354.628V118.295Z" fill="#2C3238"/>
<path d="M354.644 192.826H332.215C331.828 192.826 331.505 192.503 331.505 192.116V118.295C331.505 117.907 331.828 117.584 332.215 117.584H354.644C355.031 117.584 355.353 117.907 355.353 118.295V192.116C355.353 192.503 355.031 192.826 354.644 192.826ZM332.924 191.406H353.935V119.005H332.924V191.406Z" fill="#F3F7F0"/>
<path d="M382.669 97.9385H360.239V192.116H382.669V97.9385Z" fill="#2C3238"/>
<path d="M382.685 192.826H360.255C359.868 192.826 359.546 192.503 359.546 192.116V97.9386C359.546 97.5511 359.868 97.2283 360.255 97.2283H382.685C383.072 97.2283 383.394 97.5511 383.394 97.9386V192.116C383.394 192.503 383.072 192.826 382.685 192.826ZM360.965 191.406H381.975V98.6488H360.965V191.406Z" fill="#F3F7F0"/>
<path d="M410.709 148.11H388.28V192.116H410.709V148.11Z" fill="#2C3238"/>
<path d="M410.709 192.826H388.28C387.893 192.826 387.57 192.503 387.57 192.116V148.11C387.57 147.723 387.893 147.4 388.28 147.4H410.709C411.096 147.4 411.419 147.723 411.419 148.11V192.116C411.419 192.503 411.096 192.826 410.709 192.826ZM388.989 191.406H410V148.821H388.989V191.406Z" fill="#F3F7F0"/>
<path d="M240.804 477.586L242.772 496.28L255.397 497.765V475.584L240.804 477.586Z" fill="#2C3238"/>
<path d="M255.397 498.475C255.397 498.475 255.349 498.475 255.317 498.475L242.691 496.99C242.369 496.958 242.094 496.683 242.062 496.36L240.095 477.667C240.063 477.279 240.321 476.94 240.708 476.892L255.3 474.906C255.51 474.874 255.704 474.939 255.865 475.068C256.026 475.197 256.107 475.391 256.107 475.601V497.765C256.107 497.975 256.026 498.168 255.865 498.297C255.736 498.41 255.558 498.475 255.397 498.475ZM243.417 495.65L254.688 496.974V476.408L241.578 478.2L243.401 495.65H243.417Z" fill="#F3F7F0"/>
<path d="M257.381 530.309C252.124 531.051 243.481 531.697 233.355 530.309C230.033 529.841 227.84 526.628 228.63 523.367C230.856 514.295 234.709 497.071 241.304 489.096L242.949 493.422L245.206 489.354C245.513 488.789 246.077 488.418 246.706 488.337L251.656 487.708C252.688 487.578 253.656 488.257 253.865 489.29L254.655 493.051L256.381 488.127L262.153 524.013C262.557 527.08 260.428 529.905 257.364 530.341L257.381 530.309Z" fill="#2C3238"/>
<path d="M245.448 531.842C241.756 531.842 237.644 531.616 233.258 531.003C231.468 530.761 229.872 529.76 228.856 528.259C227.856 526.773 227.518 524.917 227.953 523.174L228.437 521.22C230.71 511.857 234.516 496.183 240.772 488.612C240.933 488.418 241.191 488.321 241.433 488.37C241.675 488.418 241.885 488.579 241.982 488.822L243.078 491.727L244.594 488.983C245.013 488.224 245.771 487.724 246.625 487.611L251.576 486.981C252.962 486.804 254.285 487.74 254.575 489.112L254.833 490.371L255.72 487.837C255.833 487.53 256.139 487.336 256.445 487.369C256.768 487.401 257.026 487.643 257.09 487.966L262.863 523.852C263.314 527.322 260.896 530.519 257.477 531.003C254.381 531.439 250.27 531.826 245.432 531.826L245.448 531.842ZM241.095 490.517C235.499 498.152 231.952 512.713 229.808 521.559L229.324 523.529C228.985 524.901 229.243 526.305 230.033 527.468C230.823 528.63 232.065 529.405 233.452 529.598C243.417 530.971 251.914 530.373 257.284 529.598C259.944 529.227 261.815 526.741 261.46 524.061L256.139 490.952L255.333 493.245C255.22 493.551 254.93 493.745 254.623 493.713C254.301 493.697 254.043 493.455 253.978 493.148L253.188 489.387C253.043 488.725 252.43 488.289 251.753 488.37L246.803 488.999C246.4 489.048 246.029 489.29 245.835 489.661L243.578 493.729C243.449 493.971 243.175 494.116 242.901 494.1C242.627 494.084 242.385 493.907 242.288 493.648L241.095 490.5V490.517Z" fill="#F3F7F0"/>
<path d="M242.756 525.821C239.385 525.821 235.741 525.53 232.113 524.691C231.726 524.61 231.484 524.223 231.581 523.835C231.662 523.448 232.049 523.222 232.436 523.303C244.803 526.128 257.768 522.496 257.897 522.463C258.267 522.35 258.67 522.576 258.767 522.948C258.88 523.319 258.654 523.722 258.283 523.819C257.896 523.932 251.189 525.805 242.756 525.805V525.821Z" fill="#F3F7F0"/>
<path d="M239.74 511.922C239.353 511.922 239.047 511.615 239.031 511.228C239.031 510.84 239.321 510.501 239.724 510.501L251.56 510.114C251.947 510.114 252.285 510.405 252.285 510.808C252.285 511.196 251.995 511.535 251.592 511.535L239.756 511.922C239.756 511.922 239.756 511.922 239.74 511.922Z" fill="#F3F7F0"/>
<path d="M299.966 467.626L301.852 494.907H317.041L317.751 467.626H299.966Z" fill="#2C3238"/>
<path d="M317.041 495.618H301.852C301.481 495.618 301.175 495.327 301.143 494.956L299.256 467.674C299.256 467.481 299.304 467.287 299.45 467.142C299.579 466.997 299.772 466.916 299.966 466.916H317.767C317.961 466.916 318.138 466.996 318.283 467.126C318.412 467.271 318.493 467.449 318.477 467.642L317.767 494.924C317.767 495.311 317.445 495.618 317.058 495.618H317.041ZM302.513 494.197H316.348L317.025 468.336H300.723L302.513 494.197Z" fill="#F3F7F0"/>
<path d="M297.885 510.324C297.853 512.907 299.611 515.167 302.126 515.764C310.866 517.798 330.538 522.334 336.149 523.173C343.437 524.255 352.387 522.027 356.24 517.766C360.094 513.504 347.614 503.318 341.696 499.605C332.908 494.1 324.459 483.22 320.911 482.719C317.364 482.235 310.753 492.518 310.753 492.518L299.949 487.982C299.949 487.982 298.063 497.248 297.869 510.34L297.885 510.324Z" fill="#2C3238"/>
<path d="M339.954 524.142C338.632 524.142 337.31 524.045 336.036 523.868C330.36 523.028 310.301 518.395 301.949 516.458C299.127 515.796 297.128 513.23 297.16 510.324C297.353 497.313 299.24 487.918 299.256 487.837C299.304 487.627 299.433 487.449 299.627 487.353C299.82 487.256 300.03 487.24 300.24 487.32L310.495 491.63C312.172 489.096 317.493 481.525 321.008 482.009C323.008 482.284 325.878 485.012 329.844 488.789C333.537 492.308 337.745 496.296 342.067 498.992C346.824 501.962 356.869 509.84 357.611 515.183C357.772 516.377 357.482 517.411 356.756 518.234C353.499 521.834 346.63 524.158 339.954 524.158V524.142ZM300.498 488.951C300.046 491.534 298.756 499.702 298.595 510.324C298.563 512.552 300.111 514.553 302.287 515.054C310.624 516.991 330.634 521.608 336.262 522.447C343.566 523.529 352.112 521.253 355.724 517.265C356.176 516.765 356.337 516.151 356.24 515.377C355.611 510.84 346.227 503.253 341.341 500.186C336.891 497.41 332.65 493.374 328.893 489.806C325.539 486.626 322.379 483.624 320.831 483.414C318.589 483.107 313.833 489.064 311.366 492.89C311.172 493.18 310.817 493.293 310.495 493.164L300.498 488.967V488.951Z" fill="#F3F7F0"/>
<path d="M339.809 519.138C324.023 519.138 302.787 510.55 301.578 510.066C301.207 509.92 301.046 509.501 301.191 509.145C301.336 508.774 301.755 508.613 302.11 508.758C302.497 508.919 340.986 524.481 352.322 514.247C352.612 513.988 353.064 514.004 353.322 514.295C353.58 514.586 353.564 515.038 353.273 515.296C350.177 518.105 345.324 519.154 339.809 519.154V519.138Z" fill="#F3F7F0"/>
<path d="M322.959 502.608C322.766 502.608 322.572 502.527 322.427 502.365C322.169 502.075 322.185 501.623 322.475 501.364L330.199 494.391C330.489 494.133 330.941 494.149 331.199 494.439C331.457 494.73 331.441 495.182 331.15 495.44L323.427 502.414C323.298 502.543 323.12 502.591 322.959 502.591V502.608Z" fill="#F3F7F0"/>
<path d="M236.499 289.732C236.499 289.732 231.791 375.031 229.324 404.491C226.857 433.936 235.08 481.283 235.08 481.283L258.541 480.056C258.541 480.056 260.154 422.507 261.895 406.525C261.895 406.525 271.796 384.862 274.747 365.539C277.681 346.216 287.695 315.689 287.695 315.689C287.695 315.689 295.822 468.03 296.596 480.008C296.596 480.008 314.994 480.831 321.589 476.666C321.589 476.666 333.279 421.118 331.602 390.899C329.925 360.68 331.763 285.583 331.763 285.583L236.515 289.764L236.499 289.732Z" fill="#F3F7F0"/>
<path d="M257.574 407.203H250.399C250.012 407.203 249.689 406.88 249.689 406.493C249.689 406.106 250.012 405.783 250.399 405.783H257.574C257.961 405.783 258.283 406.106 258.283 406.493C258.283 406.88 257.961 407.203 257.574 407.203Z" fill="#2C3238"/>
<path d="M308.657 451.515C308.27 451.515 307.947 451.176 307.963 450.789C308.221 436.712 323.653 411.465 324.314 410.399C324.523 410.06 324.959 409.964 325.297 410.173C325.636 410.383 325.733 410.819 325.523 411.158C325.362 411.416 309.624 437.148 309.382 450.837C309.382 451.225 309.06 451.531 308.673 451.531L308.657 451.515Z" fill="#2C3238"/>
<path d="M339.164 153.308C340.874 153.179 349.258 170.355 375.493 169.645C401.728 168.919 422.77 139.539 422.77 139.539C422.77 139.539 431.832 124.251 438.701 118.714C445.571 113.193 446.651 112.451 446.651 112.451C446.651 112.451 448.812 115.324 446.651 118.714C444.49 122.104 438.54 128.432 438.54 128.432C438.54 128.432 445.103 132.032 442.136 139.539C438.734 148.175 429.156 147.481 429.156 147.481C429.156 147.481 409.709 233.684 329.328 192.713L339.164 153.308Z" fill="#2C3238"/>
<path d="M369.188 204.465C356.982 204.465 343.55 200.752 329.006 193.343C328.716 193.197 328.554 192.858 328.635 192.536L338.471 153.131C338.552 152.84 338.794 152.614 339.1 152.598C339.809 152.55 340.358 153.163 341.696 154.664C345.663 159.104 354.983 169.5 375.445 168.935C401.034 168.224 421.948 139.409 422.158 139.119C422.496 138.538 431.332 123.702 438.218 118.165C445.038 112.677 446.167 111.902 446.215 111.87C446.522 111.66 446.957 111.724 447.183 112.031C447.28 112.16 449.602 115.34 447.215 119.102C445.425 121.927 441.152 126.624 439.588 128.303C441.314 129.595 445.28 133.404 442.765 139.797C439.717 147.529 431.913 148.175 429.672 148.191C428.446 152.969 418.933 186.805 391.827 199.542C384.829 202.835 377.267 204.465 369.14 204.465H369.188ZM330.151 192.326C353.725 204.223 374.284 206.225 391.247 198.25C419.658 184.9 428.366 147.691 428.446 147.303C428.527 146.964 428.849 146.722 429.188 146.754C429.559 146.787 438.298 147.287 441.459 139.264C444.135 132.452 438.427 129.175 438.169 129.046C437.976 128.933 437.847 128.755 437.815 128.529C437.782 128.319 437.847 128.093 437.992 127.932C438.056 127.867 443.926 121.62 446.022 118.327C447.344 116.261 446.828 114.42 446.409 113.5C445.538 114.162 443.523 115.728 439.121 119.263C432.429 124.655 423.448 139.748 423.351 139.894C423.109 140.249 401.76 169.629 375.477 170.339C374.929 170.339 374.38 170.355 373.848 170.355C353.854 170.355 344.631 160.056 340.632 155.601C340.261 155.197 339.89 154.777 339.584 154.455L330.135 192.326H330.151Z" fill="#F3F7F0"/>
<path d="M209.168 192.697C209.168 192.697 217.037 141.831 244.852 129.32C272.667 116.809 310.285 118.553 320.653 124.8C331.022 131.047 358.062 159.314 358.062 159.314L334.166 192.713C334.166 192.713 339.632 282.613 335.311 306.343C335.311 306.343 308.721 309.442 297.45 305.003C286.179 300.563 249.109 294.332 231.388 302.484L234.613 188.661L209.168 192.713V192.697Z" fill="#2C3238"/>
<path d="M316.558 308.118C309.495 308.118 302.03 307.569 297.208 305.665C286.115 301.29 249.415 294.978 231.694 303.13C231.468 303.227 231.21 303.211 231.001 303.082C230.791 302.953 230.678 302.71 230.678 302.468L233.871 189.501L209.265 193.423C209.039 193.456 208.813 193.391 208.652 193.23C208.491 193.068 208.41 192.842 208.459 192.616C208.781 190.518 216.714 141.234 244.545 128.691C271.957 116.357 309.834 117.471 321.008 124.203C331.344 130.434 357.466 157.667 358.578 158.829C358.82 159.071 358.836 159.459 358.643 159.733L334.891 192.923C335.214 198.234 340.18 283.549 336.004 306.472C335.956 306.778 335.698 307.021 335.391 307.053C334.762 307.134 326.023 308.118 316.542 308.118H316.558ZM255.478 297.787C272.28 297.787 290.436 301.467 297.708 304.341C307.834 308.328 330.925 306.1 334.698 305.697C338.777 281.547 333.505 193.649 333.456 192.745C333.456 192.584 333.489 192.423 333.585 192.293L357.143 159.378C353.725 155.827 329.764 131.128 320.283 125.414C310.511 119.538 272.957 117.455 245.126 129.982C220.084 141.25 211.296 184.787 210.023 191.857L234.5 187.967C234.709 187.935 234.919 187.999 235.08 188.129C235.241 188.274 235.322 188.467 235.322 188.677L232.129 301.387C238.418 298.788 246.771 297.803 255.478 297.803V297.787Z" fill="#F3F7F0"/>
<path d="M255.816 279.723C255.478 279.723 255.171 279.481 255.123 279.142C255.059 278.754 255.317 278.383 255.704 278.319C297.966 270.845 310.318 241.545 310.43 241.239C310.576 240.867 310.995 240.706 311.349 240.851C311.72 240.996 311.882 241.416 311.736 241.771C311.607 242.078 299.014 272.088 255.945 279.707C255.897 279.707 255.865 279.707 255.816 279.707V279.723Z" fill="#F3F7F0"/>
<path d="M332.166 228.26H278.052L294.999 167.74H349.113L332.166 228.26Z" fill="#F3F7F0"/>
<path d="M213.941 192.907L241.337 180.655C241.337 180.655 237.483 227.114 292.887 205.66C292.887 205.66 290.839 199.687 291.129 192.713C291.42 185.74 295.58 192.487 296.176 198.153C296.757 203.82 309.769 201.527 317.59 199.283C325.41 197.056 335.665 198.509 317.59 208.501C299.514 218.477 295.547 214.038 295.547 214.038C295.547 214.038 272.457 246.388 243.723 239.511C208.394 231.053 213.941 192.907 213.941 192.907Z" fill="#2C3238"/>
<path d="M251.737 241.158C249.076 241.158 246.335 240.851 243.562 240.189C224.97 235.75 217.714 223.078 214.908 213.231C211.877 202.609 213.199 193.198 213.248 192.81C213.28 192.568 213.441 192.358 213.667 192.261L241.062 180.009C241.288 179.912 241.562 179.928 241.756 180.073C241.965 180.219 242.078 180.461 242.046 180.719C242.046 180.881 240.788 197.75 251.818 206.015C260.364 212.408 273.876 212.149 292.016 205.24C291.5 203.481 290.194 198.46 290.436 192.697C290.468 191.809 290.581 189.097 292.226 189.049H292.258C294.403 189.049 296.499 194.424 296.87 198.105C296.95 198.88 297.321 199.477 297.998 199.929C301.239 202.125 310.479 200.607 317.38 198.622C321.008 197.588 327.152 196.894 328.216 199.461C329.119 201.656 325.749 204.82 317.928 209.147C303.11 217.331 297.482 216.04 295.693 215.039C292.726 218.929 274.682 241.19 251.737 241.19V241.158ZM214.602 193.391C214.392 195.264 213.651 203.723 216.279 212.892C220.23 226.662 229.517 235.379 243.884 238.817C246.561 239.463 249.189 239.754 251.753 239.754C276.004 239.754 294.757 213.925 294.967 213.634C295.096 213.457 295.289 213.344 295.499 213.344C295.725 213.344 295.918 213.425 296.063 213.586C296.096 213.602 300.143 217.347 317.235 207.904C327.458 202.254 326.99 200.22 326.894 200.01C326.458 198.944 322.282 198.702 317.767 200.01C314.107 201.059 301.788 204.239 297.192 201.124C296.16 200.43 295.58 199.461 295.451 198.266C295.031 194.15 292.935 190.615 292.242 190.486C292.242 190.518 291.903 190.889 291.823 192.778C291.549 199.526 293.516 205.402 293.532 205.466C293.661 205.821 293.467 206.225 293.113 206.354C274.182 213.683 259.977 213.957 250.931 207.177C240.885 199.655 240.434 185.933 240.546 181.801L214.586 193.424L214.602 193.391Z" fill="#F3F7F0"/>
<path d="M287.034 106.139C284.663 108.302 280.036 110.95 276.424 109.126C273.731 107.77 272.231 104.25 272.312 100.215C271.07 100.312 269.426 100.215 268.265 99.1977C266.475 97.5996 266.797 94.6777 266.878 92.7567C267.2 83.8782 262.057 82.5222 263.314 76.5009C264.298 71.771 268.023 68.946 268.716 68.4133C272.215 65.7497 274.602 66.6053 280.487 65.0717C290.404 62.4727 290.726 58.1949 297.257 58.1626C297.627 58.1626 306.528 58.2595 309.544 64.4099C311.994 69.4142 309.124 75.5 306.174 78.6963C302.336 82.8289 299.579 80.7949 295.725 84.2656C288.969 90.3515 294.064 99.6982 287.034 106.139Z" fill="#F3F7F0"/>
<path d="M306.835 90.303L306.448 89.964C304.48 88.269 302.449 86.2996 301.917 83.7651C299.708 72.9656 289.823 69.0428 289.356 78.9546C289.243 81.4567 280.116 81.3275 281.197 83.9588C284.018 90.8034 284.083 88.9631 280.1 91.4976C279.649 91.5137 279.197 91.6106 278.778 91.8204C276.73 92.7728 276.004 95.5494 277.165 98.0354C277.859 99.5367 279.1 100.57 280.406 100.941V111.757C280.406 115.809 277.956 119.473 274.198 121.007L270.554 122.508C270.554 122.508 287.582 133.63 304.851 121.426L302.546 120.393C298.482 118.569 295.822 114.582 295.676 110.126V108.012C296.821 108.109 297.95 108.044 298.982 107.737C303.819 106.333 305.416 100.747 304.593 93.8221L306.561 92.7567C307.48 92.2563 307.625 90.9971 306.835 90.3191V90.303Z" fill="#2C3238"/>
<path d="M287.388 127.803C277.552 127.803 270.28 123.17 270.167 123.089C269.942 122.944 269.829 122.685 269.845 122.427C269.877 122.169 270.038 121.943 270.28 121.83L273.924 120.329C277.423 118.892 279.681 115.518 279.681 111.741V101.425C278.326 100.876 277.182 99.7626 276.504 98.3098C275.182 95.4848 276.069 92.2723 278.471 91.1585C278.907 90.9486 279.374 90.8356 279.874 90.7872C280.535 90.3836 281.068 90.0931 281.519 89.8509C282.019 89.5765 282.503 89.3343 282.503 89.2052C282.535 88.8823 282.148 87.9783 281.6 86.7192C281.309 86.0412 280.955 85.2341 280.552 84.2332C280.358 83.7489 280.358 83.2808 280.568 82.8449C281.116 81.7149 282.873 81.2145 284.921 80.6495C286.389 80.2298 288.63 79.6163 288.662 78.9222C288.92 73.4659 291.774 72.6426 292.984 72.5458C296.483 72.2713 301.143 76.4201 302.626 83.6036C303.11 85.9605 305.093 87.8331 306.915 89.4151L307.302 89.7541C307.85 90.2222 308.125 90.9325 308.044 91.6589C307.963 92.3853 307.544 93.0149 306.899 93.3539L305.351 94.1772C306.141 101.829 303.9 106.995 299.175 108.367C298.305 108.625 297.369 108.738 296.37 108.706V110.062C296.515 114.194 299.046 117.988 302.836 119.683L305.142 120.716C305.367 120.813 305.529 121.039 305.561 121.297C305.593 121.555 305.464 121.798 305.271 121.943C299.046 126.334 292.822 127.754 287.388 127.754V127.803ZM272.183 122.605C276.246 124.736 289.71 130.466 303.416 121.539L302.271 121.023C297.998 119.102 295.128 114.824 294.983 110.142V108.012C294.967 107.818 295.048 107.624 295.193 107.479C295.338 107.35 295.531 107.269 295.741 107.285C296.854 107.382 297.885 107.285 298.805 107.027C302.9 105.832 304.755 101.038 303.916 93.8866C303.884 93.5961 304.029 93.3216 304.287 93.1763L306.254 92.1109C306.48 91.9818 306.625 91.7719 306.657 91.5136C306.689 91.2553 306.593 91.0132 306.399 90.8356L306.012 90.4966C304.013 88.7693 301.82 86.6869 301.256 83.8942C299.982 77.6631 296.015 73.7403 293.113 73.9663C291.339 74.1116 290.242 75.9358 290.097 78.9868C290.017 80.6979 287.743 81.3436 285.324 82.0216C283.97 82.3929 282.132 82.9095 281.858 83.4745C281.858 83.5068 281.825 83.5552 281.874 83.7005C282.277 84.6852 282.632 85.4923 282.922 86.1542C284.26 89.2375 284.534 89.8671 282.212 91.1262C281.761 91.3683 281.197 91.6751 280.503 92.1109C280.39 92.1755 280.277 92.2078 280.148 92.2239C279.778 92.2239 279.423 92.3208 279.1 92.4661C277.407 93.2571 276.843 95.6139 277.827 97.7286C278.407 98.9716 279.455 99.9241 280.616 100.263C280.922 100.344 281.132 100.634 281.132 100.941V111.757C281.132 116.115 278.52 120.006 274.489 121.668L272.199 122.605H272.183Z" fill="#F3F7F0"/>
<path d="M295.66 108.706C295.66 108.706 295.596 108.706 295.547 108.706C288.582 107.64 285.453 102.313 285.324 102.087C285.131 101.748 285.244 101.312 285.582 101.119C285.921 100.925 286.356 101.038 286.55 101.377C286.582 101.425 289.485 106.333 295.757 107.301C296.144 107.366 296.418 107.721 296.354 108.109C296.305 108.464 295.999 108.706 295.66 108.706Z" fill="#F3F7F0"/>
<path d="M64.8531 202.383C63.9662 202.383 63.0632 202.205 62.2247 201.834C60.5639 201.124 59.2901 199.816 58.6128 198.154C57.2261 194.715 58.887 190.776 62.3376 189.388C65.7722 188 69.7065 189.662 71.0933 193.117C72.48 196.555 70.8191 200.494 67.3685 201.883C66.5623 202.205 65.7077 202.383 64.8531 202.383ZM64.8531 190.324C64.1919 190.324 63.5147 190.453 62.8697 190.712C60.1608 191.809 58.8386 194.909 59.935 197.637C60.4672 198.961 61.483 199.978 62.7891 200.543C64.0952 201.092 65.5303 201.108 66.8525 200.575C69.5614 199.477 70.8836 196.378 69.7872 193.65C68.9487 191.583 66.9654 190.324 64.8531 190.324Z" fill="#F3F7F0"/>
<path d="M560.958 217.331C560.781 217.331 560.603 217.267 560.474 217.138C560.184 216.863 560.184 216.411 560.458 216.137L563.78 212.65C564.054 212.359 564.505 212.359 564.779 212.634C565.07 212.908 565.07 213.36 564.796 213.635L561.474 217.121C561.329 217.267 561.151 217.347 560.958 217.347V217.331Z" fill="#F3F7F0"/>
<path d="M549.316 229.519C549.139 229.519 548.961 229.455 548.832 229.325C548.542 229.051 548.542 228.599 548.816 228.325L552.138 224.838C552.412 224.547 552.863 224.547 553.138 224.822C553.428 225.096 553.428 225.548 553.154 225.822L549.832 229.309C549.687 229.455 549.509 229.535 549.316 229.535V229.519Z" fill="#F3F7F0"/>
<path d="M552.589 217.525C552.412 217.525 552.235 217.461 552.089 217.315L548.719 213.99C548.445 213.715 548.429 213.263 548.719 212.989C548.993 212.715 549.445 212.698 549.719 212.989L553.089 216.314C553.363 216.589 553.379 217.041 553.089 217.315C552.944 217.461 552.767 217.525 552.589 217.525Z" fill="#F3F7F0"/>
<path d="M564.409 229.18C564.231 229.18 564.054 229.116 563.909 228.97L560.539 225.645C560.265 225.37 560.248 224.918 560.539 224.644C560.813 224.37 561.264 224.353 561.538 224.644L564.908 227.969C565.183 228.244 565.199 228.696 564.908 228.97C564.763 229.116 564.586 229.18 564.409 229.18Z" fill="#F3F7F0"/>
<path d="M319.896 14.1089C319.718 14.1089 319.541 14.0444 319.412 13.9152C319.122 13.6408 319.122 13.1888 319.396 12.9144L322.717 9.42751C322.991 9.13694 323.443 9.13694 323.717 9.41137C324.007 9.68579 324.007 10.1378 323.733 10.4122L320.412 13.8991C320.266 14.0444 320.089 14.1251 319.896 14.1251V14.1089Z" fill="#F3F7F0"/>
<path d="M308.254 26.2967C308.076 26.2967 307.899 26.2321 307.77 26.103C307.48 25.8285 307.48 25.3765 307.754 25.1021L311.075 21.6153C311.35 21.3247 311.801 21.3247 312.075 21.5991C312.365 21.8735 312.365 22.3255 312.091 22.6L308.77 26.0868C308.624 26.2321 308.447 26.3128 308.254 26.3128V26.2967Z" fill="#F3F7F0"/>
<path d="M311.527 14.2864C311.35 14.2864 311.172 14.2218 311.027 14.0765L307.657 10.7511C307.383 10.4767 307.367 10.0247 307.657 9.75025C307.931 9.47582 308.383 9.45968 308.657 9.75025L312.027 13.0757C312.301 13.3501 312.317 13.8021 312.027 14.0765C311.882 14.2218 311.704 14.2864 311.527 14.2864Z" fill="#F3F7F0"/>
<path d="M323.346 25.9578C323.169 25.9578 322.991 25.8932 322.846 25.7479L319.476 22.4225C319.202 22.1481 319.186 21.6961 319.476 21.4216C319.75 21.1472 320.202 21.1311 320.476 21.4216L323.846 24.7471C324.12 25.0215 324.136 25.4735 323.846 25.7479C323.701 25.8932 323.524 25.9578 323.346 25.9578Z" fill="#F3F7F0"/>
<path d="M217.553 460.636L206.765 571.15L199.074 570.828L202.896 454.647L217.553 460.636Z" fill="#2C3238"/>
<path d="M206.765 571.861C206.765 571.861 206.749 571.861 206.733 571.861L199.042 571.538C198.655 571.522 198.348 571.199 198.365 570.811L202.186 454.631C202.186 454.405 202.315 454.179 202.509 454.066C202.702 453.937 202.944 453.921 203.17 454.002L217.827 459.991C218.117 460.104 218.295 460.41 218.262 460.717L207.475 571.231C207.443 571.602 207.136 571.877 206.765 571.877V571.861ZM199.8 570.15L206.12 570.408L216.779 461.088L203.557 455.681L199.784 570.133L199.8 570.15Z" fill="#F3F7F0"/>
<path d="M72.9476 456.665L83.4608 571.425L91.4264 570.828L87.6048 450.467L72.9476 456.665Z" fill="#2C3238"/>
<path d="M83.4608 572.135C83.09 572.135 82.7836 571.861 82.7514 571.489L72.2381 456.73C72.2059 456.423 72.3832 456.133 72.6735 456.004L87.3307 449.805C87.5404 449.708 87.7983 449.74 87.9918 449.853C88.1853 449.982 88.3143 450.192 88.3143 450.434L92.1359 570.811C92.1359 571.199 91.8617 571.522 91.4747 571.538L83.5253 572.135C83.5253 572.135 83.4931 572.135 83.477 572.135H83.4608ZM73.6893 457.117L84.1058 570.666L90.6846 570.166L86.9115 451.516L73.6893 457.117Z" fill="#F3F7F0"/>
<path d="M36.3287 429.658L39.4246 550.165L45.6326 548.825L51.3245 423.927L36.3287 429.658Z" fill="#2C3238"/>
<path d="M39.4246 550.875C39.2634 550.875 39.1182 550.826 38.9892 550.73C38.828 550.6 38.7312 550.407 38.7151 550.197L35.6192 429.691C35.6192 429.384 35.7966 429.109 36.0707 429.013L51.0665 423.282C51.2923 423.201 51.5342 423.233 51.7277 423.363C51.9212 423.508 52.034 423.734 52.0179 423.976L46.3259 548.873C46.3259 549.196 46.0841 549.471 45.7616 549.535L39.5536 550.875C39.5536 550.875 39.4569 550.891 39.4085 550.891L39.4246 550.875ZM37.0543 430.143L40.118 549.293L44.9553 548.244L50.5828 424.977L37.0704 430.143H37.0543Z" fill="#F3F7F0"/>
<path d="M157.682 426.962L160.778 547.469L167.228 547.517L172.678 421.232L157.682 426.962Z" fill="#2C3238"/>
<path d="M126.497 332.85V360.89C126.497 388.316 148.104 410.545 174.758 410.545C201.412 410.545 223.019 432.774 223.019 460.201C223.019 462.638 221.052 464.624 218.601 464.624H90.862C50.9053 464.624 18.5271 431.289 18.5271 390.189V330.364C18.5271 314.011 31.4107 300.758 47.2934 300.758H95.2963C112.533 300.758 126.497 315.125 126.497 332.866V332.85Z" fill="#2C3238"/>
<path d="M218.601 465.334H90.862C50.5828 465.334 17.8177 431.628 17.8177 390.189V330.364C17.8177 313.64 31.0398 300.047 47.2934 300.047H95.2963C112.888 300.047 127.207 314.77 127.207 332.866V360.906C127.207 387.897 148.54 409.851 174.758 409.851C200.977 409.851 223.729 432.451 223.729 460.217C223.729 463.042 221.439 465.35 218.601 465.35V465.334ZM47.2934 301.452C31.8138 301.452 19.2366 314.415 19.2366 330.348V390.173C19.2366 430.821 51.3729 463.897 90.862 463.897H218.601C220.649 463.897 222.31 462.235 222.31 460.184C222.31 433.194 200.977 411.239 174.758 411.239C148.54 411.239 125.788 388.639 125.788 360.874V332.833C125.788 315.528 112.114 301.436 95.2963 301.436H47.2934V301.452Z" fill="#F3F7F0"/>
<path d="M6.15959 280.531C4.20852 279.723 2.48319 278.303 1.38672 276.366C-0.225741 273.492 -1.08034 268.908 2.53156 262.338C10.6906 247.518 24.2997 254.524 29.508 252.813C41.1822 248.971 38.4249 242.643 43.1655 236.509C46.7129 231.924 58.9676 223.256 77.5753 239.399C77.5753 239.399 85.9279 250.812 95.4091 246.469C107.051 241.126 130.416 253.201 123.031 271.152C120.902 276.333 117.064 280.305 112.388 282.468C111.534 282.855 110.615 283.243 109.599 283.582C106.68 284.582 104.423 287.198 103.697 290.555C101.311 301.484 92.3132 322.599 58.9031 301.355C56.3876 299.757 53.3885 299.547 50.7924 300.758C47.5836 302.243 44.1169 308.022 28.6695 305.584C18.7529 304.018 15.5925 292.46 12.9803 287.198C10.9002 283.017 7.90105 281.241 6.19184 280.531H6.15959Z" fill="#FFE600"/>
<path d="M177.999 361.213C164.858 365.329 139.687 353.916 135.382 334.771C131.98 319.596 126.659 311.88 124.595 309.346C123.611 307.667 122.321 306.085 120.612 304.584C108.373 293.816 87.1695 297.303 77.9946 298.804C67.5942 300.516 58.9676 301.936 53.0982 308.539C51.5342 310.298 50.4377 312.138 49.6798 314.092C38.4732 335.207 47.5514 356.999 53.1627 367.073C54.0818 407.462 40.7468 401.118 44.3587 419.036C49.438 444.3 90.0719 434.856 104.858 431.628C110.05 430.498 137.204 438.569 143.831 417.6C147.701 405.363 140.348 399.713 133.85 378.889C167.147 399.6 191.882 364.28 191.882 364.28L194.446 351.898C194.446 351.898 187.722 358.178 178.015 361.229L177.999 361.213Z" fill="#2C3238"/>
<path d="M73.1733 436.777C65.3046 436.777 57.6937 435.534 52.0824 431.87C47.5998 428.948 44.7618 424.67 43.6654 419.182C42.0529 411.142 43.7299 407.833 46.0679 403.249C48.9704 397.55 52.9531 389.769 52.4533 367.25C46.3582 356.224 37.9089 334.754 49.051 313.753C49.8733 311.67 51.0182 309.814 52.5661 308.054C58.5967 301.258 67.5297 299.789 77.8817 298.078C87.0727 296.56 108.583 293.025 121.079 304.018C122.789 305.52 124.127 307.118 125.191 308.91C127.352 311.589 132.673 319.403 136.075 334.593C137.93 342.842 144.154 350.558 153.151 355.756C161.665 360.68 171.34 362.552 177.79 360.518C187.239 357.564 193.882 351.414 193.946 351.349C194.172 351.139 194.511 351.091 194.785 351.252C195.059 351.398 195.188 351.721 195.14 352.011L192.576 364.393C192.56 364.49 192.511 364.57 192.463 364.651C192.398 364.748 186.078 373.675 175.726 379.922C166.422 385.54 151.926 390.06 135.108 380.423C137.172 386.734 139.316 391.642 141.074 395.661C144.718 404.007 147.137 409.528 144.525 417.777C139.123 434.84 120.628 433.29 110.679 432.467C108.18 432.257 106.019 432.08 105.019 432.29L104.1 432.499C96.7475 434.114 84.6702 436.761 73.1895 436.761L73.1733 436.777ZM50.2764 314.479C39.4568 334.964 47.8255 355.998 53.7916 366.717C53.84 366.814 53.8722 366.927 53.8883 367.04C54.4205 390.044 50.3248 398.034 47.3418 403.894C45.0521 408.382 43.5364 411.336 45.0682 418.891C46.1002 423.992 48.7285 427.963 52.8725 430.675C66.1914 439.376 91.5876 433.807 103.794 431.143L104.713 430.934C105.922 430.675 107.954 430.837 110.792 431.079C121.015 431.934 138.107 433.355 143.17 417.39C145.621 409.641 143.428 404.621 139.784 396.275C137.849 391.852 135.463 386.363 133.189 379.115C133.108 378.824 133.189 378.518 133.431 378.34C133.673 378.163 133.995 378.146 134.237 378.292C147.782 386.718 161.488 386.88 174.952 378.776C184.433 373.078 190.447 365.055 191.221 363.989L193.334 353.771C190.77 355.821 185.32 359.679 178.225 361.891C171.404 364.021 161.294 362.1 152.458 356.999C143.122 351.608 136.64 343.552 134.705 334.916C131.351 319.935 126.143 312.348 124.063 309.781C124.046 309.749 124.014 309.717 123.998 309.701C123.014 308.022 121.757 306.521 120.16 305.116C108.18 294.575 87.1211 298.029 78.1236 299.515C67.6265 301.242 59.3385 302.598 53.6465 309.023C52.1953 310.669 51.1149 312.413 50.3571 314.366C50.3409 314.414 50.3087 314.463 50.2764 314.511V314.479Z" fill="#F3F7F0"/>
<path d="M119.902 357.92C119.902 357.92 143.88 349.17 151.361 333.173L166.793 318.773C166.793 318.773 166.567 325.731 161.988 328.636C161.988 328.636 165.922 336.563 160.117 342.035C160.117 342.035 155.763 345.506 153.167 345.554C153.167 345.554 145.573 370.543 125.046 377.985C125.046 377.985 119.29 369.22 119.886 357.903L119.902 357.92Z" fill="#2C3238"/>
<path d="M125.046 378.712C124.82 378.712 124.595 378.599 124.45 378.389C124.208 378.017 118.564 369.3 119.177 357.871C119.177 357.581 119.37 357.338 119.644 357.242C119.886 357.161 143.428 348.411 150.7 332.866C150.733 332.785 150.797 332.704 150.862 332.64L166.293 318.24C166.502 318.047 166.809 317.998 167.067 318.111C167.325 318.224 167.486 318.499 167.486 318.773C167.486 319.064 167.212 325.65 162.858 328.879C163.648 330.864 165.777 337.644 160.585 342.552C160.375 342.729 156.473 345.812 153.683 346.232C152.506 349.703 144.347 371.754 125.272 378.663C125.191 378.695 125.111 378.712 125.03 378.712H125.046ZM120.58 358.42C120.225 367.686 124.224 375.209 125.352 377.13C144.895 369.655 152.41 345.603 152.49 345.36C152.587 345.07 152.845 344.86 153.151 344.86C155.086 344.812 158.521 342.406 159.682 341.486C164.987 336.482 161.504 329.266 161.359 328.959C161.197 328.636 161.31 328.233 161.617 328.039C164.422 326.263 165.47 322.777 165.857 320.613L151.942 333.592C144.831 348.573 123.998 357.096 120.58 358.404V358.42Z" fill="#F3F7F0"/>
<path d="M98.2793 385.944C78.301 385.944 66.8364 376.032 66.6751 375.903C66.3849 375.644 66.3526 375.192 66.6106 374.902C66.8686 374.611 67.3201 374.579 67.6104 374.837C67.82 375.015 88.2176 392.578 122.176 379.971C122.547 379.842 122.95 380.019 123.095 380.39C123.224 380.762 123.047 381.165 122.676 381.311C113.549 384.701 105.374 385.96 98.2632 385.96L98.2793 385.944Z" fill="#F3F7F0"/>
<path d="M110.55 358.872C93.1517 358.872 83.0093 348.944 77.4625 340.211C70.932 329.928 69.1906 318.983 69.1745 318.886C69.11 318.498 69.3841 318.143 69.7711 318.079C70.1581 318.014 70.5289 318.289 70.5773 318.676C70.5934 318.789 72.3026 329.459 78.6718 339.5C87.1695 352.867 99.5209 358.839 115.355 357.225C115.742 357.177 116.097 357.467 116.129 357.855C116.161 358.242 115.887 358.597 115.5 358.63C113.791 358.807 112.13 358.888 110.534 358.888L110.55 358.872Z" fill="#F3F7F0"/>
<path d="M124.046 346.281C124.046 346.281 123.982 346.281 123.95 346.281C123.563 346.216 123.289 345.861 123.353 345.473C126.481 324.052 116.694 311.929 116.597 311.799C116.355 311.493 116.387 311.057 116.694 310.799C117 310.54 117.435 310.589 117.693 310.895C118.113 311.396 127.997 323.584 124.772 345.683C124.724 346.038 124.417 346.297 124.079 346.297L124.046 346.281Z" fill="#F3F7F0"/>
<path d="M119.628 286.068C118.967 281.612 120.031 269.763 119.838 270.054C117.935 272.863 111.647 269.537 105.987 269.311C100.327 269.085 102.23 277.593 102.23 277.593C102.23 277.593 100.569 271.813 97.0377 275.429C94.9899 277.528 97.2473 280.24 99.3596 282C98.7792 282.661 88.5884 293.655 82.3482 300.209L96.1992 310.734L103.133 304.244L101.714 301.984C100.698 300.37 100.617 298.352 101.472 296.657L104.858 290.91C105.632 291.847 106.616 292.928 107.535 293.558C109.341 294.817 111.582 294.623 113.178 293.106C115.371 291.023 116.887 288.667 117.58 286.39L119.628 286.035V286.068Z" fill="#2C3238"/>
<path d="M96.1831 311.46C96.038 311.46 95.8768 311.412 95.7478 311.315L81.8967 300.79C81.7355 300.661 81.6387 300.483 81.6226 300.273C81.6226 300.08 81.671 299.87 81.8161 299.724C87.5242 293.752 96.1831 284.421 98.3438 282.064C97.0055 280.837 95.6188 279.158 95.522 277.447C95.4736 276.511 95.8123 275.656 96.5217 274.929C97.6505 273.767 98.7631 273.331 99.8595 273.605C100.376 273.735 100.827 274.025 101.214 274.396C101.246 272.879 101.52 271.184 102.504 270.006C103.326 269.005 104.503 268.537 106.019 268.585C108.164 268.666 110.389 269.182 112.372 269.634C115.565 270.377 118.322 271.006 119.257 269.634C119.435 269.376 119.773 269.247 120.08 269.36C120.456 269.489 120.585 270.592 120.467 272.669C120.273 276.253 119.886 282.92 120.338 285.955C120.402 286.342 120.128 286.697 119.757 286.762L118.129 287.036C117.339 289.312 115.807 291.588 113.678 293.639C111.84 295.398 109.212 295.608 107.132 294.171C106.503 293.735 105.777 293.057 104.971 292.153L102.085 297.045C101.359 298.465 101.44 300.241 102.31 301.629L103.729 303.889C103.907 304.18 103.858 304.551 103.617 304.793L96.683 311.283C96.554 311.412 96.3766 311.476 96.1992 311.476L96.1831 311.46ZM83.3963 300.144L96.1347 309.83L102.198 304.148L101.101 302.388C99.9724 300.58 99.8595 298.272 100.827 296.367L104.245 290.572C104.358 290.378 104.568 290.249 104.794 290.216C105.019 290.2 105.245 290.297 105.39 290.475C106.374 291.669 107.228 292.509 107.922 292.993C109.454 294.058 111.308 293.913 112.662 292.605C114.759 290.604 116.21 288.392 116.887 286.197C116.968 285.938 117.177 285.745 117.451 285.696L118.838 285.454C118.5 282.08 118.838 275.962 119.032 272.572C119.048 272.201 119.08 271.846 119.096 271.507C117.403 272.233 114.872 271.652 112.05 271.006C110.05 270.538 107.97 270.07 105.955 269.989C104.907 269.941 104.133 270.248 103.584 270.893C102.214 272.54 102.633 276.156 102.923 277.415C103.004 277.786 102.778 278.158 102.407 278.255C102.036 278.351 101.649 278.125 101.553 277.77C101.359 277.125 100.601 275.236 99.5209 274.961C98.9565 274.816 98.2954 275.139 97.5537 275.898C97.1183 276.334 96.9248 276.818 96.9571 277.351C97.0055 278.481 98.0374 279.917 99.8273 281.435C99.9724 281.564 100.069 281.741 100.085 281.919C100.085 282.113 100.037 282.29 99.9079 282.436C99.3758 283.049 89.83 293.364 83.4124 300.08L83.3963 300.144Z" fill="#F3F7F0"/>
<path d="M104.858 291.637C104.632 291.637 104.423 291.54 104.278 291.346L103.197 289.829C102.972 289.506 103.036 289.07 103.359 288.844C103.681 288.618 104.116 288.683 104.342 289.006L105.422 290.523C105.648 290.846 105.584 291.282 105.261 291.508C105.132 291.605 104.987 291.637 104.842 291.637H104.858Z" fill="#F3F7F0"/>
<path d="M224.196 514.247C224.067 514.812 230.694 545.209 230.694 545.209L215.441 542.658L210.845 516.959L224.196 514.247Z" fill="#2C3238"/>
<path d="M230.694 545.919C230.694 545.919 230.614 545.919 230.581 545.919L215.328 543.369C215.037 543.32 214.796 543.094 214.747 542.787L210.152 517.088C210.087 516.701 210.329 516.345 210.716 516.265L224.067 513.553C224.309 513.504 224.551 513.585 224.712 513.763C224.857 513.908 224.922 514.102 224.906 514.295C225.002 515.554 228.824 533.344 231.388 545.063C231.436 545.289 231.372 545.532 231.21 545.709C231.081 545.854 230.888 545.935 230.694 545.935V545.919ZM216.053 542.029L229.775 544.321C225.244 523.545 223.954 517.12 223.616 515.07L211.667 517.492L216.053 542.013V542.029Z" fill="#F3F7F0"/>
<path d="M222.6 535.233C223.535 534.442 224.873 533.683 226.566 533.602C229.13 533.489 231.452 535.087 232.516 537.444C235.161 543.32 242.127 559.721 244.11 573.12C244.803 577.85 241.24 581.708 235.677 578.608C226.566 573.523 213.925 561.852 207.298 544.612C206.54 542.626 206.814 540.398 208.055 538.687C209.071 537.299 210.458 535.604 212.054 534.167C213.586 532.795 215.892 532.779 217.488 534.086L218.923 535.265C220.004 536.153 221.536 536.137 222.6 535.233Z" fill="#2C3238"/>
<path d="M239.418 580.449C238.305 580.449 236.935 580.142 235.322 579.238C225.792 573.911 213.248 562.094 206.636 544.87C205.782 542.642 206.104 540.172 207.491 538.267C208.829 536.443 210.216 534.877 211.603 533.634C213.393 532.02 216.069 531.972 217.956 533.521L219.391 534.7C220.197 535.362 221.358 535.362 222.164 534.684C223.471 533.586 225.002 532.956 226.55 532.892C229.308 532.779 231.968 534.49 233.178 537.154C236.032 543.482 242.852 559.657 244.819 573.023C245.223 575.751 244.32 578.253 242.449 579.529C241.836 579.948 240.837 580.433 239.434 580.433L239.418 580.449ZM214.812 533.828C213.989 533.828 213.183 534.119 212.538 534.7C211.232 535.878 209.91 537.363 208.636 539.107C207.539 540.608 207.281 542.578 207.959 544.353C214.441 561.223 226.695 572.781 236.015 577.979C238.208 579.206 240.208 579.335 241.627 578.35C243.046 577.382 243.707 575.412 243.401 573.217C241.466 560.028 234.693 544.014 231.871 537.735C230.904 535.588 228.792 534.216 226.599 534.312C225.341 534.361 224.148 534.861 223.067 535.765C221.745 536.879 219.81 536.895 218.472 535.798L217.037 534.619C216.376 534.086 215.586 533.812 214.812 533.812V533.828Z" fill="#F3F7F0"/>
<path d="M240.627 575.105C239.434 575.105 226.566 574.347 210.974 543.498C210.797 543.142 210.942 542.723 211.28 542.545C211.635 542.368 212.054 542.513 212.232 542.852C227.856 573.782 240.514 573.685 240.643 573.685C241.046 573.685 241.369 573.975 241.385 574.363C241.385 574.75 241.095 575.089 240.708 575.105C240.708 575.105 240.675 575.105 240.627 575.105Z" fill="#F3F7F0"/>
<path d="M230.856 558.123C230.565 558.123 230.307 557.945 230.195 557.671C230.049 557.3 230.227 556.896 230.598 556.751L237.821 553.894C238.192 553.748 238.595 553.926 238.741 554.297C238.886 554.668 238.708 555.072 238.337 555.217L231.114 558.075C231.033 558.107 230.936 558.123 230.856 558.123Z" fill="#F3F7F0"/>
<path d="M228.324 552.57C228.034 552.57 227.776 552.392 227.663 552.118C227.518 551.747 227.695 551.343 228.066 551.198L236.548 547.889C236.918 547.743 237.322 547.921 237.467 548.292C237.612 548.663 237.434 549.067 237.064 549.212L228.582 552.521C228.501 552.554 228.405 552.57 228.324 552.57Z" fill="#F3F7F0"/>
<path d="M158.569 517.007C158.214 517.459 151.474 547.84 151.474 547.84L138.704 539.107L145.331 513.859L158.585 517.023L158.569 517.007Z" fill="#2C3238"/>
<path d="M151.474 548.534C151.329 548.534 151.2 548.486 151.071 548.405L138.301 539.672C138.059 539.494 137.946 539.188 138.01 538.897L144.637 513.65C144.734 513.278 145.121 513.052 145.492 513.133L158.73 516.297C158.972 516.345 159.15 516.523 159.23 516.749C159.295 516.943 159.279 517.136 159.182 517.314C158.746 518.509 154.748 536.25 152.152 547.969C152.103 548.195 151.942 548.389 151.716 548.47C151.636 548.502 151.539 548.518 151.458 548.518L151.474 548.534ZM139.526 538.784L151.007 546.646C155.618 525.886 157.15 519.526 157.698 517.524L145.847 514.699L139.526 538.8V538.784Z" fill="#F3F7F0"/>
<path d="M148.298 535.378C149.475 535.055 151.007 534.926 152.571 535.572C154.941 536.54 156.376 538.978 156.344 541.561C156.279 548.018 155.715 565.823 151.877 578.802C150.523 583.387 145.669 585.388 141.929 580.223C135.801 571.78 129.222 555.863 130.448 537.428C130.593 535.313 131.77 533.392 133.624 532.375C135.14 531.536 137.091 530.584 139.155 529.954C141.122 529.357 143.235 530.309 144.121 532.166L144.928 533.844C145.524 535.104 146.943 535.733 148.282 535.362L148.298 535.378Z" fill="#2C3238"/>
<path d="M146.863 584C145.46 584 143.38 583.419 141.38 580.659C134.963 571.812 128.545 555.815 129.771 537.412C129.932 535.023 131.254 532.924 133.318 531.778C135.301 530.68 137.204 529.841 138.994 529.308C141.3 528.598 143.751 529.679 144.799 531.891L145.605 533.57C146.056 534.506 147.121 534.99 148.137 534.716C149.797 534.264 151.426 534.345 152.877 534.942C155.425 535.991 157.134 538.671 157.102 541.593C157.021 548.534 156.441 566.082 152.603 579.028C151.813 581.676 149.959 583.564 147.717 583.936C147.475 583.984 147.185 584 146.879 584H146.863ZM140.397 530.503C140.058 530.503 139.719 530.551 139.397 530.648C137.704 531.165 135.898 531.956 133.995 533.005C132.367 533.909 131.319 535.588 131.19 537.493C129.98 555.524 136.253 571.183 142.525 579.819C144.009 581.853 145.766 582.822 147.459 582.531C149.152 582.241 150.587 580.739 151.216 578.608C154.989 565.839 155.57 548.437 155.651 541.561C155.683 539.204 154.328 537.073 152.313 536.233C151.152 535.749 149.862 535.701 148.491 536.072C146.814 536.524 145.057 535.733 144.315 534.167L143.509 532.488C142.912 531.245 141.687 530.503 140.397 530.503Z" fill="#F3F7F0"/>
<path d="M148.266 579.222C148.169 579.222 148.088 579.206 147.991 579.173C147.475 578.964 135.511 573.523 134.285 537.993C134.285 537.606 134.576 537.267 134.963 537.25C135.35 537.25 135.688 537.541 135.704 537.929C136.898 572.555 148.427 577.801 148.54 577.85C148.894 577.995 149.072 578.415 148.927 578.786C148.814 579.06 148.556 579.222 148.266 579.222Z" fill="#F3F7F0"/>
<path d="M154.248 560.141C154.248 560.141 154.215 560.141 154.199 560.141L146.443 559.689C146.056 559.673 145.75 559.334 145.782 558.946C145.798 558.559 146.137 558.252 146.54 558.285L154.296 558.737C154.683 558.753 154.989 559.092 154.957 559.479C154.941 559.85 154.619 560.141 154.248 560.141Z" fill="#F3F7F0"/>
<path d="M155.602 554.168C155.602 554.168 155.57 554.168 155.554 554.168L146.476 553.603C146.089 553.571 145.782 553.248 145.815 552.844C145.847 552.457 146.185 552.15 146.572 552.183L155.651 552.748C156.038 552.78 156.344 553.103 156.312 553.506C156.296 553.878 155.973 554.168 155.602 554.168Z" fill="#F3F7F0"/>
<path d="M87.234 397.276C87.234 397.276 180.095 393.24 190.254 402.684C204.024 415.485 227.679 522.076 227.679 522.076L204.831 528.485C204.831 528.485 170.405 441.007 161.891 441.007C153.377 441.007 72.9637 438.133 72.9637 438.133L87.234 397.276Z" fill="#F3F7F0"/>
<path d="M81.0905 394.951C73.7538 394.58 67.1911 399.487 65.4658 406.639C62.7891 417.713 60.4672 432.871 66.4655 436.906C76.2048 443.477 146.46 442.912 144.025 442.088C141.59 441.265 137.736 501.026 137.736 524.013L159.859 524.869C159.859 524.869 195.107 432.451 191.318 422.12C184.514 403.652 132.189 399.423 115.452 396.953C113.195 396.614 94.103 395.613 81.1066 394.935L81.0905 394.951Z" fill="#F3F7F0"/>
<path d="M179.644 472.986C179.644 472.986 179.499 472.986 179.434 472.954C179.063 472.841 178.854 472.437 178.983 472.066C179.773 469.58 180.563 467.142 181.337 464.737C187.529 445.591 192.866 429.045 190.657 422.362C185.965 408.156 150.813 402.716 139.268 400.94C138.881 400.876 138.607 400.521 138.671 400.133C138.736 399.746 139.091 399.471 139.478 399.536C159.891 402.7 187.545 408.463 191.995 421.926C194.35 429.061 189.206 444.994 182.675 465.189C181.901 467.578 181.111 470.032 180.321 472.518C180.224 472.824 179.95 473.018 179.644 473.018V472.986Z" fill="#2C3238"/>
<path d="M383.056 444.235L393.843 554.749L401.534 554.426L397.713 438.246L383.056 444.235Z" fill="#2C3238"/>
<path d="M393.843 555.459C393.472 555.459 393.166 555.185 393.133 554.814L382.346 444.3C382.314 443.993 382.491 443.686 382.781 443.573L397.439 437.584C397.648 437.504 397.89 437.52 398.1 437.649C398.293 437.778 398.422 437.988 398.422 438.214L402.244 554.394C402.244 554.781 401.954 555.104 401.567 555.12L393.875 555.443C393.875 555.443 393.859 555.443 393.843 555.443V555.459ZM383.813 444.687L394.472 554.007L400.793 553.748L397.019 439.295L383.797 444.703L383.813 444.687Z" fill="#F3F7F0"/>
<path d="M527.661 440.264L517.148 555.024L509.182 554.426L513.004 434.065L527.661 440.264Z" fill="#2C3238"/>
<path d="M517.148 555.734C517.148 555.734 517.115 555.734 517.099 555.734L509.15 555.137C508.763 555.104 508.489 554.781 508.489 554.41L512.31 434.033C512.31 433.791 512.439 433.581 512.633 433.452C512.826 433.323 513.084 433.306 513.294 433.403L527.951 439.602C528.241 439.715 528.402 440.006 528.386 440.329L517.873 555.088C517.841 555.459 517.535 555.734 517.164 555.734H517.148ZM509.924 553.764L516.503 554.265L526.919 440.716L513.697 435.114L509.924 553.764Z" fill="#F3F7F0"/>
<path d="M564.28 413.257L561.184 533.763L554.976 532.424L549.284 407.526L564.28 413.257Z" fill="#2C3238"/>
<path d="M561.184 534.474C561.184 534.474 561.087 534.474 561.039 534.458L554.831 533.118C554.508 533.053 554.282 532.779 554.266 532.456L548.574 407.559C548.574 407.316 548.671 407.09 548.865 406.945C549.058 406.8 549.316 406.768 549.526 406.864L564.522 412.595C564.796 412.708 564.989 412.983 564.973 413.273L561.877 533.78C561.877 533.989 561.78 534.183 561.603 534.312C561.474 534.409 561.329 534.458 561.168 534.458L561.184 534.474ZM555.653 531.842L560.49 532.892L563.554 413.741L550.042 408.576L555.669 531.842H555.653Z" fill="#F3F7F0"/>
<path d="M442.926 410.561L439.83 531.068L433.38 531.116L427.93 404.831L442.926 410.561Z" fill="#2C3238"/>
<path d="M433.38 531.826C432.993 531.826 432.687 531.52 432.671 531.148L427.221 404.879C427.221 404.637 427.317 404.411 427.511 404.265C427.704 404.12 427.962 404.088 428.172 404.185L443.168 409.915C443.442 410.028 443.636 410.303 443.619 410.593L440.524 531.1C440.524 531.487 440.201 531.794 439.814 531.794L433.364 531.826H433.38ZM428.688 405.896L434.058 530.406L439.137 530.373L442.2 411.062L428.672 405.896H428.688Z" fill="#F3F7F0"/>
<path d="M474.111 316.448V344.488C474.111 371.915 452.504 394.144 425.85 394.144C399.196 394.144 377.589 416.372 377.589 443.799C377.589 446.237 379.556 448.222 382.007 448.222H509.746C549.703 448.222 582.081 414.887 582.081 373.788V313.962C582.081 297.61 569.198 284.356 553.315 284.356H505.312C488.075 284.356 474.111 298.723 474.111 316.464V316.448Z" fill="#2C3238"/>
<path d="M509.746 448.933H382.007C379.186 448.933 376.88 446.624 376.88 443.799C376.88 416.034 398.841 393.434 425.85 393.434C452.859 393.434 473.402 371.479 473.402 344.488V316.448C473.402 298.352 487.72 283.63 505.312 283.63H553.315C569.569 283.63 582.791 297.238 582.791 313.946V373.772C582.791 415.21 550.026 448.917 509.746 448.917V448.933ZM505.312 285.05C488.494 285.05 474.82 299.127 474.82 316.448V344.488C474.82 372.254 452.859 394.854 425.85 394.854C398.841 394.854 378.299 416.808 378.299 443.799C378.299 445.849 379.96 447.512 382.007 447.512H509.746C549.235 447.512 581.372 414.435 581.372 373.788V313.962C581.372 298.029 568.778 285.067 553.315 285.067H505.312V285.05Z" fill="#F3F7F0"/>
<path d="M465.001 317.772C465.001 317.772 458.035 381.133 411.29 385.282L465.001 386.04C465.001 386.04 484.882 345.651 485.705 329.912C486.511 314.188 465.001 317.756 465.001 317.756V317.772Z" fill="#2C3238"/>
<path d="M465.001 386.751L411.29 385.992C410.919 385.992 410.596 385.685 410.596 385.314C410.596 384.943 410.87 384.62 411.241 384.588C435.041 382.473 448.199 364.457 455.036 349.719C462.485 333.657 464.291 317.869 464.307 317.708C464.34 317.385 464.581 317.143 464.904 317.078C465.388 316.997 476.917 315.157 482.947 320.533C485.463 322.777 486.64 325.957 486.43 329.96C485.624 345.651 466.468 384.7 465.662 386.363C465.549 386.605 465.291 386.767 465.033 386.767L465.001 386.751ZM419.11 384.668L464.549 385.314C466.613 381.052 484.221 344.44 484.979 329.863C485.156 326.312 484.157 323.519 481.964 321.566C477.126 317.24 467.903 318.095 465.629 318.37C465.242 321.324 463.066 335.659 456.309 350.236C447.651 368.913 434.896 380.665 419.11 384.652V384.668Z" fill="#F3F7F0"/>
<path d="M531.531 277.496C522.453 275.365 518.679 275.333 485.705 276.527C477.642 276.818 468.064 286.955 467.113 294.978C469.677 302.679 481.496 340.679 460.857 370.382C457.922 374.595 453.955 379.212 448.489 383.651C451.553 386.137 456.326 389.382 462.743 391.287C473.385 394.451 478.723 391.028 487.301 391.287C509.972 391.965 518.292 417.277 532.933 414.097C536.836 413.241 542.028 410.19 546.881 399.939C549.639 391.432 552.089 381.456 553.444 370.172C557.136 339.581 551.09 314.108 545.688 298.126C544.076 293.074 542.221 280.03 531.531 277.512V277.496Z" fill="#F3F7F0"/>
<path d="M458.841 324.875C458.841 324.875 464.178 282.032 479.545 278.367L476.014 334.722L458.841 324.859V324.875Z" fill="#F3F7F0"/>
<path d="M536.948 313.43C543.963 316.4 552.202 319.919 559.475 323.035C559.475 323.132 559.475 323.212 559.475 323.309L536.948 313.575V313.43Z" fill="#2C3238"/>
<path d="M559.475 324.019C559.378 324.019 559.281 324.003 559.2 323.955L536.674 314.221C536.432 314.108 536.255 313.866 536.239 313.607V313.462C536.223 313.22 536.336 312.978 536.529 312.849C536.723 312.703 536.981 312.687 537.206 312.784C545.785 316.416 553.573 319.742 559.733 322.389C559.991 322.502 560.152 322.744 560.168 323.019V323.293C560.168 323.535 560.055 323.761 559.862 323.89C559.749 323.971 559.604 324.003 559.458 324.003L559.475 324.019Z" fill="#F3F7F0"/>
<path d="M563.393 332.72C563.393 332.72 561.893 307.263 559.7 297.432C555.089 276.737 528.338 276.527 528.338 276.527L533.014 329.185L563.409 332.72H563.393Z" fill="#F3F7F0"/>
<path d="M505.296 273.024L504.393 260.158C503.78 260.11 503.361 260.094 503.232 260.094C499.652 260.045 498.491 258.883 498.169 255.945C497.975 254.105 497.911 251.36 498.798 247.938C498.895 247.567 498.878 247.179 498.717 246.84L498.104 245.404C497.975 244.936 498.137 244.419 498.524 244.112L498.846 243.838C500.007 242.885 500.991 241.691 501.765 240.383C502.474 239.173 503.7 236.913 504.538 236.509C506.892 235.379 516.438 230.375 521.791 239.124C525.952 245.953 519.147 255.348 516.68 258.415C516.083 259.157 520.711 273.751 520.711 273.751L526.709 275.203C526.709 275.203 522.082 283.436 508.037 280.03C498.04 277.609 499.62 273.88 499.62 273.88L505.28 273.04L505.296 273.024Z" fill="#2C3238"/>
<path d="M514.535 281.548C512.584 281.548 510.391 281.289 507.892 280.692C503.151 279.546 500.233 277.932 499.217 275.914C498.572 274.638 498.959 273.686 498.991 273.573C499.088 273.347 499.298 273.186 499.539 273.153L504.538 272.411L503.716 260.804C503.458 260.788 503.28 260.772 503.216 260.772C499.378 260.723 497.83 259.432 497.459 255.977C497.169 253.201 497.379 250.505 498.121 247.712C498.185 247.486 498.169 247.26 498.088 247.066L497.476 245.63C497.476 245.63 497.459 245.565 497.443 245.533C497.25 244.79 497.492 243.999 498.088 243.515L498.411 243.241C499.475 242.369 500.394 241.271 501.168 239.98L501.491 239.431C502.539 237.639 503.393 236.235 504.248 235.831L504.506 235.718C512.746 231.731 518.76 232.748 522.42 238.721C526.661 245.662 520.372 254.912 517.357 258.705C517.357 259.932 519.308 266.825 521.292 273.121L526.887 274.477C527.096 274.525 527.29 274.687 527.37 274.881C527.467 275.09 527.451 275.316 527.338 275.51C527.177 275.801 523.823 281.531 514.535 281.531V281.548ZM500.265 274.477C500.265 274.687 500.33 274.977 500.523 275.333C501.007 276.237 502.652 277.964 508.231 279.304C518.953 281.903 523.952 277.496 525.532 275.607L520.566 274.412C520.324 274.348 520.131 274.17 520.05 273.944C515.293 258.996 515.874 258.286 516.132 257.947C518.921 254.476 525 245.71 521.195 239.463C516.357 231.553 507.892 235.653 505.119 236.993L504.861 237.122C504.345 237.381 503.248 239.253 502.716 240.157L502.394 240.722C501.539 242.159 500.507 243.386 499.314 244.354L498.991 244.629C498.846 244.758 498.765 244.952 498.798 245.145L499.394 246.534C499.604 247.018 499.636 247.567 499.507 248.1C498.814 250.731 498.62 253.265 498.894 255.864C499.152 258.27 499.83 259.351 503.248 259.383C503.377 259.383 503.812 259.416 504.457 259.448C504.812 259.48 505.086 259.755 505.119 260.11L506.022 272.976C506.054 273.347 505.78 273.67 505.425 273.734L500.281 274.493L500.265 274.477Z" fill="#F3F7F0"/>
<path d="M518.857 227.969C516.261 227.404 513.294 227.808 512.036 227.34C510.004 226.597 509.956 224.16 507.15 223.482C503.764 222.658 502.345 224.111 501.007 226.129C500.781 226.468 500.588 226.839 500.426 227.275C498.298 233.006 500.991 235.815 502.184 236.719C502.184 236.719 509.827 240.674 511.133 241.804C512.359 242.853 513.761 245.355 512.875 248.955C512.762 249.423 512.955 249.908 513.358 250.134C513.81 250.408 514.406 250.279 514.729 249.827C515.729 248.39 517.889 245.597 519.437 246.259C521.372 247.083 520.776 252.91 516.503 253.588C515.196 253.798 514.116 255.138 514.245 256.526C514.326 257.43 515.18 258.512 516.438 258.802C517.212 258.98 517.97 258.673 518.631 258.237C521.421 256.445 529.289 248.874 530.273 242.078C531.45 233.894 522.307 228.712 518.857 227.969Z" fill="#F3F7F0"/>
<path d="M503.425 260.723C503.038 260.723 502.732 260.417 502.716 260.045C502.716 259.658 503.006 259.319 503.393 259.303C503.426 259.303 506.151 259.174 508.021 257.592C508.327 257.333 508.763 257.366 509.021 257.672C509.279 257.979 509.246 258.415 508.94 258.673C506.699 260.594 503.571 260.723 503.442 260.723C503.442 260.723 503.426 260.723 503.409 260.723H503.425Z" fill="#F3F7F0"/>
<path d="M442.2 519.041C440.894 517.717 433.348 494.181 433.348 494.181L418.433 504.852L434.783 526.887L442.2 519.057V519.041Z" fill="#2C3238"/>
<path d="M434.783 527.581C434.783 527.581 434.751 527.581 434.735 527.581C434.525 527.581 434.332 527.468 434.203 527.29L417.852 505.255C417.74 505.11 417.691 504.916 417.723 504.723C417.756 504.529 417.852 504.367 418.014 504.254L432.929 493.584C433.106 493.455 433.348 493.423 433.558 493.487C433.767 493.552 433.945 493.729 434.009 493.939C436.879 502.866 441.765 517.443 442.7 518.525C442.942 518.799 442.958 519.235 442.7 519.509L435.283 527.339C435.154 527.484 434.961 527.565 434.767 527.565L434.783 527.581ZM419.433 504.997L434.848 525.773L441.314 518.944C439.54 515.554 434.59 500.348 432.961 495.327L419.416 505.013L419.433 504.997Z" fill="#F3F7F0"/>
<path d="M415.321 548.809L425.237 548.744C431.8 548.712 437.911 545.37 441.491 539.849L451.295 524.288C454.004 519.977 452.488 514.279 448.005 511.89C443.91 509.711 439.621 507.58 438.621 507.677C436.573 507.87 435.751 517.556 435.751 517.556L426.914 517.895C426.914 517.895 422.545 536.088 418.707 538.17C415.901 539.672 413.95 541.883 412.644 543.917C411.274 546.032 412.805 548.825 415.321 548.825V548.809Z" fill="#F3F7F0"/>
<path d="M416.321 545.628C415.982 545.628 415.676 545.37 415.627 545.031C415.563 544.644 415.837 544.288 416.224 544.224L429.801 542.174C432.639 541.738 435.122 540.075 436.605 537.605L448.602 517.524C448.795 517.185 449.247 517.072 449.569 517.281C449.908 517.475 450.021 517.927 449.811 518.25L437.815 538.332C436.122 541.173 433.267 543.078 430.01 543.578L416.433 545.628C416.433 545.628 416.369 545.628 416.321 545.628Z" fill="#2C3238"/>
<path d="M433.058 530.535C433.058 530.535 432.929 530.535 432.864 530.503L425.302 528.436C424.931 528.339 424.705 527.936 424.802 527.565C424.899 527.193 425.302 526.967 425.673 527.064L433.235 529.13C433.606 529.227 433.832 529.631 433.735 530.002C433.654 530.325 433.364 530.519 433.058 530.519V530.535Z" fill="#2C3238"/>
<path d="M429.123 534.425C429.123 534.425 429.011 534.425 428.946 534.409L423.883 533.166C423.496 533.069 423.27 532.682 423.367 532.31C423.464 531.923 423.851 531.697 424.222 531.794L429.285 533.037C429.672 533.134 429.897 533.521 429.801 533.892C429.72 534.215 429.43 534.441 429.107 534.441L429.123 534.425Z" fill="#2C3238"/>
<path d="M391.295 514.553L373.977 531.988L364.786 528.614L380.766 506.288L391.295 514.553Z" fill="#2C3238"/>
<path d="M373.977 532.698C373.897 532.698 373.816 532.698 373.736 532.65L364.561 529.276C364.351 529.195 364.19 529.034 364.125 528.824C364.061 528.614 364.093 528.388 364.222 528.194L380.185 505.885C380.298 505.723 380.476 505.626 380.669 505.594C380.863 505.562 381.056 505.61 381.201 505.739L391.731 513.988C391.892 514.118 391.989 514.295 392.005 514.505C392.005 514.715 391.94 514.909 391.795 515.054L374.477 532.504C374.348 532.633 374.155 532.714 373.977 532.714V532.698ZM365.915 528.259L373.8 531.164L390.231 514.618L380.911 507.321L365.915 528.275V528.259Z" fill="#F3F7F0"/>
<path d="M482.98 385.782C482.98 385.782 403.824 376.064 380.282 397.566C356.74 419.069 417.433 511.551 417.433 511.551L436.621 496.522L418.417 431.16L491.59 409.221L482.963 385.782H482.98Z" fill="#2C3238"/>
<path d="M417.433 512.261C417.433 512.261 417.353 512.261 417.32 512.261C417.127 512.229 416.949 512.116 416.837 511.954C414.337 508.161 356.079 418.713 379.798 397.05C403.308 375.563 479.819 384.684 483.06 385.088C483.318 385.12 483.544 385.298 483.641 385.54L492.267 408.979C492.332 409.157 492.332 409.367 492.235 409.544C492.154 409.722 491.993 409.851 491.8 409.899L419.287 431.628L437.315 496.328C437.395 496.603 437.299 496.909 437.073 497.087L417.885 512.116C417.756 512.213 417.611 512.261 417.449 512.261H417.433ZM443.942 384.329C420.497 384.329 392.908 386.96 380.75 398.083C358.933 418.003 412.273 502.236 417.61 510.502L435.815 496.247L417.74 431.337C417.643 430.966 417.852 430.578 418.223 430.465L490.671 408.753L482.464 386.428C479.626 386.105 463.179 384.329 443.942 384.329Z" fill="#F3F7F0"/>
<path d="M526.548 428.334C515.051 432.193 494.476 437.165 465.71 436.745C457.535 436.632 449.989 441.394 446.28 449.078C437.766 466.706 419.32 498.459 389.296 519.025L374.961 510.873L411.564 423.895C414.902 415.953 421.158 409.786 428.882 406.784L501.426 378.711C501.426 378.711 523.92 372.077 534.949 393.272C536.916 397.05 540.577 390.286 541.447 393.353C544.43 403.83 536.4 425.025 526.532 428.334H526.548Z" fill="#2C3238"/>
<path d="M389.312 519.751C389.199 519.751 389.07 519.719 388.957 519.655L374.622 511.502C374.316 511.325 374.187 510.937 374.316 510.615L410.919 423.637C414.321 415.565 420.771 409.189 428.64 406.154L501.184 378.082C501.474 378.001 524.42 371.512 535.594 392.982C535.82 393.434 536.078 393.692 536.352 393.757C536.916 393.902 537.787 393.321 538.545 392.82C539.448 392.207 540.319 391.642 541.141 391.932C541.608 392.11 541.947 392.53 542.141 393.175C545.172 403.83 537.077 425.574 526.758 429.029C514.568 433.113 494.089 437.891 465.694 437.488C465.597 437.488 465.5 437.488 465.404 437.488C457.551 437.488 450.489 442.04 446.925 449.417C438.556 466.738 419.997 498.895 389.699 519.638C389.586 519.719 389.441 519.768 389.296 519.768L389.312 519.751ZM375.864 510.582L389.263 518.202C419.078 497.62 437.379 465.899 445.651 448.788C449.44 440.926 457.325 435.938 465.726 436.051C493.912 436.454 514.245 431.724 526.322 427.673C535.852 424.476 543.608 403.475 540.786 393.563C540.706 393.305 540.641 393.24 540.641 393.24C540.448 393.224 539.754 393.692 539.351 393.983C538.351 394.66 537.206 395.419 536.013 395.129C535.336 394.951 534.772 394.451 534.352 393.627C523.726 373.207 502.555 379.163 501.652 379.422L429.156 407.478C421.642 410.384 415.482 416.469 412.225 424.202L375.864 510.598V510.582Z" fill="#F3F7F0"/>
<path d="M379.444 529.26C379.444 529.26 380.282 536.685 378.863 543.239C378.105 546.726 374.961 549.196 371.397 549.196H328.893C325.862 549.196 324.475 545.402 326.813 543.433C334.375 537.089 348.275 527.387 365.367 524.546L370.14 531.229L379.46 529.243L379.444 529.26Z" fill="#F3F7F0"/>
<path d="M374.961 544.047H330.909C330.522 544.047 330.199 543.724 330.199 543.336C330.199 542.949 330.522 542.626 330.909 542.626H374.961C375.348 542.626 375.67 542.949 375.67 543.336C375.67 543.724 375.348 544.047 374.961 544.047Z" fill="#2C3238"/>
<path d="M355.499 536.201C355.225 536.201 354.95 536.04 354.838 535.765L352.499 530.099C352.354 529.744 352.516 529.324 352.886 529.179C353.241 529.034 353.66 529.195 353.806 529.566L356.144 535.233C356.289 535.588 356.127 536.007 355.757 536.153C355.676 536.185 355.579 536.201 355.483 536.201H355.499Z" fill="#2C3238"/>
<path d="M347.823 537.686C347.533 537.686 347.243 537.492 347.146 537.202L345.453 532.085C345.324 531.713 345.534 531.31 345.904 531.181C346.275 531.051 346.678 531.261 346.807 531.633L348.501 536.75C348.63 537.121 348.42 537.525 348.049 537.654C347.968 537.686 347.904 537.686 347.823 537.686Z" fill="#2C3238"/>
<path d="M540.883 327.797C533.159 355.95 510.23 373.917 476.981 383.376L482.06 392.868C528.273 391.238 552.493 371.14 562.183 332.559L540.883 327.813V327.797Z" fill="#2C3238"/>
<path d="M482.06 393.563C481.802 393.563 481.561 393.417 481.432 393.191L476.352 383.699C476.256 383.506 476.239 383.28 476.32 383.086C476.401 382.892 476.578 382.731 476.772 382.682C511.536 372.787 532.869 354.271 540.173 327.603C540.27 327.232 540.641 327.022 541.012 327.103L562.313 331.849C562.506 331.897 562.667 332.01 562.764 332.171C562.861 332.333 562.893 332.527 562.845 332.72C552.815 372.658 527.145 391.981 482.06 393.579C482.06 393.579 482.044 393.579 482.028 393.579L482.06 393.563ZM478.029 383.796L482.48 392.11C526.306 390.447 551.38 371.673 561.329 333.059L541.399 328.62C533.853 355.223 512.536 373.788 478.045 383.796H478.029Z" fill="#F3F7F0"/>
<path d="M484.882 382.586C484.415 381.666 483.624 380.939 482.657 380.584C481.964 380.326 481.27 380.003 480.625 379.648L471.579 374.837C469.886 374.014 467.468 375.951 465.694 376.516C460.389 378.259 449.392 382.376 450.295 386.234C451.279 390.399 460.728 388.429 464.082 387.59C464.855 387.396 471.789 389.915 473.982 390.076C477.013 390.302 477.723 389.527 479.19 388.752C479.867 388.397 480.625 388.236 481.432 388.236C482.673 388.236 483.866 387.703 484.656 386.718H484.673C485.527 385.621 485.688 384.135 485.06 382.909L484.882 382.553V382.586Z" fill="#2C3238"/>
<path d="M474.966 390.851C474.643 390.851 474.305 390.851 473.918 390.802C472.708 390.705 470.338 390.011 468.048 389.333C466.5 388.865 464.565 388.284 464.178 388.316C460.679 389.204 454.229 390.431 451.198 388.575C450.343 388.058 449.811 387.332 449.602 386.428C448.634 382.327 457.696 378.421 465.468 375.87C465.952 375.709 466.5 375.434 467.097 375.144C468.629 374.369 470.386 373.497 471.886 374.224L480.948 379.034C481.706 379.438 482.318 379.712 482.883 379.922C484.012 380.326 484.947 381.165 485.511 382.263L485.688 382.618C486.446 384.087 486.253 385.879 485.221 387.186C484.302 388.332 482.931 388.978 481.432 388.994C480.69 388.994 480.061 389.14 479.513 389.43C479.287 389.543 479.077 389.672 478.884 389.785C477.916 390.35 476.981 390.867 474.966 390.867V390.851ZM464.178 386.896C464.743 386.896 465.791 387.186 468.451 387.977C470.564 388.607 472.966 389.317 474.014 389.398C476.352 389.575 477.11 389.14 478.158 388.526C478.368 388.397 478.594 388.268 478.836 388.155C479.577 387.767 480.448 387.558 481.399 387.558C482.464 387.558 483.447 387.089 484.076 386.315C484.785 385.427 484.898 384.248 484.399 383.264L484.221 382.908C483.818 382.117 483.173 381.536 482.383 381.246C481.738 381.02 481.077 380.713 480.254 380.277L471.209 375.467C470.354 375.047 468.951 375.757 467.693 376.387C467.048 376.71 466.452 377.016 465.871 377.194C456.132 380.39 450.408 383.796 450.94 386.072C451.069 386.605 451.375 387.009 451.891 387.332C453.762 388.478 458.228 388.3 463.856 386.896C463.936 386.88 464.033 386.863 464.13 386.863L464.178 386.896Z" fill="#F3F7F0"/>
<path d="M146.927 395.29H502.426C509.053 395.29 514.197 399.649 513.439 404.637L488.897 567.68H471.176L486.543 414.661C486.817 411.966 483.995 409.657 480.416 409.657H175.258C169.905 409.657 165.696 413.096 166.099 417.131L181.321 568.632H163.6L138.639 402.328C138.075 398.567 141.961 395.29 146.959 395.29H146.927Z" fill="#2C3238"/>
<path d="M181.305 569.342H163.584C163.229 569.342 162.939 569.084 162.874 568.745L137.914 402.441C137.672 400.779 138.188 399.1 139.365 397.712C141.058 395.758 143.88 394.58 146.927 394.58H502.426C506.392 394.58 510.085 396.097 512.278 398.648C513.81 400.44 514.471 402.587 514.148 404.734L489.607 567.777C489.558 568.132 489.252 568.374 488.897 568.374H471.176C470.983 568.374 470.789 568.293 470.644 568.148C470.515 568.003 470.451 567.793 470.467 567.599L485.834 414.581C485.946 413.499 485.414 412.66 484.963 412.159C483.947 411.029 482.254 410.368 480.416 410.368H175.242C172.404 410.368 169.76 411.417 168.179 413.16C167.131 414.323 166.648 415.662 166.793 417.051L182.014 568.551C182.03 568.745 181.966 568.955 181.837 569.1C181.708 569.246 181.514 569.326 181.305 569.326V569.342ZM164.197 567.922H180.531L165.39 417.196C165.212 415.42 165.841 413.645 167.147 412.208C169.002 410.158 172.033 408.947 175.258 408.947H480.432C482.657 408.947 484.753 409.786 486.027 411.207C486.946 412.224 487.382 413.467 487.253 414.726L471.966 566.969H488.301L512.762 404.524C513.02 402.78 512.488 401.069 511.214 399.584C509.295 397.34 506.005 396 502.442 396H146.927C144.283 396 141.864 396.985 140.445 398.632C139.51 399.713 139.123 400.956 139.316 402.215L164.197 567.906V567.922Z" fill="#F3F7F0"/>
<path d="M442.007 390.076L422.899 333.705C421.754 331.946 419.755 330.864 417.61 330.864H366.689C364.383 330.864 362.884 333.108 363.642 335.093C363.948 335.884 364.27 336.659 364.528 337.466L381.798 390.173C381.846 393.256 384.362 395.742 387.441 395.742H481.415C484.544 395.742 487.075 393.208 487.075 390.076H442.007Z" fill="#2C3238"/>
<path d="M481.432 396.452H387.457C384.055 396.452 381.233 393.708 381.104 390.318L363.867 337.693C363.69 337.144 363.464 336.579 363.255 336.03L362.997 335.352C362.561 334.206 362.722 332.898 363.432 331.849C364.174 330.767 365.367 330.154 366.705 330.154H417.627C420.029 330.154 422.222 331.332 423.512 333.318C423.544 333.366 423.577 333.415 423.593 333.479L442.539 389.366H487.107C487.494 389.366 487.817 389.689 487.817 390.076C487.817 393.595 484.963 396.452 481.448 396.452H481.432ZM382.459 389.882C382.507 389.963 382.523 390.076 382.523 390.173C382.572 392.853 384.781 395.032 387.457 395.032H481.432C483.915 395.032 485.979 393.192 486.317 390.786H442.007C441.701 390.786 441.426 390.593 441.33 390.302L422.254 334.028C421.222 332.495 419.497 331.591 417.61 331.591H366.689C365.834 331.591 365.06 331.978 364.593 332.672C364.141 333.318 364.045 334.141 364.319 334.851L364.577 335.513C364.802 336.078 365.028 336.659 365.222 337.257L382.459 389.882Z" fill="#F3F7F0"/>
<path d="M404.146 359.76C404.872 362.149 403.759 364.587 401.696 365.216C399.632 365.846 397.358 364.409 396.649 362.02C395.939 359.631 397.035 357.193 399.099 356.564C401.163 355.934 403.437 357.371 404.146 359.76Z" fill="#F3F7F0"/>
<path d="M135.592 390.996H238.853C238.853 394.063 236.37 396.549 233.307 396.549H141.138C138.075 396.549 135.592 394.063 135.592 390.996Z" fill="#2C3238"/>
<path d="M234.193 397.26H140.219C137.269 397.26 134.866 394.854 134.866 391.9V390.996C134.866 390.609 135.188 390.286 135.575 390.286H238.837C239.224 390.286 239.547 390.609 239.547 390.996V391.9C239.547 394.854 237.144 397.26 234.193 397.26ZM136.285 391.706V391.9C136.285 394.079 138.059 395.839 140.219 395.839H234.193C236.37 395.839 238.128 394.063 238.128 391.9V391.706H136.285Z" fill="#F3F7F0"/>
<path d="M238.853 391.093H179.773L198.542 335.771C199.671 334.044 201.622 332.995 203.734 332.995H253.688C255.945 332.995 257.413 335.19 256.671 337.144C256.381 337.918 256.058 338.677 255.8 339.468L238.87 391.109L238.853 391.093Z" fill="#2C3238"/>
<path d="M238.853 391.803H179.773C179.547 391.803 179.321 391.69 179.192 391.513C179.063 391.319 179.031 391.093 179.096 390.867L197.865 335.546C197.865 335.546 197.913 335.433 197.945 335.384C199.203 333.447 201.364 332.285 203.718 332.285H253.672C254.978 332.285 256.155 332.898 256.897 333.964C257.59 334.981 257.751 336.272 257.332 337.402L257.074 338.064C256.865 338.597 256.655 339.145 256.478 339.694L239.547 391.335C239.45 391.626 239.176 391.82 238.87 391.82L238.853 391.803ZM180.757 390.383H238.337L255.107 339.242C255.3 338.661 255.526 338.096 255.736 337.531L255.994 336.885C256.252 336.191 256.155 335.4 255.72 334.755C255.252 334.077 254.51 333.689 253.672 333.689H203.718C201.88 333.689 200.187 334.577 199.171 336.078L180.74 390.383H180.757Z" fill="#F3F7F0"/>
<path d="M216.924 361.293C216.214 363.634 217.295 366.023 219.327 366.637C221.358 367.25 223.567 365.846 224.277 363.505C224.986 361.164 223.906 358.775 221.874 358.162C219.843 357.548 217.633 358.953 216.924 361.293Z" fill="#F3F7F0"/>
<path d="M563.425 571.28H466.661C460.857 571.28 456.503 565.936 457.68 560.254L472.353 488.822C473.595 482.817 478.868 478.507 484.995 478.507H567.988L563.409 571.296L563.425 571.28Z" fill="#2C3238"/>
<path d="M563.425 571.99H466.661C463.678 571.99 460.889 570.666 459.002 568.341C457.116 566.033 456.374 563.014 456.987 560.092L471.66 488.66C472.95 482.348 478.561 477.78 484.995 477.78H567.988C568.182 477.78 568.375 477.861 568.504 478.006C568.633 478.151 568.714 478.329 568.698 478.539L564.118 571.328C564.102 571.699 563.78 572.006 563.409 572.006L563.425 571.99ZM485.011 479.201C479.255 479.201 474.224 483.301 473.063 488.951L458.39 560.383C457.874 562.885 458.502 565.468 460.115 567.437C461.727 569.423 464.114 570.553 466.678 570.553H562.764L567.263 479.184H485.011V479.201Z" fill="#F3F7F0"/>
<path d="M575.809 571.28H557.04C551.235 571.28 546.881 565.936 548.058 560.254L564.231 481.574C564.602 479.782 566.166 478.507 567.988 478.507H572.81C574.809 478.507 576.486 480.04 576.647 482.042L583.258 563.208C583.613 567.567 580.179 571.296 575.809 571.296V571.28Z" fill="#2C3238"/>
<path d="M575.809 571.99H557.04C554.057 571.99 551.267 570.666 549.381 568.341C547.494 566.033 546.752 563.014 547.365 560.092L563.538 481.412C563.973 479.298 565.844 477.764 568.004 477.764H572.826C575.18 477.764 577.179 479.604 577.357 481.945L583.968 563.111C584.145 565.387 583.371 567.647 581.823 569.326C580.275 571.005 578.082 571.957 575.809 571.957V571.99ZM567.988 479.201C566.505 479.201 565.215 480.25 564.925 481.703L548.752 560.383C548.236 562.885 548.865 565.468 550.477 567.438C552.09 569.423 554.476 570.553 557.04 570.553H575.809C577.728 570.553 579.485 569.778 580.775 568.374C582.065 566.969 582.694 565.145 582.549 563.24L575.938 482.074C575.809 480.46 574.438 479.184 572.81 479.184H567.988V479.201Z" fill="#F3F7F0"/>
<path d="M550.251 516.701H474.498C474.111 516.701 473.789 516.378 473.789 515.99C473.789 515.603 474.111 515.28 474.498 515.28H550.251C552.17 515.28 553.831 513.973 554.282 512.1L560.958 483.882C561.055 483.495 561.426 483.269 561.813 483.35C562.2 483.446 562.425 483.818 562.345 484.205L555.669 512.423C555.073 514.941 552.847 516.701 550.267 516.701H550.251Z" fill="#F3F7F0"/>
<path d="M521.001 515.99L518.873 524.562C518.534 526.015 517.244 527.032 515.745 527.032H500.733C499.104 527.032 497.911 525.466 498.346 523.9L500.539 515.99H520.969H521.001Z" fill="#2C3238"/>
<path d="M515.761 527.742H500.749C499.749 527.742 498.83 527.29 498.217 526.483C497.605 525.692 497.411 524.675 497.685 523.707L499.878 515.797C499.959 515.49 500.249 515.28 500.555 515.28H520.985C521.211 515.28 521.404 515.377 521.55 515.554C521.679 515.732 521.727 515.958 521.679 516.168L519.55 524.74C519.131 526.515 517.567 527.758 515.729 527.758L515.761 527.742ZM501.12 516.701L499.072 524.094C498.927 524.627 499.024 525.192 499.362 525.628C499.701 526.063 500.201 526.322 500.765 526.322H515.777C516.938 526.322 517.938 525.531 518.212 524.401L520.114 516.701H501.136H501.12Z" fill="#F3F7F0"/>
<path d="M543.334 564.806H462.856C462.469 564.806 462.147 564.483 462.147 564.096C462.147 563.709 462.469 563.386 462.856 563.386H543.334C543.721 563.386 544.043 563.709 544.043 564.096C544.043 564.483 543.721 564.806 543.334 564.806Z" fill="#F3F7F0"/>
<path d="M504.119 475.246H497.83C496.137 475.246 494.75 476.618 494.75 478.329H507.183C507.183 476.634 505.812 475.246 504.103 475.246H504.119Z" fill="#F3F7F0"/>
<path d="M507.199 479.039H494.767C494.38 479.039 494.057 478.716 494.057 478.329C494.057 476.247 495.75 474.535 497.846 474.535H504.135C506.215 474.535 507.924 476.23 507.924 478.329C507.924 478.716 507.602 479.039 507.215 479.039H507.199ZM495.589 477.619H506.376C506.07 476.666 505.183 475.956 504.119 475.956H497.83C496.782 475.956 495.879 476.65 495.573 477.619H495.589Z" fill="#F3F7F0"/>
<path d="M554.476 475.246H548.187C546.494 475.246 545.108 476.618 545.108 478.329H557.54C557.54 476.634 556.169 475.246 554.46 475.246H554.476Z" fill="#F3F7F0"/>
<path d="M557.556 479.039H545.124C544.737 479.039 544.414 478.716 544.414 478.329C544.414 476.247 546.107 474.535 548.203 474.535H554.492C556.572 474.535 558.281 476.23 558.281 478.329C558.281 478.716 557.959 479.039 557.572 479.039H557.556ZM545.946 477.619H556.733C556.427 476.666 555.54 475.956 554.476 475.956H548.187C547.139 475.956 546.236 476.65 545.93 477.619H545.946Z" fill="#F3F7F0"/>
<path d="M552.831 475.085L553.847 469.063C554.573 464.802 551.686 461.331 547.43 461.331H509.763C505.506 461.331 501.458 464.785 500.749 469.063L499.733 475.085H502.619L503.409 470.403C503.974 467.078 507.118 464.382 510.424 464.382H545.753C549.074 464.382 551.316 467.078 550.751 470.403L549.961 475.085H552.847H552.831Z" fill="#2C3238"/>
<path d="M552.831 475.795H549.945C549.735 475.795 549.542 475.698 549.397 475.536C549.252 475.375 549.203 475.165 549.235 474.955L550.026 470.274C550.267 468.853 549.945 467.546 549.106 466.561C548.3 465.609 547.091 465.076 545.72 465.076H510.391C507.408 465.076 504.57 467.513 504.07 470.5L503.28 475.181C503.216 475.52 502.926 475.779 502.587 475.779H499.701C499.491 475.779 499.298 475.682 499.152 475.52C499.007 475.359 498.959 475.149 498.991 474.939L500.007 468.918C500.781 464.333 505.135 460.588 509.73 460.588H547.397C549.655 460.588 551.638 461.476 552.992 463.058C554.363 464.688 554.911 466.852 554.524 469.144L553.508 475.165C553.444 475.504 553.154 475.762 552.815 475.762L552.831 475.795ZM550.783 474.374H552.218L553.138 468.95C553.46 467.078 553.025 465.318 551.928 464.027C550.848 462.751 549.252 462.057 547.429 462.057H509.762C505.828 462.057 502.103 465.253 501.442 469.192L500.571 474.39H502.023L502.716 470.29C503.329 466.642 506.796 463.688 510.44 463.688H545.769C547.575 463.688 549.155 464.398 550.235 465.673C551.332 466.981 551.767 468.708 551.461 470.532L550.816 474.39L550.783 474.374Z" fill="#F3F7F0"/>
<path d="M545.559 458.828H512.471C511.133 458.828 509.875 459.91 509.65 461.25L509.166 464.139C508.94 465.479 509.843 466.561 511.181 466.561H544.269C545.607 466.561 546.865 465.479 547.091 464.139L547.575 461.25C547.8 459.91 546.897 458.828 545.559 458.828Z" fill="#F3F7F0"/>
<path d="M544.253 467.271H511.165C510.311 467.271 509.569 466.932 509.053 466.319C508.521 465.705 508.327 464.882 508.472 464.026L508.956 461.137C509.246 459.442 510.794 458.134 512.471 458.134H545.559C546.414 458.134 547.155 458.473 547.671 459.087C548.203 459.7 548.397 460.523 548.252 461.379L547.768 464.269C547.478 465.964 545.93 467.271 544.253 467.271ZM512.455 459.539C511.472 459.539 510.504 460.378 510.327 461.363L509.843 464.252C509.762 464.688 509.859 465.108 510.117 465.399C510.359 465.689 510.73 465.851 511.149 465.851H544.237C545.22 465.851 546.188 465.011 546.365 464.026L546.849 461.137C546.93 460.701 546.833 460.281 546.575 459.991C546.333 459.7 545.962 459.539 545.543 459.539H512.455Z" fill="#F3F7F0"/>
<path d="M556.862 564.806C556.621 564.806 556.379 564.677 556.25 564.451C556.056 564.112 556.169 563.676 556.508 563.483L569.117 556.283V484.027C569.117 483.64 569.44 483.317 569.827 483.317C570.214 483.317 570.536 483.64 570.536 484.027V556.703C570.536 556.961 570.407 557.187 570.181 557.316L557.217 564.709C557.104 564.774 556.991 564.806 556.862 564.806Z" fill="#F3F7F0"/>
</g>
<defs>
<clipPath id="clip0_18_2310">
<rect width="584" height="584" fill="white"/>
</clipPath>
</defs>
</svg>
