<svg width="501" height="500" viewBox="0 0 501 500" fill="none" xmlns="http://www.w3.org/2000/svg">
<g clip-path="url(#clip0_280_2586)">
<path d="M301.052 199.897C300.891 199.897 300.741 199.836 300.62 199.715C300.39 199.471 300.39 199.087 300.62 198.854L302.587 196.909C302.828 196.676 303.21 196.676 303.441 196.909C303.671 197.152 303.671 197.537 303.441 197.77L301.473 199.715C301.353 199.836 301.202 199.887 301.052 199.887V199.897Z" fill="#F3F7F0"/>
<path d="M291.648 209.235C291.488 209.235 291.337 209.174 291.217 209.052C290.986 208.809 290.986 208.424 291.217 208.192L293.184 206.247C293.425 206.014 293.806 206.014 294.037 206.247C294.268 206.49 294.268 206.875 294.037 207.108L292.07 209.052C291.949 209.174 291.799 209.225 291.648 209.225V209.235Z" fill="#F3F7F0"/>
<path d="M293.685 199.806C293.525 199.806 293.374 199.745 293.254 199.623L291.327 197.628C291.096 197.385 291.096 197 291.337 196.767C291.578 196.534 291.959 196.534 292.19 196.777L294.117 198.773C294.348 199.016 294.348 199.401 294.107 199.633C293.986 199.745 293.836 199.806 293.685 199.806Z" fill="#F3F7F0"/>
<path d="M302.919 209.377C302.758 209.377 302.607 209.316 302.487 209.194L300.56 207.199C300.329 206.956 300.329 206.571 300.57 206.338C300.811 206.105 301.192 206.105 301.423 206.348L303.35 208.344C303.581 208.587 303.581 208.972 303.34 209.204C303.22 209.316 303.069 209.377 302.919 209.377Z" fill="#F3F7F0"/>
<path d="M355.127 447.182C354.795 447.182 354.524 446.909 354.524 446.575C354.524 446.24 354.795 445.967 355.127 445.967L357.876 445.947C358.208 445.947 358.479 446.22 358.479 446.554C358.479 446.889 358.208 447.162 357.876 447.162L355.127 447.182Z" fill="#F3F7F0"/>
<path d="M341.939 447.263C341.608 447.263 341.337 446.99 341.337 446.656C341.337 446.322 341.608 446.048 341.939 446.048L344.689 446.028C345.02 446.028 345.291 446.301 345.291 446.635C345.291 446.97 345.02 447.243 344.689 447.243L341.939 447.263Z" fill="#F3F7F0"/>
<path d="M349.898 441.936C349.567 441.936 349.296 441.663 349.296 441.328V438.543C349.296 438.209 349.557 437.936 349.898 437.936C350.229 437.936 350.5 438.209 350.5 438.543V441.328C350.5 441.663 350.239 441.936 349.898 441.936Z" fill="#F3F7F0"/>
<path d="M349.918 455.295C349.587 455.295 349.316 455.022 349.316 454.687V451.902C349.316 451.568 349.577 451.294 349.918 451.294C350.249 451.294 350.52 451.568 350.52 451.902V454.687C350.52 455.022 350.259 455.295 349.918 455.295Z" fill="#F3F7F0"/>
<path d="M392.973 194.316C392.973 194.316 399.155 193.466 401.092 179.428C403.029 165.391 403.41 153.065 416.166 149.236C428.922 145.408 444.659 151.576 444.278 165.178C443.886 178.79 445.893 190.417 453.962 196.453C464.4 204.252 468.485 199.836 487.814 218.836C512.142 242.748 505.076 315.508 434.723 295.515L392.973 194.306V194.316Z" fill="#F3F7F0"/>
<path d="M410.345 182.294C410.345 182.294 412.443 184.624 416.829 183.803L410.345 182.294Z" fill="#2C3238"/>
<path d="M415.002 184.593C411.64 184.593 409.974 182.791 409.894 182.71C409.673 182.456 409.693 182.072 409.934 181.849C410.185 181.626 410.556 181.636 410.787 181.889C410.867 181.98 412.754 183.955 416.718 183.216C417.039 183.155 417.361 183.378 417.421 183.702C417.481 184.026 417.26 184.35 416.939 184.411C416.247 184.543 415.604 184.593 415.012 184.593H415.002Z" fill="#F3F7F0"/>
<path d="M411.941 458.515C411.941 458.515 408.288 469.818 404.635 473.272C400.982 476.726 386.449 483.501 386.239 490.885C386.008 499.453 390.936 501.033 404.143 497.944C413.677 495.706 421.556 489.821 424.366 486.459C426.855 483.491 425.46 480.969 424.858 477.485C424.115 473.221 423.975 468.866 423.975 464.532V457.442L411.951 458.515H411.941Z" fill="#2C3238"/>
<path d="M394.207 500C391.437 500 389.47 499.433 388.095 498.298C386.319 496.83 385.536 494.47 385.636 490.854C385.797 485.193 393.615 480.058 399.326 476.31C401.433 474.923 403.25 473.738 404.223 472.816C407.726 469.515 411.339 458.435 411.369 458.313C411.439 458.08 411.65 457.918 411.891 457.898L423.914 456.824C424.085 456.804 424.245 456.865 424.376 456.986C424.496 457.098 424.567 457.26 424.567 457.432V464.521C424.567 468.38 424.667 472.928 425.45 477.364C425.57 478.052 425.721 478.701 425.871 479.329C426.453 481.85 427.015 484.231 424.828 486.833C422.058 490.135 414.039 496.232 404.274 498.511C400.088 499.493 396.787 499.99 394.207 499.99V500ZM412.393 459.083C411.71 461.129 408.429 470.517 405.046 473.708C404.003 474.7 402.136 475.915 399.988 477.333C394.498 480.939 386.991 485.871 386.851 490.895C386.761 494.095 387.403 496.151 388.868 497.357C391.176 499.261 395.843 499.25 404.013 497.336C413.487 495.118 421.245 489.234 423.914 486.054C425.701 483.917 425.279 482.114 424.707 479.612C424.557 478.964 424.406 478.296 424.276 477.576C423.483 473.049 423.382 468.431 423.382 464.521V458.1L412.403 459.073L412.393 459.083Z" fill="#F3F7F0"/>
<path d="M386.761 495.037C386.449 495.037 386.178 494.794 386.158 494.47C386.138 494.136 386.379 493.842 386.72 493.822L391.417 493.477C403.29 492.606 414.38 487.451 422.67 478.954C423.784 477.82 424.396 477.09 424.406 477.08C424.627 476.827 425.008 476.797 425.259 477.019C425.51 477.242 425.54 477.627 425.319 477.88C425.289 477.911 424.667 478.64 423.523 479.815C415.032 488.525 403.661 493.802 391.498 494.693L386.801 495.037C386.801 495.037 386.771 495.037 386.761 495.037Z" fill="#F3F7F0"/>
<path d="M415.102 476.857C415.102 476.857 415.032 476.857 415.002 476.857C414.731 476.817 408.418 475.713 405.879 472.371C405.679 472.107 405.729 471.722 405.99 471.52C406.251 471.317 406.632 471.368 406.833 471.631C409.081 474.599 415.133 475.642 415.193 475.652C415.524 475.703 415.745 476.017 415.685 476.351C415.634 476.645 415.383 476.857 415.092 476.857H415.102Z" fill="#F3F7F0"/>
<path d="M409.512 480.686C409.512 480.686 409.432 480.686 409.392 480.676C409.141 480.625 403.109 479.308 401.162 475.996C400.992 475.703 401.092 475.338 401.373 475.166C401.664 474.994 402.025 475.095 402.196 475.379C403.862 478.225 409.573 479.47 409.633 479.491C409.954 479.561 410.165 479.886 410.094 480.21C410.034 480.493 409.783 480.696 409.502 480.696L409.512 480.686Z" fill="#F3F7F0"/>
<path d="M403.511 484.301C403.44 484.301 403.37 484.291 403.3 484.261C403.089 484.18 398.141 482.296 396.576 478.994C396.435 478.69 396.556 478.326 396.857 478.184C397.158 478.042 397.519 478.164 397.66 478.468C399.015 481.324 403.671 483.106 403.721 483.116C404.033 483.238 404.193 483.582 404.073 483.896C403.982 484.139 403.752 484.291 403.511 484.291V484.301Z" fill="#F3F7F0"/>
<path d="M440.123 430.714C440.564 430.714 446.927 430.076 450.6 429.712C452.025 429.57 453.3 430.613 453.451 432.051L454.173 438.766C454.424 441.136 454.896 443.486 455.568 445.775C456.773 449.937 458.549 457.108 457.575 460.379C456.532 463.884 453.28 468.755 451.132 471.53C450.139 472.806 448.473 473.323 446.937 472.806C444.207 471.885 439.852 470.102 437.292 467.52C433.358 463.549 437.604 455.943 437.604 455.943L440.123 430.714Z" fill="#2C3238"/>
<path d="M448.142 473.606C447.68 473.606 447.208 473.535 446.747 473.373C443.655 472.33 439.43 470.538 436.861 467.945C432.877 463.924 436.459 456.784 437.011 455.751L439.51 430.653C439.541 430.339 439.802 430.107 440.113 430.107C440.444 430.107 444.338 429.732 450.53 429.104C452.266 428.932 453.852 430.218 454.043 431.98L454.765 438.695C455.016 440.984 455.468 443.313 456.14 445.602C457.596 450.616 459.121 457.28 458.148 460.551C457.114 464.025 453.983 468.836 451.604 471.905C450.761 472.999 449.466 473.606 448.142 473.606ZM440.675 431.281L438.206 455.994C438.206 456.075 438.176 456.156 438.136 456.227C438.095 456.298 434.161 463.488 437.724 467.084C440.253 469.636 444.709 471.398 447.138 472.219C448.413 472.654 449.828 472.219 450.661 471.145C453.15 467.925 456.08 463.296 457.003 460.197C457.937 457.057 456.14 449.917 454.996 445.937C454.314 443.577 453.842 441.187 453.581 438.817L452.859 432.102C452.738 430.998 451.745 430.188 450.661 430.299C445.291 430.846 441.949 431.17 440.675 431.271V431.281Z" fill="#F3F7F0"/>
<path d="M445.231 472.502C445.111 472.502 444.99 472.462 444.88 472.391C444.609 472.199 444.549 471.814 444.739 471.54C452.236 460.906 451.735 458.161 450.641 452.165C450.4 450.849 450.129 449.36 449.908 447.608C449.326 443.03 447.57 430.451 447.55 430.319C447.499 429.985 447.73 429.681 448.061 429.63C448.393 429.58 448.694 429.813 448.744 430.147C448.764 430.279 450.52 442.868 451.102 447.446C451.323 449.167 451.594 450.636 451.825 451.932C452.949 458.09 453.511 461.179 445.723 472.239C445.603 472.401 445.422 472.492 445.231 472.492V472.502Z" fill="#F3F7F0"/>
<path d="M446.285 453.259C446.285 453.259 446.225 453.259 446.194 453.259L439.029 452.196C438.698 452.145 438.467 451.841 438.517 451.507C438.567 451.173 438.868 450.94 439.199 450.99L446.365 452.054C446.696 452.104 446.927 452.408 446.877 452.742C446.837 453.046 446.576 453.259 446.285 453.259Z" fill="#F3F7F0"/>
<path d="M445.542 458.465C445.542 458.465 445.482 458.465 445.452 458.465L438.286 457.402C437.955 457.351 437.724 457.047 437.774 456.713C437.824 456.379 438.125 456.146 438.457 456.196L445.622 457.26C445.954 457.31 446.184 457.614 446.134 457.949C446.094 458.252 445.833 458.465 445.542 458.465Z" fill="#F3F7F0"/>
<path d="M437.754 460.805C433.579 463.711 424.737 467.459 409.884 462.962L416.698 310.94L444.679 305.542C444.679 305.542 448.332 343.34 444.368 381.37C440.745 416.089 440.594 445.683 440.655 455.082C440.665 457.351 439.601 459.508 437.754 460.805Z" fill="#F3F7F0"/>
<path d="M443.424 301.106L376.453 304.914L378.732 378.818C379.003 387.447 381.642 395.823 386.359 403.024C393.936 414.56 406.03 431.545 415.594 438.179C430.689 448.651 443.414 301.116 443.414 301.116L443.424 301.106Z" fill="#F3F7F0"/>
<path d="M410.145 435.667C410.145 435.667 410.125 435.667 410.115 435.667C409.783 435.647 409.523 435.363 409.543 435.029L411.751 387.133C411.771 386.799 412.042 386.536 412.383 386.556C412.714 386.576 412.975 386.86 412.955 387.194L410.747 435.089C410.727 435.414 410.466 435.667 410.145 435.667Z" fill="#2C3238"/>
<path d="M333.519 180.046C333.96 179.955 334.272 179.57 334.262 179.114C334.211 176.754 333.73 169.695 329.795 166.454C325.038 162.524 321.004 153.52 318.123 154.391C315.243 155.263 321.576 163.112 320.863 163.983C320.141 164.854 318.625 161.866 317.04 158.959C315.454 156.052 316.869 155.404 314.561 155.597C311.409 155.86 309.312 156.356 313.487 165.806C317.461 174.799 325.38 174.516 326.423 180.491C326.514 180.998 327.005 181.332 327.507 181.231L333.519 180.056V180.046Z" fill="#2C3238"/>
<path d="M327.327 181.848C327.015 181.848 326.724 181.757 326.463 181.575C326.122 181.342 325.901 180.988 325.831 180.582C325.38 177.98 323.473 176.663 321.054 175.002C318.394 173.169 315.082 170.89 312.935 166.039C310.647 160.863 310.054 158.007 310.948 156.468C311.68 155.212 313.246 155.08 314.51 154.969C316.056 154.837 316.498 155.111 316.738 156.336C316.839 156.863 316.979 157.572 317.561 158.645L317.923 159.314C318.515 160.407 319.308 161.876 319.92 162.757C319.659 162.231 319.308 161.603 319.027 161.076C317.441 158.2 316.357 156.052 316.899 154.705C317.08 154.25 317.441 153.926 317.943 153.774C320.01 153.146 322.068 155.951 324.667 159.496C326.333 161.765 328.22 164.337 330.167 165.947C334.211 169.29 334.793 176.238 334.854 179.073C334.874 179.823 334.352 180.471 333.619 180.613L327.608 181.788C327.507 181.808 327.407 181.818 327.317 181.818L327.327 181.848ZM315.193 156.164C315.062 156.164 314.882 156.164 314.621 156.194C313.376 156.295 312.393 156.427 312.001 157.096C311.359 158.2 312.021 160.965 314.049 165.542C316.056 170.08 319.077 172.156 321.746 173.989C324.296 175.741 326.494 177.25 327.025 180.37C327.046 180.481 327.116 180.542 327.156 180.562C327.226 180.613 327.317 180.633 327.397 180.613L333.408 179.438C333.559 179.408 333.669 179.276 333.669 179.114C333.629 177.038 333.188 170.019 329.424 166.91C327.357 165.208 325.43 162.565 323.724 160.235C321.686 157.45 319.579 154.574 318.314 154.948C318.123 155.009 318.073 155.09 318.043 155.171C317.672 156.083 319.137 158.736 320.111 160.488C321.375 162.777 321.867 163.729 321.355 164.357C321.134 164.631 320.833 164.763 320.502 164.722C319.508 164.621 318.585 163 316.899 159.901L316.538 159.233C315.865 157.997 315.695 157.136 315.584 156.569C315.554 156.427 315.524 156.245 315.494 156.164C315.454 156.154 315.374 156.144 315.213 156.144L315.193 156.164Z" fill="#F3F7F0"/>
<path d="M475.098 319.954C475.52 319.883 475.931 320.116 476.102 320.511C476.875 322.334 479.063 326.851 482.455 328.543C484.864 329.738 487.031 330.508 489.972 333.313C492.913 336.119 497.951 343.401 496.847 345.203C495.542 347.33 491.357 345.163 488.135 343.178C484.914 341.193 481.722 336.443 478.591 335.967C475.46 335.491 482.084 343.097 481.14 344.292C480.197 345.487 476.815 343.715 474.657 340.109C473.804 338.691 468.695 326.173 467.15 322.375C466.919 321.818 467.27 321.2 467.852 321.099L475.098 319.944V319.954Z" fill="#2C3238"/>
<path d="M495.08 346.702C493.043 346.702 490.263 345.203 487.824 343.705C486.49 342.884 485.165 341.608 483.89 340.383C482.074 338.641 480.197 336.838 478.511 336.574C478.441 336.574 478.39 336.564 478.35 336.564C478.38 337.172 479.414 338.934 480.046 340.018C481.471 342.459 482.254 343.877 481.612 344.677C481.371 344.981 480.909 345.325 480.097 345.274C478.26 345.153 475.751 343.127 474.135 340.433C473.282 339.025 468.575 327.5 466.588 322.618C466.407 322.183 466.437 321.696 466.668 321.281C466.899 320.866 467.29 320.582 467.752 320.511L474.998 319.357C475.701 319.235 476.373 319.62 476.654 320.268C477.417 322.061 479.535 326.416 482.716 327.996C483.097 328.188 483.479 328.371 483.85 328.543C485.817 329.475 487.844 330.447 490.384 332.868C492.692 335.075 498.844 343.087 497.359 345.517C496.847 346.358 496.044 346.692 495.07 346.692L495.08 346.702ZM478.34 335.339C478.451 335.339 478.561 335.339 478.681 335.369C480.749 335.683 482.766 337.628 484.713 339.501C485.948 340.686 487.222 341.912 488.447 342.671C492.903 345.416 495.552 346.166 496.335 344.89C497.058 343.715 493.003 337.061 489.551 333.769C487.152 331.48 485.295 330.589 483.338 329.657C482.957 329.475 482.575 329.292 482.184 329.1C478.641 327.338 476.363 322.679 475.54 320.765C475.48 320.623 475.329 320.552 475.189 320.572L467.943 321.727C467.812 321.747 467.742 321.838 467.712 321.889C467.682 321.939 467.642 322.041 467.692 322.172C470.863 329.981 474.496 338.722 475.149 339.815C476.694 342.378 478.902 343.988 480.157 344.069C480.367 344.089 480.518 344.049 480.618 343.968C480.638 343.461 479.615 341.709 478.993 340.646C477.537 338.154 476.734 336.706 477.317 335.825C477.467 335.602 477.758 335.349 478.32 335.349L478.34 335.339Z" fill="#F3F7F0"/>
<path d="M408.97 193.324C402.999 191.966 398.583 190.65 392.471 190.984C385.486 191.369 381.903 190.67 376.112 193.587C365.263 199.056 360.958 214.015 354.595 211.392C348.232 208.779 335.225 174.475 335.225 174.475L323.824 179.306C323.824 179.306 338.306 242.769 349.868 246.577C361.429 250.385 375.48 232.246 375.48 232.246C375.48 232.246 375.992 278.257 368.445 308.712C368.445 308.712 380.347 308.651 388.095 311.882C429.374 329.14 446.797 308.712 446.797 308.712C446.536 296.883 443.966 288.78 435.516 275.583C430.899 268.372 429.575 256.725 438.708 246.202C438.708 246.202 460.958 315.549 465.103 323.722C465.384 324.279 479.083 321.21 479.113 320.886C481.331 296.022 464.43 249.625 461.971 238.373C461.229 234.96 460.235 231.607 458.9 228.387C454.735 218.33 445.412 201.851 428.019 197.648L408.97 193.303V193.324Z" fill="#2C3238"/>
<path d="M465.434 324.411C464.761 324.411 464.681 324.238 464.561 324.016C460.667 316.349 441.357 256.452 438.467 247.448C430.127 257.728 431.873 268.798 436.018 275.269C444.358 288.294 447.118 296.427 447.389 308.712C447.389 308.864 447.339 309.006 447.238 309.127C447.058 309.34 442.662 314.404 433.087 317.372C424.316 320.096 409.332 321.453 387.844 312.47C380.307 309.32 368.565 309.35 368.424 309.34C368.244 309.34 368.063 309.259 367.953 309.107C367.832 308.955 367.792 308.763 367.842 308.581C374.476 281.812 374.858 242.505 374.868 233.947C371.726 237.644 362.322 247.731 353.23 247.731C352.035 247.731 350.841 247.559 349.677 247.174C337.935 243.305 323.834 182.071 323.242 179.469C323.172 179.175 323.322 178.881 323.593 178.77L334.994 173.939C335.145 173.878 335.315 173.878 335.466 173.939C335.616 173.999 335.737 174.131 335.787 174.283C339.38 183.753 349.797 208.789 354.815 210.855C357.786 212.071 360.436 208.678 363.808 204.394C367.009 200.312 370.632 195.694 375.841 193.07C380.478 190.731 383.76 190.65 388.296 190.549C389.581 190.518 390.915 190.488 392.431 190.407C397.81 190.113 401.965 191.085 406.773 192.22C407.525 192.392 408.288 192.574 409.091 192.757L428.139 197.101C445.944 201.396 455.388 218.421 459.442 228.194C460.727 231.283 461.74 234.585 462.543 238.282C463.115 240.905 464.49 245.483 466.227 251.286C471.897 270.195 481.401 301.845 479.695 320.977C479.655 321.463 479.645 321.565 476.142 322.405C474.235 322.861 471.937 323.367 470.01 323.742C467.421 324.249 466.116 324.431 465.424 324.431L465.434 324.411ZM438.707 245.604C438.707 245.604 438.788 245.604 438.828 245.615C439.039 245.655 439.209 245.817 439.28 246.02C439.5 246.708 461.118 314.05 465.504 323.195C467.24 323.165 476.704 321.119 478.531 320.491C480.066 301.562 470.693 270.317 465.082 251.6C463.336 245.777 461.951 241.179 461.369 238.505C460.576 234.879 459.583 231.648 458.328 228.62C454.364 219.059 445.141 202.409 427.868 198.246L408.82 193.901C408.017 193.719 407.254 193.536 406.502 193.364C401.584 192.21 397.7 191.288 392.491 191.582C390.956 191.663 389.551 191.703 388.316 191.723C383.77 191.835 380.779 191.896 376.373 194.124C371.405 196.625 367.872 201.132 364.751 205.113C361.219 209.62 358.157 213.519 354.354 211.949C348.212 209.427 336.68 179.975 334.874 175.265L324.506 179.651C325.901 185.606 339.46 242.495 350.028 245.979C361.048 249.605 374.838 232.023 374.978 231.851C375.139 231.648 375.41 231.567 375.65 231.648C375.891 231.729 376.062 231.962 376.062 232.215C376.062 232.671 376.483 277.893 369.197 308.084C371.987 308.125 381.592 308.489 388.306 311.295C409.412 320.116 424.065 318.82 432.646 316.187C440.966 313.624 445.331 309.35 446.174 308.449C445.873 296.559 443.143 288.608 434.994 275.887C430.508 268.889 428.671 256.796 438.236 245.777C438.356 245.645 438.517 245.574 438.687 245.574L438.707 245.604Z" fill="#F3F7F0"/>
<path d="M401.614 308.054C401.393 308.054 401.172 307.932 401.072 307.709L384.723 274.074C384.573 273.77 384.703 273.406 384.994 273.264C385.295 273.112 385.657 273.244 385.797 273.537L402.146 307.173C402.296 307.477 402.166 307.841 401.875 307.983C401.785 308.023 401.694 308.044 401.614 308.044V308.054Z" fill="#F3F7F0"/>
<path d="M387.302 296.954C387.062 296.954 386.841 296.812 386.74 296.579L382.264 285.63C382.134 285.316 382.284 284.962 382.596 284.84C382.907 284.709 383.258 284.861 383.378 285.175L387.854 296.123C387.985 296.437 387.834 296.792 387.523 296.913C387.443 296.943 387.373 296.964 387.292 296.964L387.302 296.954Z" fill="#F3F7F0"/>
<path d="M329.625 173.726H315.765C314.792 173.726 313.989 172.956 313.938 171.974L312.624 146.451C312.574 145.398 313.407 144.507 314.45 144.507H330.809C331.853 144.507 332.686 145.388 332.636 146.441L331.452 171.964C331.401 172.946 330.598 173.726 329.625 173.726Z" fill="#F3F7F0"/>
<path d="M329.404 170.222C329.213 170.222 329.033 170.13 328.912 169.968C328.722 169.695 328.782 169.32 329.043 169.118C338.085 162.494 340.785 153.571 338.668 150.34C337.283 148.224 334.021 148.507 329.705 151.11C329.424 151.282 329.053 151.191 328.882 150.897C328.712 150.614 328.802 150.239 329.093 150.067C336.118 145.833 338.838 148.376 339.681 149.672C342.431 153.865 338.768 163.497 329.755 170.1C329.645 170.181 329.525 170.212 329.404 170.212V170.222Z" fill="#F3F7F0"/>
<path d="M314.039 168.844C307.806 159.587 308.94 155.232 312.493 152.488C312.704 152.325 312.995 152.325 313.216 152.488C320.071 157.319 321.777 162.757 316.829 168.986C316.096 169.908 314.691 169.827 314.039 168.854V168.844Z" fill="#2C3238"/>
<path d="M315.494 170.232C315.494 170.232 315.434 170.232 315.394 170.232C314.641 170.201 313.958 169.827 313.537 169.188C307.937 160.873 307.505 155.576 312.122 152.001C312.533 151.677 313.125 151.667 313.557 151.981C317.511 154.766 319.749 157.764 320.191 160.873C320.582 163.598 319.609 166.454 317.3 169.361C316.859 169.918 316.196 170.232 315.494 170.232ZM312.875 152.974C310.175 155.04 307.937 158.686 314.541 168.5C314.751 168.804 315.082 168.996 315.444 169.006C315.815 169.026 316.136 168.864 316.357 168.591C318.445 165.958 319.338 163.426 318.997 161.035C318.605 158.27 316.538 155.556 312.865 152.974H312.875Z" fill="#F3F7F0"/>
<path d="M410.647 182.598C406.381 179.63 411.239 161.896 416.066 159.273C420.904 156.66 431.04 159.506 431.04 159.506C427.266 172.004 434.051 175.093 434.994 175.093C435.938 175.093 438.948 175.275 437.062 179.316C435.175 183.358 430.93 181.16 430.93 181.16C430.077 181.919 428.481 182.78 426.514 183.509C424.175 190.528 426.745 196.058 428.952 199.167C430.077 200.747 429.294 202.986 427.417 203.431C424.416 204.15 419.84 204.576 414.069 203.046C409.663 201.872 406.712 200.261 404.765 198.762C403.17 197.537 403.421 194.984 405.247 194.134C410.165 191.855 413.467 184.532 410.647 182.578V182.598Z" fill="#2C3238"/>
<path d="M421.726 204.707C419.468 204.707 416.839 204.424 413.918 203.654C410.054 202.621 406.853 201.153 404.404 199.269C403.481 198.56 402.999 197.425 403.129 196.24C403.26 195.076 403.952 194.093 404.996 193.607C408.338 192.058 410.827 188.098 411.068 185.363C411.128 184.614 411.048 183.621 410.305 183.094C408.9 182.112 408.248 179.813 408.439 176.44C408.79 170.029 412.152 160.711 415.785 158.736C420.773 156.032 430.779 158.807 431.211 158.929C431.371 158.969 431.502 159.081 431.582 159.223C431.662 159.364 431.682 159.537 431.632 159.688C429.575 166.484 430.759 170.252 432.114 172.217C433.268 173.888 434.703 174.475 435.004 174.485C436.761 174.485 437.553 175.154 437.915 175.721C438.487 176.633 438.386 177.929 437.614 179.58C437.011 180.876 436.118 181.737 434.964 182.132C433.368 182.679 431.742 182.163 431.03 181.879C430.117 182.588 428.691 183.337 427.005 183.986C424.948 190.488 427.186 195.633 429.454 198.823C430.107 199.745 430.267 200.92 429.876 201.983C429.494 203.016 428.631 203.786 427.577 204.039C426.082 204.404 424.115 204.707 421.747 204.707H421.726ZM410.998 182.092C411.951 182.75 412.403 183.955 412.272 185.464C412.011 188.523 409.342 192.929 405.508 194.701C404.856 195.005 404.414 195.623 404.334 196.362C404.254 197.111 404.555 197.831 405.137 198.286C407.455 200.069 410.516 201.477 414.229 202.459C419.98 203.988 424.506 203.512 427.286 202.844C427.959 202.682 428.491 202.206 428.742 201.548C428.993 200.869 428.892 200.109 428.471 199.522C426.012 196.058 423.583 190.427 425.952 183.317C426.012 183.145 426.142 183.003 426.313 182.942C428.16 182.254 429.745 181.413 430.538 180.704C430.719 180.542 430.99 180.502 431.211 180.623C431.231 180.623 432.997 181.524 434.583 180.978C435.406 180.694 436.058 180.046 436.52 179.063C437.092 177.828 437.222 176.906 436.891 176.379C436.61 175.944 435.958 175.711 434.994 175.711C434.422 175.711 432.686 175.053 431.261 173.118C429.705 171.001 428.3 167.001 430.287 159.952C428.079 159.405 420.271 157.703 416.357 159.82C413.457 161.39 410.004 169.979 409.643 176.521C409.482 179.408 409.964 181.393 410.988 182.102L410.998 182.092Z" fill="#F3F7F0"/>
<path d="M292.772 63.2191C291.979 52.9088 292.772 38.2232 301.534 25.9582C325.791 -7.95043 396.576 -2.98771 410.325 24.6922C417.311 38.7397 409.753 58.9451 398.473 70.0758C381.793 86.5237 353.651 86.3718 336.48 76.4868C320.131 67.0678 315.042 49.597 304.665 51.2276C298.894 52.129 295.05 58.378 292.772 63.2293V63.2191Z" fill="#2C3238"/>
<path d="M363.607 83.9006C353.732 83.9006 343.916 81.4597 336.188 77.0034C328.641 72.6585 323.573 66.7437 319.107 61.5278C314.059 55.6333 310.074 50.9744 304.755 51.8049C300.48 52.4733 296.636 56.3929 293.314 63.4622C293.194 63.7154 292.933 63.8471 292.662 63.7965C292.391 63.7458 292.19 63.523 292.17 63.2496C291.006 48.1183 293.997 35.4482 301.042 25.5835C307.274 16.8734 317.06 10.0977 329.354 5.99588C340.323 2.33966 353.25 0.881226 365.755 1.89403C387.563 3.6563 404.846 12.2854 410.867 24.3985C418.023 38.8005 410.406 59.1477 398.894 70.4911C391.096 78.1884 380.016 82.8878 367.702 83.7487C366.337 83.8398 364.962 83.8905 363.597 83.8905L363.607 83.9006ZM306.03 50.4984C311.259 50.4984 315.173 55.0762 320.02 60.7378C324.426 65.8727 329.414 71.7065 336.781 75.9501C353.441 85.5413 381.612 85.8553 398.051 69.6403C409.001 58.8337 416.608 38.6891 409.783 24.9657C403.952 13.2273 387.042 4.86154 365.655 3.12965C345.131 1.46865 316.156 6.54279 302.015 26.3127C295.482 35.4482 292.531 47.0852 293.224 60.9404C296.506 54.7521 300.309 51.2782 304.565 50.6199C305.056 50.5389 305.548 50.5085 306.02 50.5085L306.03 50.4984Z" fill="#F3F7F0"/>
<path d="M386.279 35.2456H326.674C326.343 35.2456 326.072 34.9722 326.072 34.638C326.072 34.3037 326.343 34.0303 326.674 34.0303H386.279C386.61 34.0303 386.881 34.3037 386.881 34.638C386.881 34.9722 386.61 35.2456 386.279 35.2456Z" fill="#F3F7F0"/>
<path d="M370.422 45.8091H340.434C340.103 45.8091 339.832 45.5357 339.832 45.2014C339.832 44.8672 340.103 44.5938 340.434 44.5938H370.422C370.753 44.5938 371.024 44.8672 371.024 45.2014C371.024 45.5357 370.753 45.8091 370.422 45.8091Z" fill="#F3F7F0"/>
<path d="M449.055 129.001C450.57 126.854 467.652 101.726 456.923 73.0737C449.386 52.9595 430.227 36.6635 407.987 35.7824C404.233 35.6304 380.568 34.6987 367.862 53.7798C359.312 66.6323 358.368 84.5792 366.688 97.6443C376.574 113.171 395.442 115.378 398.242 115.662C417.842 117.657 428.651 104.967 439.34 111.094C445.883 114.842 448.141 123.207 449.065 129.001H449.055Z" fill="#2C3238"/>
<path d="M449.055 129.618C449.055 129.618 448.964 129.618 448.914 129.598C448.673 129.537 448.493 129.345 448.453 129.102C447.047 120.291 443.886 114.406 439.029 111.631C433.75 108.603 428.42 110.375 421.686 112.624C415.173 114.791 407.786 117.252 398.171 116.28C393.063 115.763 375.67 112.907 366.176 97.9886C357.987 85.1159 358.469 66.8045 367.361 53.4557C378.992 35.9849 399.657 34.8506 408.007 35.1848C418.786 35.6102 429.273 39.6107 438.346 46.7409C446.907 53.476 453.701 62.7533 457.495 72.861C468.254 101.584 451.493 126.6 449.546 129.355C449.436 129.517 449.245 129.608 449.055 129.608V129.618ZM432.927 108.815C435.205 108.815 437.423 109.312 439.631 110.578C444.528 113.383 447.81 119.055 449.396 127.431C453.19 121.546 465.956 98.9204 456.361 73.3067C448.402 52.0682 428.952 37.2408 407.967 36.4103C399.817 36.0963 379.665 37.18 368.364 54.1444C359.733 67.1083 359.251 84.8627 367.2 97.3404C376.644 112.178 394.769 114.72 398.302 115.085C407.666 116.037 414.912 113.616 421.315 111.479C425.47 110.092 429.273 108.826 432.927 108.826V108.815Z" fill="#F3F7F0"/>
<path d="M437.985 72.1824H381.953C381.622 72.1824 381.351 71.9089 381.351 71.5747C381.351 71.2405 381.622 70.967 381.953 70.967H437.985C438.316 70.967 438.587 71.2405 438.587 71.5747C438.587 71.9089 438.316 72.1824 437.985 72.1824Z" fill="#F3F7F0"/>
<path d="M419.88 79.5557H399.828C399.496 79.5557 399.225 79.2822 399.225 78.948C399.225 78.6138 399.496 78.3403 399.828 78.3403H419.88C420.211 78.3403 420.482 78.6138 420.482 78.948C420.482 79.2822 420.211 79.5557 419.88 79.5557Z" fill="#F3F7F0"/>
<path d="M37.714 475.288H250.952C260.024 475.288 267.381 467.752 267.381 458.465L246.586 16.9645C246.586 7.67709 239.229 0.141846 230.157 0.141846H16.9291C7.85648 0.151974 0.5 7.67709 0.5 16.9645L21.2848 458.455C21.2848 467.742 28.6413 475.278 37.714 475.278V475.288Z" fill="#F3F7F0"/>
<path d="M52.1661 475.379H265.404C274.476 475.379 281.833 467.884 281.833 458.637L261.048 17.9367C261.048 8.6898 253.692 1.19507 244.619 1.19507H31.3813C22.3086 1.19507 14.9521 8.6898 14.9521 17.9367L35.737 458.637C35.737 467.884 43.0935 475.379 52.1661 475.379Z" fill="#2C3238"/>
<path d="M244.127 475.409H200.199C199.868 475.409 199.597 475.136 199.597 474.802C199.597 474.467 199.868 474.194 200.199 474.194H244.127C244.458 474.194 244.729 474.467 244.729 474.802C244.729 475.136 244.458 475.409 244.127 475.409Z" fill="#F3F7F0"/>
<path d="M177.196 475.409H52.166C42.7722 475.409 35.1347 467.621 35.1347 458.05L27.2162 308.874C27.1961 308.54 27.457 308.256 27.7882 308.236C28.1194 308.226 28.4004 308.479 28.4205 308.813L36.339 458.019C36.339 466.952 43.4346 474.194 52.166 474.194H177.186C177.517 474.194 177.788 474.467 177.788 474.802C177.788 475.136 177.517 475.409 177.186 475.409H177.196Z" fill="#F3F7F0"/>
<path d="M21.7967 168.247C21.4755 168.247 21.2146 167.993 21.1945 167.669L14.3499 17.3797C14.3499 7.77832 21.9873 0 31.3812 0H244.619C254.013 0 261.65 7.78845 261.65 17.3594L263.266 57.4461C263.276 57.7803 263.025 58.0639 262.684 58.0842C262.323 58.1044 262.072 57.8411 262.052 57.4968L260.436 17.3797C260.436 8.45689 253.34 1.21536 244.609 1.21536H31.3812C22.6598 1.21536 15.5542 8.45689 15.5542 17.3493L22.3888 167.609C22.4089 167.943 22.1479 168.226 21.8167 168.247C21.8167 168.247 21.7967 168.247 21.7866 168.247H21.7967Z" fill="#F3F7F0"/>
<path d="M62.0616 462.78H256.793C265.072 462.78 271.797 455.933 271.797 447.486L251.263 30.141C251.263 21.6942 244.549 14.8477 236.259 14.8477H41.5377C33.2579 14.8477 26.5337 21.6942 26.5337 30.141L47.0576 447.486C47.0576 455.933 53.7717 462.78 62.0616 462.78Z" fill="#2C3238"/>
<path d="M256.793 463.387H62.0617C53.4607 463.387 46.4555 456.257 46.4555 447.486L25.9316 30.1714C25.9316 21.3701 32.9268 14.24 41.5378 14.24H236.269C244.87 14.24 251.875 21.3701 251.875 30.141L272.399 447.456C272.399 456.257 265.404 463.387 256.793 463.387ZM41.5378 15.4554C33.5992 15.4554 27.136 22.0386 27.136 30.141L47.6599 447.456C47.6599 455.578 54.1231 462.172 62.0617 462.172H256.793C264.731 462.172 271.195 455.589 271.195 447.486L250.661 30.1714C250.661 22.0487 244.197 15.4554 236.259 15.4554H41.5378Z" fill="#F3F7F0"/>
<path d="M40.7549 148.193C40.4337 148.193 40.1728 147.94 40.1527 147.616L38.296 108.036C38.2759 107.701 38.5369 107.418 38.8681 107.398C39.1993 107.367 39.4803 107.641 39.5003 107.975L41.357 147.555C41.3771 147.889 41.1162 148.173 40.785 148.193C40.785 148.193 40.7649 148.193 40.7549 148.193Z" fill="#F3F7F0"/>
<path d="M246.365 111.712C246.044 111.712 245.783 111.459 245.763 111.135L242.3 37.4939C242.3 29.6549 236.359 23.2945 229.063 23.2945H49.4161C42.1198 23.2945 36.1785 29.6549 36.1785 37.4636L38.8079 93.3803C38.828 93.7146 38.5671 93.9982 38.2359 94.0184C37.9047 94.0285 37.6237 93.7754 37.6036 93.4411L34.9741 37.4939C34.9741 28.9864 41.4474 22.0791 49.4161 22.0791H229.063C237.022 22.0791 243.505 28.9763 243.505 37.4636L246.957 111.074C246.977 111.408 246.716 111.692 246.385 111.712C246.385 111.712 246.365 111.712 246.355 111.712H246.365Z" fill="#F3F7F0"/>
<path d="M261.741 377.694C261.419 377.694 261.158 377.441 261.138 377.117L258.228 315.042C258.208 314.708 258.469 314.424 258.8 314.404C259.111 314.384 259.412 314.647 259.432 314.981L262.343 377.056C262.363 377.39 262.102 377.674 261.771 377.694C261.771 377.694 261.751 377.694 261.741 377.694Z" fill="#2C3238"/>
<path d="M230.548 456.085H114.751C114.42 456.085 114.149 455.812 114.149 455.477C114.149 455.143 114.42 454.87 114.751 454.87H230.548C230.879 454.87 231.15 455.143 231.15 455.477C231.15 455.812 230.879 456.085 230.548 456.085Z" fill="#F3F7F0"/>
<path d="M100.269 456.085H68.3543C60.3956 456.085 53.9123 449.188 53.9123 440.7L51.3832 386.84C51.3631 386.505 51.624 386.222 51.9552 386.202C52.2864 386.181 52.5674 386.445 52.5875 386.779L55.1166 440.66C55.1166 448.499 61.058 454.859 68.3543 454.859H100.269C100.6 454.859 100.871 455.133 100.871 455.467C100.871 455.801 100.6 456.075 100.269 456.075V456.085Z" fill="#F3F7F0"/>
<path d="M174.085 1.20532L169.98 8.1025C167.481 12.2955 163.306 14.8073 158.83 14.8073H117.351C112.975 14.8073 108.87 12.3968 106.351 8.3557L101.905 1.20532H174.085Z" fill="#F3F7F0"/>
<path d="M272.108 263.815C271.787 263.815 271.526 263.561 271.506 263.237L268.495 202.976C268.475 202.641 268.736 202.358 269.067 202.337C269.408 202.327 269.679 202.581 269.699 202.915L272.71 263.176C272.73 263.511 272.469 263.794 272.138 263.815C272.128 263.815 272.118 263.815 272.108 263.815Z" fill="#F3F7F0"/>
<path d="M143.936 321.635C203.217 321.635 251.273 273.139 251.273 213.316C251.273 153.493 203.217 104.997 143.936 104.997C84.656 104.997 36.5999 153.493 36.5999 213.316C36.5999 273.139 84.656 321.635 143.936 321.635Z" fill="#2C3238"/>
<path d="M143.936 322.243C84.4121 322.243 35.9978 273.375 35.9978 213.316C35.9978 153.257 84.4221 104.389 143.936 104.389C203.451 104.389 251.875 153.257 251.875 213.316C251.875 273.375 203.451 322.243 143.936 322.243ZM143.936 105.595C85.0845 105.595 37.2021 153.915 37.2021 213.306C37.2021 272.697 85.0845 321.018 143.936 321.018C202.788 321.018 250.671 272.697 250.671 213.306C250.671 153.915 202.788 105.595 143.936 105.595Z" fill="#F3F7F0"/>
<path d="M203.601 288.669L103.892 294.34C103.892 294.34 103.842 303.172 103.621 313.239C117.812 320.228 133.649 321.635 150.5 321.635C170.803 321.635 189.621 311.7 205.809 301.815L203.611 288.669H203.601Z" fill="#F3F7F0"/>
<path d="M288.236 94.0081C287.995 91.9623 289.149 89.6936 289.561 87.6376C290.444 83.1712 291.207 78.6439 291.076 74.0965C290.966 70.0655 290.785 66.4397 289.149 62.7936C288.025 60.3021 286.239 57.1725 282.816 57.4966C280.337 57.7397 278.029 59.3197 276.654 61.3858C274.767 64.2115 274.326 67.7867 274.426 71.1999C274.517 74.2686 275.621 78.0059 274.978 81.024C274.296 84.2245 272.459 83.9409 270.863 81.4595C266.859 75.2105 260.195 74.0256 262.543 76.2335C264.892 78.4414 269.117 87.2831 270.683 89.7139C271.255 90.595 273.001 91.6686 274.998 92.6814C275.018 98.4645 274.296 107.347 270.231 117.029C265.384 128.565 257.776 136.505 251.494 141.59C256.642 150.674 267.843 165.522 287.052 167.993C289.771 162.534 291.909 156.782 293.394 150.857C296.034 140.344 296.646 129.335 295.211 118.589C294.478 113.16 293.234 107.803 291.478 102.617C290.594 99.9837 289.34 97.4821 288.437 94.869C288.336 94.5854 288.276 94.3019 288.246 94.0081H288.236Z" fill="#2C3238"/>
<path d="M287.042 168.611C287.042 168.611 286.991 168.611 286.961 168.611C267.361 166.089 255.99 150.796 250.962 141.904C250.811 141.64 250.881 141.316 251.112 141.124C259.502 134.328 265.745 126.144 269.669 116.796C272.78 109.393 274.366 101.402 274.386 93.0562C272.088 91.8611 270.703 90.8787 270.171 90.0381C269.659 89.238 268.876 87.7998 267.983 86.1287C266.156 82.7459 263.657 78.1073 262.132 76.6691C261.921 76.4767 261.289 75.869 261.49 75.2208C261.54 75.0587 261.72 74.6739 262.323 74.603C263.878 74.3802 268.374 76.4463 271.375 81.1153C272.218 82.4218 272.961 82.8168 273.332 82.7358C273.764 82.6547 274.165 81.966 274.396 80.8722C274.787 79.0492 274.486 76.8716 274.205 74.765C274.045 73.5699 273.874 72.3343 273.834 71.2C273.714 66.8956 274.476 63.5634 276.172 61.0314C277.718 58.7121 280.247 57.122 282.776 56.8789C286.52 56.5143 288.447 59.7047 289.711 62.5304C291.347 66.1562 291.568 69.7516 291.688 74.0662C291.809 78.4212 291.166 82.6851 290.163 87.7491C290.022 88.4784 289.781 89.238 289.551 89.9672C289.129 91.3142 288.697 92.7017 288.838 93.9272C288.868 94.1906 288.918 94.4336 288.999 94.6666C289.43 95.9224 289.952 97.1783 290.464 98.3937C291.006 99.7002 291.578 101.047 292.04 102.425C293.796 107.641 295.06 113.049 295.793 118.518C297.238 129.284 296.606 140.526 293.966 151.019C292.461 156.984 290.313 162.798 287.573 168.277C287.473 168.48 287.262 168.611 287.031 168.611H287.042ZM252.266 141.742C257.274 150.421 268.194 164.763 286.7 167.335C289.31 162.048 291.357 156.458 292.802 150.715C295.402 140.364 296.024 129.284 294.599 118.67C293.876 113.282 292.632 107.944 290.895 102.81C290.444 101.473 289.892 100.146 289.35 98.8697C288.838 97.6341 288.296 96.3681 287.854 95.0717C287.744 94.7577 287.674 94.4235 287.634 94.0791C287.463 92.6005 287.935 91.0813 288.386 89.6127C288.617 88.8835 288.828 88.1846 288.958 87.5162C289.942 82.5332 290.584 78.3503 290.454 74.1067C290.333 69.7922 290.123 66.4702 288.577 63.0368C287.473 60.5858 285.827 57.8107 282.856 58.0943C280.679 58.307 278.491 59.6945 277.136 61.71C275.59 64.0293 274.888 67.1184 275.008 71.1696C275.038 72.233 275.199 73.3876 275.359 74.603C275.661 76.8109 275.982 79.0998 275.54 81.1355C275.088 83.2219 274.195 83.8093 273.513 83.9309C272.479 84.1233 271.345 83.3536 270.331 81.7736C267.832 77.8743 264.43 76.1829 263.015 75.8588C264.681 77.4996 267.08 81.9559 269.017 85.5514C269.91 87.2022 270.673 88.6201 271.164 89.3797C271.405 89.7646 272.268 90.6255 275.249 92.1346C275.45 92.2359 275.58 92.4485 275.58 92.6815C275.6 101.331 273.985 109.605 270.763 117.272C266.819 126.651 260.596 134.885 252.246 141.742H252.266Z" fill="#F3F7F0"/>
<path d="M251.483 141.6C247.439 144.871 243.946 146.968 242.1 148.082C211.53 166.403 192.913 145.388 142.832 146.745C124.516 147.241 111.961 144.608 79.3036 158.919C79.3036 158.919 19.7893 178.172 19.7893 239.669C19.7893 256.917 31.0498 271.522 44.3176 276.191C56.1803 261.222 59.984 252.674 69.2474 249.007C69.1771 248.309 62.7339 243.852 62.8142 243.123C64.42 227.496 69.6488 223.039 75.6504 220.153C78.4003 218.836 81.6319 220.436 81.9431 223.485C83.3381 236.905 81.3911 247.569 84.3618 279.462C86.088 297.976 87.9246 300.701 89.691 302.524C101.343 314.485 121.204 298.473 167.611 297.764C189.641 297.43 204.173 300.741 208.298 293.054C211.269 287.514 206.321 280.951 202.698 271.32C198.222 259.419 195.131 241.037 202.898 213.792C233.8 217.246 264.129 203.249 281.532 177.463C283.589 174.415 285.426 171.255 287.041 168.014C267.832 165.542 256.632 150.695 251.483 141.61V141.6Z" fill="#2C3238"/>
<path d="M101.243 307.568C96.3952 307.568 92.5514 306.332 89.2595 302.949C87.2523 300.883 85.4558 297.703 83.7597 279.523C81.9934 260.594 81.9632 249.25 81.9432 240.135C81.9231 233.907 81.9131 228.984 81.351 223.556C81.2306 222.371 80.5783 221.368 79.5646 220.791C78.4707 220.173 77.1058 220.132 75.9215 220.71C70.512 223.302 65.1025 227.161 63.4365 243.052C63.7677 243.528 65.4638 244.885 66.5979 245.797C69.1471 247.843 69.7995 248.42 69.8496 248.947C69.8797 249.22 69.7192 249.473 69.4683 249.575C62.8745 252.188 59.1411 257.292 52.9588 265.749C50.6405 268.909 48.0211 272.494 44.7894 276.576C44.6288 276.778 44.3579 276.849 44.117 276.768C29.665 271.684 19.1873 256.087 19.1873 239.669C19.1873 207.665 35.4859 187.257 49.1652 175.762C63.9584 163.324 78.9725 158.382 79.123 158.331C106.763 146.218 120.291 146.218 134.613 146.208C137.252 146.208 139.982 146.208 142.822 146.127C163.386 145.57 178.37 148.71 191.598 151.485C210.376 155.414 223.934 158.26 241.799 147.555C243.645 146.451 247.088 144.385 251.112 141.124C251.253 141.012 251.433 140.972 251.604 141.002C251.775 141.033 251.925 141.144 252.015 141.296C256.933 149.986 268.043 164.945 287.122 167.396C287.313 167.416 287.483 167.538 287.573 167.71C287.664 167.882 287.664 168.095 287.573 168.267C285.928 171.569 284.061 174.769 282.023 177.787C264.531 203.715 234.412 217.722 203.34 214.43C197.268 236.003 197.238 255.054 203.26 271.086C204.223 273.639 205.257 275.938 206.261 278.156C208.991 284.212 211.158 289.003 208.83 293.328C205.628 299.293 196.867 299.009 183.599 298.584C178.862 298.432 173.503 298.26 167.622 298.351C146.977 298.665 131.301 302.088 119.85 304.58C112.282 306.231 106.241 307.547 101.243 307.547V307.568ZM77.6678 219.079C78.5309 219.079 79.384 219.292 80.1467 219.727C81.5116 220.497 82.3848 221.844 82.5453 223.424C83.1174 228.924 83.1274 233.866 83.1475 240.125C83.1676 249.21 83.1977 260.523 84.9641 279.402C86.62 297.156 88.3462 300.265 90.1226 302.088C96.345 308.479 105.097 306.565 119.599 303.405C131.1 300.893 146.847 297.46 167.612 297.146C173.513 297.055 178.892 297.227 183.639 297.379C196.455 297.784 204.926 298.057 207.776 292.75C209.814 288.952 207.766 284.415 205.167 278.662C204.203 276.525 203.109 274.115 202.136 271.522C195.974 255.125 196.034 235.638 202.327 213.61C202.407 213.326 202.678 213.144 202.969 213.174C233.78 216.618 263.697 202.803 281.03 177.109C282.877 174.364 284.593 171.467 286.118 168.49C267.471 165.704 256.441 151.343 251.313 142.511C247.459 145.57 244.197 147.525 242.401 148.598C224.135 159.547 210.376 156.67 191.337 152.68C178.18 149.925 163.256 146.795 142.842 147.352C139.982 147.433 137.242 147.433 134.603 147.433C120.412 147.433 107.003 147.444 79.5345 159.476C79.3338 159.547 64.5104 164.428 49.8878 176.724C36.4293 188.047 20.3816 208.151 20.3816 239.669C20.3816 255.429 30.3374 270.408 44.107 275.472C47.1981 271.552 49.7372 268.089 51.9753 265.03C58.0572 256.715 61.8207 251.58 68.2539 248.764C67.6818 248.228 66.6481 247.407 65.8352 246.749C62.6838 244.227 62.1419 243.67 62.2021 243.062C63.9183 226.432 69.8998 222.239 75.3795 219.606C76.1021 219.261 76.885 219.079 77.6577 219.079H77.6678Z" fill="#F3F7F0"/>
<path d="M123.713 245.199C123.603 245.199 123.493 245.169 123.402 245.108C111.208 237.542 105.558 225.601 108.649 219.98C109.593 218.279 112.784 214.815 122.118 219.504C122.419 219.656 122.539 220.021 122.389 220.325C122.238 220.629 121.877 220.75 121.576 220.598C115.654 217.621 111.329 217.61 109.703 220.578C107.264 225.014 111.63 236.378 124.035 244.075C124.316 244.247 124.406 244.622 124.235 244.916C124.125 245.098 123.924 245.209 123.724 245.209L123.713 245.199Z" fill="#F3F7F0"/>
<path d="M123.844 249.919L141.728 248.531C142.983 248.43 143.946 247.367 143.916 246.091L143.113 213.033C143.083 211.665 141.919 210.602 140.564 210.713L119.458 212.354C118.113 212.455 117.13 213.681 117.29 215.028L121.325 247.843C121.485 249.109 122.589 250.03 123.854 249.929L123.844 249.919Z" fill="#F3F7F0"/>
<path d="M137.463 230.635C137.353 230.392 137.222 230.159 137.052 229.936C133.84 225.673 126.845 230.088 123.192 231.263C120.321 232.185 117.451 233.117 114.581 234.038L103.641 247.093C97.7099 248.673 79.6951 254.801 66.5076 246.131C62.2724 243.346 56.602 244.521 53.5911 248.623C49.0949 254.75 44.8697 262.721 42.1399 275.199C63.3161 281.61 93.565 273.76 107.164 261.536C113.356 261.779 118.214 255.722 121.927 251.529C124.025 249.17 125.982 246.354 128.641 244.622C131.08 243.032 134.031 242.05 135.867 239.659C137.042 238.12 137.573 236.175 137.804 234.251C137.945 233.036 137.955 231.719 137.463 230.625V230.635Z" fill="#2C3238"/>
<path d="M59.1211 278.136C53.1697 278.136 47.3287 277.406 41.9593 275.786C41.6582 275.695 41.4776 275.381 41.5478 275.067C43.8963 264.321 47.5695 255.803 53.0994 248.258C56.3411 243.842 62.3728 242.688 66.8289 245.615C78.7618 253.464 94.9601 248.896 101.875 246.941C102.397 246.789 102.879 246.658 103.29 246.546L114.109 233.643C114.179 233.552 114.28 233.491 114.39 233.461L123.001 230.686C123.724 230.453 124.617 230.078 125.56 229.673C129.414 228.043 134.693 225.794 137.533 229.562C137.714 229.805 137.875 230.078 138.015 230.372C138.477 231.405 138.607 232.661 138.407 234.322C138.126 236.722 137.443 238.596 136.349 240.034C135.004 241.796 133.107 242.819 131.281 243.802C130.508 244.217 129.705 244.652 128.983 245.128C127.046 246.394 125.45 248.309 123.904 250.152C123.403 250.76 122.891 251.357 122.389 251.935L121.616 252.806C117.953 256.978 113.407 262.144 107.535 262.144C107.485 262.144 107.435 262.144 107.395 262.144C97.3086 271.087 77.6578 278.115 59.1412 278.126L59.1211 278.136ZM42.8425 274.773C64.5707 281.063 93.8562 272.677 106.753 261.08C106.873 260.979 107.024 260.908 107.174 260.928C112.654 261.131 117.11 256.077 120.693 252.005L121.466 251.124C121.967 250.557 122.459 249.97 122.961 249.372C124.557 247.458 126.213 245.483 128.3 244.116C129.073 243.609 129.896 243.164 130.689 242.738C132.485 241.766 134.181 240.844 135.376 239.295C136.339 238.039 136.931 236.368 137.192 234.19C137.363 232.772 137.262 231.689 136.901 230.889C136.811 230.676 136.69 230.483 136.56 230.311C134.292 227.293 129.705 229.248 126.022 230.807C125.058 231.213 124.145 231.608 123.362 231.851L114.912 234.575L104.083 247.488C104.003 247.579 103.892 247.65 103.772 247.681C103.31 247.802 102.778 247.954 102.186 248.116C95.1107 250.111 78.541 254.78 66.1564 246.638C62.2323 244.055 56.9132 245.088 54.0529 248.987C48.7136 256.249 45.1408 264.463 42.8325 274.773H42.8425Z" fill="#F3F7F0"/>
<path d="M134.051 118.265C130.408 120.118 127.668 120.382 125.691 120.27C118.545 119.855 113.968 114.041 113.045 112.877C108.308 106.871 106.03 97.0061 110.044 91.2129C112.935 87.0402 116.578 88.61 119.9 83.9511C123.683 78.6542 119.809 74.3396 123.292 69.701C127.306 64.3635 136.148 64.7687 137.744 64.8497C143.204 65.1029 143.856 67.8375 149.015 67.6957C154.284 67.5539 154.976 64.8801 159.813 64.8497C163.657 64.8294 169.247 66.4803 171.756 70.9569C174.908 76.5779 171.686 83.9916 167.953 87.9011C163.467 92.6005 160.305 90.0786 154.023 93.8968C143.133 100.521 145.733 112.33 134.061 118.265H134.051Z" fill="#F3F7F0"/>
<path d="M154.324 143.271L151.373 124.767C152.025 124.696 157.455 123.744 158.067 123.43C163.095 120.908 161.7 108.167 161.7 108.167L164.49 104.795L156.15 85.9666C147.298 93.4106 144.137 86.0982 135.375 89.7646C126.614 93.4309 131.371 103.275 131.371 103.275C131.371 103.275 124.215 100.095 125.741 107.083C126.895 112.36 130.709 112.694 133.218 112.482L128.551 144.213C128.551 144.213 119.398 146.836 113.998 148.355C113.186 148.578 113.206 149.743 114.019 149.945C122.419 152.062 143.465 158.088 167.22 149.236C168.214 148.862 168.163 147.423 167.14 147.12L154.314 143.261L154.324 143.271Z" fill="#2C3238"/>
<path d="M140.865 154.513C129.464 154.513 120.201 152.143 115.012 150.826L113.878 150.543C113.246 150.381 112.814 149.834 112.804 149.176C112.804 148.517 113.216 147.95 113.838 147.778C118.595 146.441 126.243 144.243 128.009 143.737L132.515 113.13C128.511 113.231 126.042 111.246 125.159 107.215C124.677 105.028 124.958 103.488 125.992 102.637C127.196 101.635 129.073 101.908 130.327 102.263C129.715 100.5 128.922 97.1986 130.066 94.1602C130.899 91.932 132.616 90.271 135.155 89.2076C139.089 87.5567 142.019 88.053 144.599 88.4885C148.001 89.0658 150.952 89.5621 155.769 85.5007C155.909 85.3792 156.11 85.3387 156.291 85.3792C156.471 85.4197 156.632 85.5514 156.702 85.7236L165.042 104.552C165.133 104.764 165.102 105.007 164.952 105.19L162.322 108.36C162.503 110.274 163.326 121.465 158.338 123.967C157.686 124.291 153.651 125.01 152.066 125.273L154.856 142.795L167.32 146.542C168.043 146.755 168.515 147.393 168.545 148.143C168.565 148.892 168.133 149.55 167.431 149.814C157.967 153.338 148.884 154.513 140.855 154.513H140.865ZM133.228 111.864C133.398 111.864 133.549 111.935 133.669 112.056C133.8 112.188 133.85 112.381 133.83 112.563L129.163 144.294C129.133 144.527 128.962 144.729 128.732 144.79C128.732 144.79 119.579 147.413 114.179 148.933C114.049 148.973 114.019 149.064 114.019 149.145C114.019 149.226 114.049 149.317 114.179 149.348L115.313 149.641C124.035 151.87 144.448 157.086 167.019 148.669C167.33 148.558 167.341 148.264 167.341 148.183C167.341 148.092 167.3 147.798 166.979 147.707L154.153 143.848C153.932 143.777 153.762 143.595 153.732 143.362L150.781 124.858C150.751 124.696 150.801 124.524 150.891 124.392C150.992 124.261 151.142 124.17 151.303 124.159C152.086 124.068 157.244 123.136 157.806 122.883C161.62 120.969 161.479 111.661 161.108 108.238C161.088 108.076 161.138 107.904 161.249 107.782L163.798 104.703L155.939 86.949C151.042 90.8179 147.82 90.271 144.418 89.6937C141.879 89.2684 139.249 88.8227 135.636 90.3318C133.408 91.2636 131.923 92.6916 131.21 94.5957C129.765 98.4342 131.913 102.972 131.933 103.012C132.043 103.245 132.003 103.518 131.823 103.701C131.652 103.883 131.381 103.944 131.15 103.832C130.297 103.458 127.858 102.678 126.764 103.579C125.962 104.248 126.092 105.787 126.353 106.952C127.156 110.638 129.334 112.198 133.188 111.874C133.208 111.874 133.218 111.874 133.238 111.874L133.228 111.864Z" fill="#F3F7F0"/>
<path d="M149.386 125.506C141.939 125.506 138.457 119.683 138.416 119.612C138.246 119.318 138.346 118.954 138.627 118.781C138.918 118.609 139.28 118.711 139.45 118.994C139.601 119.247 143.224 125.263 151.293 124.149C151.624 124.109 151.925 124.342 151.975 124.666C152.015 125 151.785 125.304 151.463 125.355C150.741 125.456 150.048 125.496 149.386 125.496V125.506Z" fill="#F3F7F0"/>
<path d="M120.211 367.931C113.065 367.931 107.254 362.067 107.254 354.856C107.254 347.644 113.065 341.78 120.211 341.78C127.357 341.78 133.168 347.644 133.168 354.856C133.168 362.067 127.357 367.931 120.211 367.931ZM120.211 342.996C113.728 342.996 108.459 348.313 108.459 354.856C108.459 361.398 113.728 366.715 120.211 366.715C126.694 366.715 131.963 361.398 131.963 354.856C131.963 348.313 126.694 342.996 120.211 342.996Z" fill="#F3F7F0"/>
<path d="M155.066 367.931C147.921 367.931 142.11 362.067 142.11 354.856C142.11 347.644 147.921 341.78 155.066 341.78C162.212 341.78 168.023 347.644 168.023 354.856C168.023 362.067 162.212 367.931 155.066 367.931ZM155.066 342.996C148.583 342.996 143.314 348.313 143.314 354.856C143.314 361.398 148.583 366.715 155.066 366.715C161.55 366.715 166.819 361.398 166.819 354.856C166.819 348.313 161.55 342.996 155.066 342.996Z" fill="#F3F7F0"/>
<path d="M190.554 366.644C183.409 366.644 177.598 360.78 177.598 353.569C177.598 346.358 183.409 340.494 190.554 340.494C197.7 340.494 203.511 346.358 203.511 353.569C203.511 360.78 197.7 366.644 190.554 366.644ZM190.554 341.709C184.071 341.709 178.802 347.026 178.802 353.569C178.802 360.112 184.071 365.429 190.554 365.429C197.038 365.429 202.307 360.112 202.307 353.569C202.307 347.026 197.038 341.709 190.554 341.709Z" fill="#F3F7F0"/>
<path d="M277.206 460.744C277.206 460.744 291.006 456.389 313.617 412.129C332.696 374.767 315.685 338.651 312.252 314.495C311.901 312.024 308.559 311.67 307.736 314.019C302.015 330.244 292.812 359.757 294.298 377.927C296.445 404.108 277.206 460.744 277.206 460.744Z" fill="#2C3238"/>
<path d="M277.206 461.351C277.045 461.351 276.885 461.291 276.775 461.169C276.614 461.007 276.564 460.764 276.634 460.551C276.825 459.984 295.803 403.743 293.695 377.978C292.2 359.656 301.493 329.91 307.164 313.817C307.626 312.5 308.85 311.71 310.215 311.852C311.59 311.994 312.644 313.017 312.844 314.414C313.617 319.863 315.113 326.011 316.688 332.513C322.178 355.149 329.003 383.315 314.149 412.403C291.688 456.389 277.959 461.139 277.387 461.321C277.327 461.341 277.266 461.351 277.206 461.351ZM309.914 313.047C309.302 313.047 308.609 313.351 308.298 314.222C302.658 330.234 293.414 359.788 294.89 377.876C296.837 401.606 281.14 450.707 278.23 459.559C282.043 457.361 294.669 447.871 313.075 411.846C327.728 383.163 320.954 355.24 315.514 332.797C313.928 326.264 312.433 320.086 311.65 314.576C311.51 313.553 310.717 313.118 310.094 313.047C310.034 313.047 309.974 313.047 309.914 313.047Z" fill="#F3F7F0"/>
<path d="M292.16 436.538L297.078 397.312C299.215 380.287 296.455 362.988 289.129 347.533C278.461 325.008 277.628 298.939 286.821 275.756L294.719 255.854C295.713 253.342 292.541 251.296 290.735 253.292L279.645 265.597C254.494 293.52 245.994 333.06 257.405 369.136L277.838 433.763L292.16 436.538Z" fill="#2C3238"/>
<path d="M292.16 437.146C292.16 437.146 292.08 437.146 292.05 437.135L277.728 434.36C277.507 434.32 277.337 434.158 277.266 433.945L256.833 369.318C245.392 333.111 253.962 293.216 279.203 265.182L290.293 252.876C291.457 251.59 293.033 251.681 294.077 252.35C295.141 253.018 295.923 254.436 295.271 256.077L287.373 275.978C278.26 298.959 279.093 324.947 289.661 347.27C297.048 362.877 299.818 380.206 297.66 397.393L292.742 436.619C292.722 436.781 292.632 436.933 292.501 437.034C292.401 437.115 292.27 437.146 292.15 437.146H292.16ZM278.3 433.226L291.638 435.819L296.475 397.241C298.603 380.287 295.873 363.191 288.577 347.796C277.858 325.17 277.015 298.827 286.259 275.523L294.157 255.621C294.579 254.568 294.027 253.758 293.435 253.383C292.852 253.018 291.919 252.876 291.176 253.697L280.086 266.002C255.127 293.713 246.656 333.151 257.977 368.944L278.3 433.226Z" fill="#F3F7F0"/>
<path d="M285.827 437.824L268.776 393.869C263.928 381.36 253.712 371.81 241.076 367.951L229.444 364.396C226.624 363.535 224.727 367.293 227.056 369.126L234.201 374.737C241.949 380.814 246.566 390.141 246.767 400.097C246.887 405.951 248.533 411.663 251.544 416.646L263.095 435.768L285.807 437.824H285.827Z" fill="#2C3238"/>
<path d="M285.827 438.432C285.827 438.432 285.787 438.432 285.777 438.432L263.065 436.376C262.874 436.356 262.704 436.254 262.604 436.082L251.052 416.96C247.991 411.886 246.305 406.063 246.184 400.107C245.984 390.283 241.487 381.219 233.85 375.223L226.704 369.612C225.209 368.437 225.179 366.685 225.811 365.459C226.433 364.254 227.848 363.272 229.635 363.819L241.267 367.374C254.163 371.313 264.41 380.895 269.358 393.656L286.409 437.611C286.49 437.804 286.459 438.027 286.329 438.199C286.219 438.351 286.038 438.442 285.847 438.442L285.827 438.432ZM263.467 435.191L284.904 437.135L268.204 394.102C263.386 381.695 253.43 372.377 240.885 368.538L229.253 364.983C228.059 364.619 227.206 365.308 226.845 366.017C226.473 366.736 226.403 367.86 227.407 368.65L234.553 374.261C242.481 380.479 247.148 389.898 247.359 400.087C247.479 405.83 249.095 411.441 252.056 416.333L263.457 435.191H263.467Z" fill="#F3F7F0"/>
<path d="M283.298 417.781C283.298 417.781 283.258 417.781 283.238 417.781C282.907 417.75 282.666 417.457 282.696 417.122C285.295 389.048 279.705 370.969 274.777 355.028C272.499 347.654 270.351 340.696 269.067 333.222C263.035 297.906 283.589 267.268 283.8 266.964C283.991 266.691 284.362 266.62 284.643 266.812C284.914 267.005 284.984 267.38 284.793 267.663C284.593 267.967 264.31 298.209 270.251 333.029C271.516 340.433 273.653 347.351 275.922 354.683C280.879 370.736 286.51 388.936 283.89 417.254C283.86 417.568 283.599 417.811 283.288 417.811L283.298 417.781Z" fill="#F3F7F0"/>
<path d="M306.02 399.014C306.02 399.014 305.95 399.014 305.919 399.014C305.588 398.953 305.367 398.639 305.428 398.315C310.074 370.594 308.469 327.915 308.449 327.49C308.438 327.155 308.689 326.872 309.031 326.862C309.372 326.841 309.643 327.105 309.653 327.449C309.673 327.874 311.289 370.686 306.612 398.528C306.562 398.821 306.311 399.034 306.02 399.034V399.014Z" fill="#F3F7F0"/>
<path d="M265.303 421.984C264.972 421.984 264.701 421.711 264.701 421.376C264.37 386.83 237.031 371.668 236.75 371.516C236.459 371.354 236.349 370.989 236.5 370.696C236.66 370.402 237.021 370.291 237.313 370.443C237.594 370.594 265.564 386.1 265.895 421.366C265.895 421.7 265.634 421.974 265.293 421.984H265.303Z" fill="#F3F7F0"/>
<path d="M268.997 357.367C268.816 357.367 268.635 357.286 268.525 357.134C261.128 347.543 257.846 334.589 257.816 334.458C257.736 334.133 257.927 333.799 258.258 333.718C258.579 333.637 258.91 333.83 258.991 334.164C259.021 334.295 262.242 347.006 269.478 356.395C269.679 356.658 269.639 357.043 269.368 357.246C269.258 357.337 269.127 357.377 268.997 357.377V357.367Z" fill="#F3F7F0"/>
<path d="M249.486 427.2H314.099V456.298C314.099 474.295 299.627 488.9 281.793 488.9C263.958 488.9 249.486 474.295 249.486 456.298V427.2Z" fill="#FFE600"/>
<path d="M283.338 489.508H280.227C262.935 489.508 248.874 475.318 248.874 457.868V427.2C248.874 426.866 249.145 426.592 249.476 426.592H314.089C314.42 426.592 314.691 426.866 314.691 427.2V457.868C314.691 475.318 300.63 489.508 283.338 489.508ZM250.078 427.808V457.868C250.078 474.64 263.597 488.292 280.227 488.292H283.338C299.958 488.292 313.487 474.65 313.487 457.868V427.808H250.088H250.078Z" fill="#F3F7F0"/>
<path d="M307.756 438.705H255.819C255.488 438.705 255.217 438.432 255.217 438.097C255.217 437.763 255.488 437.49 255.819 437.49H307.756C308.087 437.49 308.358 437.763 308.358 438.097C308.358 438.432 308.087 438.705 307.756 438.705Z" fill="#F3F7F0"/>
</g>
<defs>
<clipPath id="clip0_280_2586">
<rect width="500" height="500" fill="white" transform="translate(0.5)"/>
</clipPath>
</defs>
</svg>
