<svg width="501" height="500" viewBox="0 0 501 500" fill="none" xmlns="http://www.w3.org/2000/svg">
<g clip-path="url(#clip0_18_2155)">
<path d="M301.052 199.897C300.891 199.897 300.741 199.836 300.62 199.715C300.39 199.471 300.39 199.087 300.62 198.854L302.588 196.909C302.828 196.676 303.21 196.676 303.441 196.909C303.671 197.152 303.671 197.537 303.441 197.77L301.474 199.715C301.353 199.836 301.203 199.887 301.052 199.887V199.897Z" fill="#010101"/>
<path d="M291.648 209.235C291.488 209.235 291.337 209.174 291.217 209.052C290.986 208.809 290.986 208.424 291.217 208.192L293.184 206.247C293.425 206.014 293.806 206.014 294.037 206.247C294.268 206.49 294.268 206.875 294.037 207.108L292.07 209.052C291.949 209.174 291.799 209.225 291.648 209.225V209.235Z" fill="#010101"/>
<path d="M293.685 199.806C293.525 199.806 293.374 199.745 293.254 199.623L291.327 197.628C291.096 197.385 291.096 197 291.337 196.767C291.578 196.534 291.959 196.534 292.19 196.777L294.117 198.773C294.348 199.016 294.348 199.401 294.107 199.633C293.987 199.745 293.836 199.806 293.685 199.806Z" fill="#010101"/>
<path d="M302.919 209.376C302.758 209.376 302.608 209.316 302.487 209.194L300.56 207.199C300.329 206.956 300.329 206.571 300.57 206.338C300.811 206.105 301.192 206.105 301.423 206.348L303.35 208.343C303.581 208.586 303.581 208.971 303.34 209.204C303.22 209.316 303.069 209.376 302.919 209.376Z" fill="#010101"/>
<path d="M355.127 447.182C354.795 447.182 354.524 446.909 354.524 446.575C354.524 446.24 354.795 445.967 355.127 445.967L357.877 445.947C358.208 445.947 358.479 446.22 358.479 446.554C358.479 446.889 358.208 447.162 357.877 447.162L355.127 447.182Z" fill="#010101"/>
<path d="M341.939 447.263C341.608 447.263 341.337 446.99 341.337 446.656C341.337 446.322 341.608 446.048 341.939 446.048L344.689 446.028C345.02 446.028 345.291 446.301 345.291 446.635C345.291 446.97 345.02 447.243 344.689 447.243L341.939 447.263Z" fill="#010101"/>
<path d="M349.898 441.936C349.567 441.936 349.296 441.663 349.296 441.328V438.543C349.296 438.209 349.557 437.936 349.898 437.936C350.229 437.936 350.5 438.209 350.5 438.543V441.328C350.5 441.663 350.239 441.936 349.898 441.936Z" fill="#010101"/>
<path d="M349.918 455.295C349.587 455.295 349.316 455.022 349.316 454.687V451.902C349.316 451.568 349.577 451.294 349.918 451.294C350.249 451.294 350.52 451.568 350.52 451.902V454.687C350.52 455.022 350.259 455.295 349.918 455.295Z" fill="#010101"/>
<path d="M392.973 194.316C392.973 194.316 399.155 193.465 401.092 179.428C403.029 165.39 403.41 153.064 416.166 149.236C428.922 145.408 444.659 151.576 444.278 165.177C443.886 178.79 445.893 190.417 453.962 196.453C464.4 204.251 468.485 199.836 487.814 218.836C512.142 242.748 505.076 315.508 434.723 295.515L392.973 194.306V194.316Z" fill="#010101"/>
<path d="M410.345 182.294C410.345 182.294 412.443 184.623 416.829 183.803L410.345 182.294Z" fill="#F3F7F0"/>
<path d="M415.002 184.593C411.64 184.593 409.974 182.79 409.894 182.709C409.673 182.456 409.693 182.071 409.934 181.848C410.185 181.625 410.556 181.636 410.787 181.889C410.867 181.98 412.754 183.955 416.718 183.215C417.04 183.155 417.361 183.378 417.421 183.702C417.481 184.026 417.26 184.35 416.939 184.411C416.247 184.542 415.604 184.593 415.012 184.593H415.002Z" fill="#010101"/>
<path d="M411.941 458.515C411.941 458.515 408.288 469.818 404.635 473.272C400.982 476.726 386.449 483.501 386.239 490.885C386.008 499.453 390.936 501.033 404.143 497.944C413.677 495.706 421.556 489.821 424.366 486.459C426.855 483.491 425.46 480.969 424.858 477.485C424.115 473.221 423.974 468.866 423.974 464.532V457.442L411.951 458.515H411.941Z" fill="#F3F7F0"/>
<path d="M394.207 500C391.437 500 389.47 499.433 388.095 498.298C386.319 496.83 385.536 494.47 385.636 490.854C385.797 485.193 393.615 480.058 399.326 476.31C401.433 474.923 403.25 473.738 404.223 472.816C407.726 469.515 411.339 458.435 411.369 458.313C411.439 458.08 411.65 457.918 411.891 457.898L423.914 456.824C424.085 456.804 424.245 456.865 424.376 456.986C424.496 457.098 424.567 457.26 424.567 457.432V464.521C424.567 468.38 424.667 472.928 425.45 477.364C425.57 478.052 425.721 478.701 425.871 479.329C426.453 481.85 427.015 484.231 424.828 486.833C422.058 490.135 414.039 496.232 404.274 498.511C400.088 499.493 396.787 499.99 394.207 499.99V500ZM412.393 459.083C411.71 461.129 408.429 470.517 405.046 473.708C404.003 474.7 402.136 475.915 399.988 477.333C394.498 480.939 386.991 485.871 386.851 490.895C386.761 494.095 387.403 496.151 388.868 497.356C391.176 499.261 395.843 499.25 404.013 497.336C413.487 495.118 421.245 489.234 423.914 486.054C425.701 483.917 425.279 482.114 424.707 479.612C424.557 478.964 424.406 478.296 424.276 477.576C423.483 473.049 423.382 468.431 423.382 464.521V458.1L412.403 459.073L412.393 459.083Z" fill="#010101"/>
<path d="M386.761 495.037C386.449 495.037 386.178 494.794 386.158 494.47C386.138 494.136 386.379 493.842 386.72 493.822L391.417 493.477C403.29 492.606 414.38 487.451 422.67 478.954C423.784 477.82 424.396 477.09 424.406 477.08C424.627 476.827 425.008 476.797 425.259 477.019C425.51 477.242 425.54 477.627 425.319 477.88C425.289 477.911 424.667 478.64 423.523 479.815C415.032 488.525 403.661 493.802 391.498 494.693L386.801 495.037C386.801 495.037 386.771 495.037 386.761 495.037Z" fill="#010101"/>
<path d="M415.103 476.857C415.103 476.857 415.032 476.857 415.002 476.857C414.731 476.817 408.418 475.713 405.879 472.371C405.679 472.107 405.729 471.722 405.99 471.52C406.251 471.317 406.632 471.368 406.833 471.631C409.081 474.599 415.133 475.642 415.193 475.652C415.524 475.703 415.745 476.017 415.685 476.351C415.634 476.645 415.384 476.857 415.092 476.857H415.103Z" fill="#010101"/>
<path d="M409.512 480.686C409.512 480.686 409.432 480.686 409.392 480.676C409.141 480.625 403.109 479.308 401.162 475.996C400.992 475.703 401.092 475.338 401.373 475.166C401.664 474.994 402.025 475.095 402.196 475.379C403.862 478.225 409.573 479.47 409.633 479.491C409.954 479.561 410.165 479.886 410.095 480.21C410.034 480.493 409.783 480.696 409.502 480.696L409.512 480.686Z" fill="#010101"/>
<path d="M403.511 484.301C403.441 484.301 403.37 484.291 403.3 484.261C403.089 484.18 398.142 482.296 396.576 478.994C396.435 478.69 396.556 478.326 396.857 478.184C397.158 478.042 397.519 478.164 397.66 478.468C399.015 481.324 403.671 483.106 403.722 483.116C404.033 483.238 404.193 483.582 404.073 483.896C403.983 484.139 403.752 484.291 403.511 484.291V484.301Z" fill="#010101"/>
<path d="M440.123 430.714C440.564 430.714 446.927 430.076 450.6 429.712C452.025 429.57 453.3 430.613 453.451 432.051L454.173 438.766C454.424 441.136 454.896 443.486 455.568 445.775C456.773 449.937 458.549 457.108 457.575 460.379C456.532 463.884 453.28 468.755 451.132 471.53C450.139 472.806 448.473 473.323 446.937 472.806C444.207 471.885 439.852 470.102 437.292 467.52C433.358 463.549 437.604 455.943 437.604 455.943L440.123 430.714Z" fill="#F3F7F0"/>
<path d="M448.142 473.606C447.68 473.606 447.208 473.535 446.747 473.373C443.655 472.33 439.43 470.538 436.861 467.945C432.877 463.924 436.459 456.784 437.011 455.751L439.51 430.653C439.541 430.339 439.801 430.107 440.113 430.107C440.444 430.107 444.338 429.732 450.53 429.104C452.266 428.932 453.852 430.218 454.043 431.98L454.765 438.695C455.016 440.984 455.468 443.313 456.14 445.602C457.596 450.616 459.121 457.28 458.148 460.551C457.114 464.025 453.983 468.836 451.604 471.905C450.761 472.999 449.466 473.606 448.142 473.606ZM440.675 431.281L438.206 455.994C438.206 456.075 438.176 456.156 438.135 456.227C438.095 456.298 434.161 463.488 437.724 467.084C440.253 469.636 444.709 471.398 447.138 472.219C448.412 472.654 449.828 472.219 450.661 471.145C453.15 467.925 456.08 463.296 457.003 460.197C457.937 457.057 456.14 449.917 454.996 445.937C454.314 443.577 453.842 441.187 453.581 438.817L452.859 432.102C452.738 430.998 451.744 430.188 450.661 430.299C445.291 430.846 441.949 431.17 440.675 431.271V431.281Z" fill="#010101"/>
<path d="M445.231 472.502C445.111 472.502 444.99 472.462 444.88 472.391C444.609 472.199 444.549 471.814 444.739 471.54C452.236 460.906 451.734 458.161 450.64 452.165C450.4 450.849 450.129 449.36 449.908 447.608C449.326 443.03 447.569 430.451 447.549 430.319C447.499 429.985 447.73 429.681 448.061 429.63C448.392 429.58 448.693 429.813 448.744 430.147C448.764 430.279 450.52 442.868 451.102 447.446C451.323 449.167 451.594 450.636 451.825 451.932C452.949 458.09 453.511 461.179 445.723 472.239C445.602 472.401 445.422 472.492 445.231 472.492V472.502Z" fill="#010101"/>
<path d="M446.285 453.259C446.285 453.259 446.225 453.259 446.194 453.259L439.029 452.196C438.698 452.145 438.467 451.841 438.517 451.507C438.567 451.173 438.868 450.94 439.199 450.99L446.365 452.054C446.696 452.104 446.927 452.408 446.877 452.742C446.837 453.046 446.576 453.259 446.285 453.259Z" fill="#010101"/>
<path d="M445.542 458.465C445.542 458.465 445.482 458.465 445.452 458.465L438.286 457.402C437.955 457.351 437.724 457.047 437.774 456.713C437.824 456.379 438.125 456.146 438.457 456.196L445.622 457.26C445.954 457.31 446.184 457.614 446.134 457.949C446.094 458.252 445.833 458.465 445.542 458.465Z" fill="#010101"/>
<path d="M437.754 460.805C433.579 463.711 424.737 467.459 409.884 462.962L416.698 310.94L444.679 305.542C444.679 305.542 448.332 343.34 444.368 381.37C440.745 416.089 440.594 445.683 440.655 455.082C440.665 457.351 439.601 459.508 437.754 460.805Z" fill="#010101"/>
<path d="M443.425 301.106L376.453 304.914L378.732 378.818C379.003 387.447 381.642 395.823 386.359 403.024C393.936 414.56 406.03 431.545 415.594 438.179C430.689 448.651 443.414 301.116 443.414 301.116L443.425 301.106Z" fill="#010101"/>
<path d="M410.145 435.667C410.145 435.667 410.125 435.667 410.115 435.667C409.783 435.647 409.522 435.363 409.543 435.029L411.75 387.134C411.771 386.799 412.042 386.536 412.383 386.556C412.714 386.577 412.975 386.86 412.955 387.194L410.747 435.09C410.727 435.414 410.466 435.667 410.145 435.667Z" fill="#F3F7F0"/>
<path d="M333.519 180.045C333.96 179.954 334.272 179.569 334.262 179.114C334.211 176.754 333.73 169.694 329.795 166.453C325.038 162.524 321.004 153.52 318.123 154.391C315.243 155.262 321.576 163.111 320.863 163.982C320.141 164.853 318.625 161.865 317.04 158.959C315.454 156.052 316.869 155.404 314.561 155.596C311.409 155.86 309.312 156.356 313.487 165.805C317.461 174.799 325.38 174.515 326.423 180.491C326.514 180.997 327.005 181.332 327.507 181.23L333.519 180.055V180.045Z" fill="#F3F7F0"/>
<path d="M327.327 181.848C327.015 181.848 326.724 181.757 326.463 181.575C326.122 181.342 325.901 180.987 325.831 180.582C325.38 177.979 323.473 176.663 321.054 175.002C318.394 173.169 315.082 170.89 312.935 166.038C310.647 160.863 310.054 158.007 310.948 156.467C311.68 155.212 313.246 155.08 314.51 154.968C316.056 154.837 316.498 155.11 316.738 156.336C316.839 156.862 316.979 157.571 317.561 158.645L317.923 159.313C318.515 160.407 319.308 161.876 319.92 162.757C319.659 162.23 319.308 161.602 319.027 161.076C317.441 158.199 316.357 156.052 316.899 154.705C317.08 154.249 317.441 153.925 317.943 153.773C320.01 153.145 322.068 155.951 324.667 159.496C326.333 161.764 328.22 164.337 330.167 165.947C334.211 169.29 334.793 176.237 334.854 179.073C334.874 179.823 334.352 180.471 333.619 180.613L327.608 181.787C327.507 181.808 327.407 181.818 327.317 181.818L327.327 181.848ZM315.193 156.164C315.062 156.164 314.882 156.164 314.621 156.194C313.376 156.295 312.393 156.427 312.001 157.095C311.359 158.199 312.021 160.964 314.049 165.542C316.056 170.079 319.077 172.156 321.746 173.989C324.296 175.741 326.494 177.25 327.025 180.37C327.046 180.481 327.116 180.542 327.156 180.562C327.226 180.613 327.317 180.633 327.397 180.613L333.408 179.438C333.559 179.407 333.669 179.276 333.669 179.114C333.629 177.037 333.188 170.019 329.424 166.909C327.357 165.208 325.43 162.564 323.724 160.235C321.686 157.45 319.579 154.573 318.314 154.948C318.123 155.009 318.073 155.09 318.043 155.171C317.672 156.083 319.137 158.736 320.111 160.488C321.375 162.777 321.867 163.729 321.355 164.357C321.134 164.631 320.833 164.762 320.502 164.722C319.508 164.62 318.585 163 316.899 159.901L316.538 159.232C315.865 157.997 315.695 157.136 315.584 156.569C315.554 156.427 315.524 156.245 315.494 156.164C315.454 156.153 315.374 156.143 315.213 156.143L315.193 156.164Z" fill="#010101"/>
<path d="M475.099 319.954C475.52 319.883 475.932 320.116 476.102 320.511C476.875 322.334 479.063 326.851 482.455 328.543C484.864 329.738 487.031 330.507 489.972 333.313C492.913 336.118 497.951 343.4 496.847 345.203C495.542 347.33 491.357 345.163 488.135 343.178C484.914 341.192 481.722 336.442 478.591 335.966C475.46 335.49 482.084 343.097 481.14 344.292C480.197 345.487 476.815 343.714 474.657 340.109C473.804 338.691 468.695 326.173 467.15 322.375C466.919 321.818 467.27 321.2 467.852 321.099L475.099 319.944V319.954Z" fill="#F3F7F0"/>
<path d="M495.08 346.702C493.043 346.702 490.263 345.203 487.824 343.704C486.49 342.884 485.165 341.608 483.89 340.382C482.074 338.64 480.197 336.837 478.511 336.574C478.441 336.574 478.39 336.564 478.35 336.564C478.38 337.171 479.414 338.934 480.046 340.017C481.472 342.458 482.254 343.876 481.612 344.676C481.371 344.98 480.909 345.325 480.097 345.274C478.26 345.152 475.751 343.127 474.135 340.433C473.282 339.025 468.575 327.499 466.588 322.618C466.407 322.182 466.437 321.696 466.668 321.281C466.899 320.865 467.29 320.582 467.752 320.511L474.998 319.356C475.701 319.235 476.373 319.62 476.654 320.268C477.417 322.06 479.535 326.416 482.716 327.995C483.097 328.188 483.479 328.37 483.85 328.542C485.817 329.474 487.844 330.446 490.384 332.867C492.692 335.075 498.844 343.086 497.359 345.517C496.847 346.358 496.044 346.692 495.07 346.692L495.08 346.702ZM478.34 335.338C478.451 335.338 478.561 335.338 478.681 335.369C480.749 335.683 482.766 337.627 484.713 339.501C485.948 340.686 487.222 341.911 488.447 342.671C492.903 345.416 495.552 346.165 496.335 344.889C497.058 343.714 493.003 337.06 489.551 333.768C487.152 331.48 485.295 330.588 483.338 329.656C482.957 329.474 482.575 329.292 482.184 329.099C478.641 327.337 476.363 322.678 475.54 320.764C475.48 320.622 475.329 320.551 475.189 320.572L467.943 321.726C467.812 321.747 467.742 321.838 467.712 321.888C467.682 321.939 467.642 322.04 467.692 322.172C470.863 329.981 474.496 338.721 475.149 339.815C476.694 342.377 478.902 343.988 480.157 344.069C480.368 344.089 480.518 344.048 480.618 343.967C480.639 343.461 479.615 341.709 478.993 340.645C477.537 338.154 476.734 336.706 477.317 335.824C477.467 335.602 477.758 335.348 478.32 335.348L478.34 335.338Z" fill="#010101"/>
<path d="M408.97 193.323C402.999 191.966 398.583 190.65 392.471 190.984C385.486 191.369 381.903 190.67 376.112 193.587C365.263 199.056 360.958 214.015 354.595 211.392C348.232 208.779 335.225 174.475 335.225 174.475L323.824 179.306C323.824 179.306 338.306 242.768 349.868 246.576C361.429 250.385 375.48 232.245 375.48 232.245C375.48 232.245 375.992 278.257 368.445 308.712C368.445 308.712 380.347 308.651 388.095 311.882C429.374 329.14 446.797 308.712 446.797 308.712C446.536 296.882 443.966 288.78 435.516 275.583C430.899 268.372 429.575 256.725 438.708 246.202C438.708 246.202 460.958 315.548 465.103 323.722C465.384 324.279 479.083 321.21 479.113 320.886C481.331 296.021 464.43 249.625 461.971 238.373C461.229 234.96 460.235 231.607 458.9 228.387C454.735 218.329 445.412 201.851 428.019 197.648L408.97 193.303V193.323Z" fill="#F3F7F0"/>
<path d="M465.434 324.41C464.761 324.41 464.681 324.238 464.561 324.015C460.667 316.348 441.357 256.451 438.467 247.447C430.127 257.727 431.873 268.797 436.018 275.269C444.358 288.294 447.118 296.426 447.389 308.712C447.389 308.864 447.339 309.005 447.238 309.127C447.058 309.34 442.662 314.404 433.087 317.371C424.316 320.096 409.332 321.453 387.844 312.469C380.307 309.319 368.565 309.35 368.425 309.34C368.244 309.34 368.063 309.259 367.953 309.107C367.832 308.955 367.792 308.762 367.842 308.58C374.476 281.812 374.858 242.505 374.868 233.947C371.726 237.643 362.323 247.731 353.23 247.731C352.036 247.731 350.841 247.559 349.677 247.174C337.935 243.305 323.834 182.071 323.242 179.468C323.172 179.174 323.322 178.881 323.593 178.769L334.994 173.938C335.145 173.877 335.315 173.877 335.466 173.938C335.616 173.999 335.737 174.131 335.787 174.283C339.38 183.752 349.797 208.789 354.816 210.855C357.786 212.07 360.436 208.677 363.808 204.393C367.009 200.312 370.632 195.693 375.841 193.07C380.478 190.73 383.76 190.649 388.296 190.548C389.581 190.518 390.915 190.487 392.431 190.406C397.81 190.113 401.965 191.085 406.773 192.219C407.525 192.391 408.288 192.574 409.091 192.756L428.14 197.101C445.944 201.395 455.388 218.42 459.442 228.194C460.727 231.283 461.74 234.585 462.543 238.281C463.115 240.905 464.49 245.482 466.227 251.286C471.897 270.195 481.401 301.845 479.695 320.977C479.655 321.463 479.645 321.564 476.142 322.405C474.235 322.861 471.937 323.367 470.01 323.742C467.421 324.248 466.116 324.43 465.424 324.43L465.434 324.41ZM438.708 245.604C438.708 245.604 438.788 245.604 438.828 245.614C439.039 245.655 439.209 245.817 439.28 246.019C439.5 246.708 461.118 314.049 465.504 323.195C467.24 323.164 476.704 321.119 478.531 320.491C480.066 301.561 470.693 270.316 465.083 251.6C463.336 245.776 461.951 241.178 461.369 238.504C460.576 234.878 459.583 231.648 458.328 228.619C454.364 219.058 445.141 202.408 427.869 198.245L408.82 193.9C408.017 193.718 407.254 193.536 406.502 193.364C401.584 192.209 397.7 191.287 392.491 191.581C390.956 191.662 389.551 191.703 388.316 191.723C383.77 191.834 380.779 191.895 376.373 194.123C371.405 196.625 367.873 201.132 364.751 205.112C361.219 209.619 358.158 213.518 354.354 211.949C348.212 209.427 336.68 179.974 334.874 175.265L324.506 179.65C325.901 185.606 339.46 242.495 350.028 245.979C361.048 249.605 374.838 232.022 374.978 231.85C375.139 231.648 375.41 231.567 375.651 231.648C375.891 231.729 376.062 231.962 376.062 232.215C376.062 232.671 376.484 277.892 369.197 308.084C371.987 308.124 381.592 308.489 388.306 311.294C409.412 320.116 424.065 318.819 432.646 316.186C440.966 313.624 445.331 309.35 446.174 308.448C445.873 296.558 443.144 288.608 434.994 275.887C430.508 268.888 428.671 256.795 438.236 245.776C438.356 245.645 438.517 245.574 438.687 245.574L438.708 245.604Z" fill="#010101"/>
<path d="M401.614 308.054C401.393 308.054 401.172 307.932 401.072 307.709L384.723 274.074C384.573 273.77 384.703 273.406 384.994 273.264C385.295 273.112 385.657 273.244 385.797 273.537L402.146 307.172C402.296 307.476 402.166 307.841 401.875 307.983C401.785 308.023 401.694 308.043 401.614 308.043V308.054Z" fill="#010101"/>
<path d="M387.302 296.953C387.062 296.953 386.841 296.811 386.74 296.578L382.264 285.63C382.134 285.316 382.284 284.962 382.596 284.84C382.907 284.708 383.258 284.86 383.378 285.174L387.854 296.123C387.985 296.437 387.834 296.791 387.523 296.913C387.443 296.943 387.373 296.963 387.292 296.963L387.302 296.953Z" fill="#010101"/>
<path d="M329.625 173.726H315.765C314.791 173.726 313.989 172.956 313.938 171.974L312.624 146.451C312.573 145.398 313.406 144.506 314.45 144.506H330.809C331.853 144.506 332.686 145.387 332.636 146.441L331.451 171.963C331.401 172.946 330.598 173.726 329.625 173.726Z" fill="#010101"/>
<path d="M329.404 170.221C329.213 170.221 329.033 170.13 328.912 169.968C328.722 169.695 328.782 169.32 329.043 169.117C338.085 162.493 340.785 153.571 338.667 150.34C337.282 148.223 334.021 148.507 329.705 151.11C329.424 151.282 329.053 151.191 328.882 150.897C328.712 150.613 328.802 150.239 329.093 150.066C336.118 145.833 338.838 148.375 339.681 149.671C342.431 153.864 338.768 163.496 329.755 170.1C329.645 170.181 329.524 170.211 329.404 170.211V170.221Z" fill="#010101"/>
<path d="M314.039 168.844C307.806 159.587 308.94 155.232 312.493 152.487C312.704 152.325 312.995 152.325 313.216 152.487C320.07 157.318 321.777 162.757 316.829 168.986C316.096 169.907 314.691 169.826 314.039 168.854V168.844Z" fill="#F3F7F0"/>
<path d="M315.494 170.231C315.494 170.231 315.434 170.231 315.394 170.231C314.641 170.201 313.958 169.826 313.537 169.188C307.937 160.873 307.505 155.576 312.122 152.001C312.533 151.677 313.125 151.667 313.557 151.981C317.511 154.766 319.749 157.764 320.191 160.873C320.582 163.598 319.609 166.454 317.3 169.36C316.859 169.917 316.196 170.231 315.494 170.231ZM312.875 152.973C310.175 155.039 307.937 158.685 314.541 168.5C314.751 168.803 315.082 168.996 315.444 169.006C315.815 169.026 316.136 168.864 316.357 168.591C318.445 165.957 319.338 163.425 318.997 161.035C318.605 158.27 316.538 155.556 312.865 152.973H312.875Z" fill="#010101"/>
<path d="M410.647 182.598C406.381 179.63 411.239 161.896 416.066 159.273C420.903 156.66 431.04 159.506 431.04 159.506C427.266 172.004 434.051 175.093 434.994 175.093C435.938 175.093 438.948 175.275 437.062 179.316C435.175 183.357 430.93 181.159 430.93 181.159C430.076 181.919 428.481 182.78 426.514 183.509C424.175 190.528 426.744 196.058 428.952 199.167C430.076 200.747 429.294 202.985 427.417 203.431C424.416 204.15 419.84 204.575 414.069 203.046C409.663 201.871 406.712 200.261 404.765 198.762C403.17 197.536 403.421 194.984 405.247 194.133C410.165 191.855 413.467 184.532 410.647 182.577V182.598Z" fill="#F3F7F0"/>
<path d="M421.726 204.707C419.468 204.707 416.839 204.424 413.918 203.654C410.054 202.621 406.853 201.152 404.404 199.268C403.481 198.56 402.999 197.425 403.129 196.24C403.26 195.075 403.952 194.093 404.996 193.607C408.338 192.057 410.827 188.097 411.068 185.363C411.128 184.613 411.048 183.621 410.305 183.094C408.9 182.112 408.248 179.813 408.439 176.44C408.79 170.029 412.152 160.711 415.785 158.736C420.773 156.032 430.779 158.807 431.211 158.929C431.371 158.969 431.502 159.081 431.582 159.222C431.662 159.364 431.682 159.536 431.632 159.688C429.575 166.484 430.759 170.252 432.114 172.217C433.268 173.888 434.703 174.475 435.004 174.485C436.761 174.485 437.553 175.154 437.915 175.721C438.487 176.632 438.386 177.929 437.614 179.58C437.011 180.876 436.118 181.737 434.964 182.132C433.368 182.679 431.742 182.162 431.03 181.879C430.117 182.588 428.691 183.337 427.005 183.985C424.948 190.488 427.186 195.633 429.454 198.823C430.107 199.745 430.267 200.919 429.876 201.983C429.494 203.016 428.631 203.786 427.577 204.039C426.082 204.403 424.115 204.707 421.746 204.707H421.726ZM410.998 182.091C411.951 182.75 412.403 183.955 412.272 185.464C412.011 188.523 409.342 192.928 405.508 194.701C404.856 195.005 404.414 195.622 404.334 196.362C404.253 197.111 404.555 197.83 405.137 198.286C407.455 200.069 410.516 201.476 414.229 202.459C419.98 203.988 424.506 203.512 427.286 202.844C427.959 202.682 428.491 202.206 428.742 201.547C428.993 200.869 428.892 200.109 428.471 199.522C426.012 196.058 423.583 190.427 425.952 183.317C426.012 183.145 426.142 183.003 426.313 182.942C428.16 182.253 429.745 181.413 430.538 180.704C430.719 180.542 430.99 180.501 431.211 180.623C431.231 180.623 432.997 181.524 434.583 180.977C435.406 180.694 436.058 180.046 436.52 179.063C437.092 177.827 437.222 176.906 436.891 176.379C436.61 175.944 435.958 175.711 434.994 175.711C434.422 175.711 432.686 175.052 431.261 173.118C429.705 171.001 428.3 167.001 430.287 159.952C428.079 159.405 420.271 157.703 416.357 159.82C413.457 161.39 410.004 169.978 409.643 176.521C409.482 179.407 409.964 181.393 410.988 182.102L410.998 182.091Z" fill="#010101"/>
<path d="M292.772 63.2189C291.979 52.9086 292.772 38.223 301.534 25.9579C325.791 -7.95068 396.576 -2.98795 410.325 24.6919C417.311 38.7395 409.753 58.9449 398.473 70.0756C381.793 86.5235 353.651 86.3715 336.48 76.4866C320.131 67.0675 315.042 49.5967 304.665 51.2273C298.894 52.1287 295.05 58.3777 292.772 63.229V63.2189Z" fill="#F3F7F0"/>
<path d="M363.607 83.9003C353.732 83.9003 343.916 81.4595 336.188 77.0032C328.641 72.6582 323.573 66.7435 319.107 61.5275C314.059 55.633 310.074 50.9742 304.755 51.8047C300.48 52.4731 296.636 56.3926 293.314 63.462C293.194 63.7152 292.933 63.8469 292.662 63.7962C292.391 63.7456 292.19 63.5228 292.17 63.2493C291.006 48.1181 293.997 35.4479 301.042 25.5832C307.274 16.8731 317.06 10.0975 329.354 5.99563C340.323 2.33942 353.25 0.880982 365.755 1.89378C387.563 3.65606 404.846 12.2851 410.867 24.3982C418.023 38.8003 410.406 59.1475 398.894 70.4908C391.096 78.1881 380.016 82.8875 367.702 83.7484C366.337 83.8396 364.962 83.8902 363.597 83.8902L363.607 83.9003ZM306.03 50.4981C311.259 50.4981 315.173 55.076 320.02 60.7376C324.426 65.8725 329.414 71.7062 336.781 75.9499C353.441 85.5411 381.612 85.8551 398.051 69.6401C409.001 58.8335 416.608 38.6889 409.783 24.9654C403.952 13.227 387.042 4.86129 365.655 3.1294C345.131 1.46841 316.156 6.54254 302.015 26.3124C295.482 35.4479 292.531 47.085 293.224 60.9401C296.506 54.7519 300.309 51.278 304.565 50.6197C305.056 50.5387 305.548 50.5083 306.02 50.5083L306.03 50.4981Z" fill="#010101"/>
<path d="M386.279 35.2451H326.674C326.343 35.2451 326.072 34.9717 326.072 34.6375C326.072 34.3032 326.343 34.0298 326.674 34.0298H386.279C386.61 34.0298 386.881 34.3032 386.881 34.6375C386.881 34.9717 386.61 35.2451 386.279 35.2451Z" fill="#010101"/>
<path d="M370.422 45.8091H340.434C340.103 45.8091 339.832 45.5357 339.832 45.2014C339.832 44.8672 340.103 44.5938 340.434 44.5938H370.422C370.753 44.5938 371.024 44.8672 371.024 45.2014C371.024 45.5357 370.753 45.8091 370.422 45.8091Z" fill="#010101"/>
<path d="M449.055 129C450.57 126.853 467.652 101.726 456.923 73.0735C449.386 52.9592 430.227 36.6633 407.987 35.7821C404.233 35.6302 380.568 34.6984 367.862 53.7796C359.312 66.6321 358.368 84.5789 366.688 97.6441C376.574 113.17 395.442 115.378 398.242 115.662C417.842 117.657 428.651 104.967 439.34 111.094C445.883 114.841 448.142 123.207 449.065 129H449.055Z" fill="#F3F7F0"/>
<path d="M449.055 129.618C449.055 129.618 448.964 129.618 448.914 129.598C448.673 129.537 448.493 129.345 448.453 129.102C447.048 120.29 443.886 114.406 439.029 111.631C433.75 108.603 428.421 110.375 421.686 112.623C415.173 114.791 407.786 117.252 398.172 116.28C393.063 115.763 375.671 112.907 366.176 97.9884C357.987 85.1157 358.469 66.8042 367.361 53.4555C378.993 35.9847 399.657 34.8503 408.007 35.1845C418.786 35.6099 429.274 39.6105 438.346 46.7406C446.907 53.4757 453.702 62.753 457.495 72.8608C468.254 101.584 451.494 126.6 449.547 129.355C449.436 129.517 449.245 129.608 449.055 129.608V129.618ZM432.927 108.815C435.205 108.815 437.423 109.312 439.631 110.578C444.528 113.383 447.81 119.055 449.396 127.431C453.19 121.546 465.956 98.9202 456.361 73.3064C448.402 52.068 428.952 37.2405 407.967 36.41C399.818 36.0961 379.665 37.1798 368.364 54.1442C359.733 67.1081 359.251 84.8625 367.2 97.3402C376.644 112.178 394.769 114.72 398.302 115.084C407.666 116.037 414.912 113.616 421.315 111.479C425.47 110.091 429.274 108.825 432.927 108.825V108.815Z" fill="#010101"/>
<path d="M437.985 72.1822H381.953C381.622 72.1822 381.351 71.9087 381.351 71.5745C381.351 71.2403 381.622 70.9668 381.953 70.9668H437.985C438.316 70.9668 438.587 71.2403 438.587 71.5745C438.587 71.9087 438.316 72.1822 437.985 72.1822Z" fill="#010101"/>
<path d="M419.88 79.5552H399.828C399.496 79.5552 399.225 79.2817 399.225 78.9475C399.225 78.6133 399.496 78.3398 399.828 78.3398H419.88C420.211 78.3398 420.482 78.6133 420.482 78.9475C420.482 79.2817 420.211 79.5552 419.88 79.5552Z" fill="#010101"/>
<path d="M37.714 475.287H250.952C260.024 475.287 267.381 467.752 267.381 458.465L246.586 16.9642C246.586 7.67685 239.229 0.141602 230.157 0.141602H16.9291C7.85648 0.15173 0.5 7.67685 0.5 16.9642L21.2848 458.455C21.2848 467.742 28.6413 475.277 37.714 475.277V475.287Z" fill="#010101"/>
<path d="M52.166 475.379H265.404C274.476 475.379 281.833 467.884 281.833 458.637L261.048 17.9369C261.048 8.69004 253.691 1.19531 244.619 1.19531H31.3812C22.3085 1.19531 14.952 8.69004 14.952 17.9369L35.7369 458.637C35.7369 467.884 43.0933 475.379 52.166 475.379Z" fill="#F3F7F0"/>
<path d="M244.127 475.409H200.199C199.868 475.409 199.597 475.136 199.597 474.802C199.597 474.467 199.868 474.194 200.199 474.194H244.127C244.458 474.194 244.729 474.467 244.729 474.802C244.729 475.136 244.458 475.409 244.127 475.409Z" fill="#010101"/>
<path d="M177.196 475.409H52.166C42.7722 475.409 35.1347 467.621 35.1347 458.05L27.2162 308.874C27.1961 308.54 27.457 308.256 27.7882 308.236C28.1194 308.226 28.4004 308.479 28.4205 308.813L36.339 458.019C36.339 466.952 43.4346 474.194 52.166 474.194H177.186C177.517 474.194 177.788 474.467 177.788 474.801C177.788 475.136 177.517 475.409 177.186 475.409H177.196Z" fill="#010101"/>
<path d="M21.7967 168.247C21.4755 168.247 21.2146 167.993 21.1945 167.669L14.3499 17.3797C14.3499 7.77832 21.9873 0 31.3812 0H244.619C254.013 0 261.65 7.78844 261.65 17.3594L263.266 57.4461C263.276 57.7803 263.025 58.0639 262.684 58.0842C262.323 58.1044 262.072 57.8411 262.052 57.4968L260.436 17.3797C260.436 8.45689 253.34 1.21536 244.609 1.21536H31.3812C22.6598 1.21536 15.5542 8.45689 15.5542 17.3493L22.3888 167.609C22.4089 167.943 22.1479 168.226 21.8167 168.247C21.8167 168.247 21.7967 168.247 21.7866 168.247H21.7967Z" fill="#010101"/>
<path d="M62.0617 462.78H256.793C265.072 462.78 271.797 455.933 271.797 447.487L251.263 30.1415C251.263 21.6947 244.549 14.8481 236.259 14.8481H41.5378C33.258 14.8481 26.5338 21.6947 26.5338 30.1415L47.0576 447.487C47.0576 455.933 53.7718 462.78 62.0617 462.78Z" fill="#F3F7F0"/>
<path d="M256.793 463.387H62.0616C53.4607 463.387 46.4555 456.257 46.4555 447.486L25.9316 30.1716C25.9316 21.3704 32.9268 14.2402 41.5378 14.2402H236.269C244.87 14.2402 251.875 21.3704 251.875 30.1412L272.399 447.456C272.399 456.257 265.404 463.387 256.793 463.387ZM41.5378 15.4556C33.5992 15.4556 27.1359 22.0388 27.1359 30.1412L47.6598 447.456C47.6598 455.579 54.1231 462.172 62.0616 462.172H256.793C264.731 462.172 271.195 455.589 271.195 447.486L250.661 30.1716C250.661 22.0489 244.197 15.4556 236.259 15.4556H41.5378Z" fill="#010101"/>
<path d="M40.7549 148.193C40.4338 148.193 40.1728 147.94 40.1528 147.616L38.2961 108.035C38.276 107.701 38.5369 107.418 38.8681 107.397C39.1993 107.367 39.4803 107.64 39.5004 107.975L41.3571 147.555C41.3772 147.889 41.1162 148.173 40.785 148.193C40.785 148.193 40.765 148.193 40.7549 148.193Z" fill="#010101"/>
<path d="M246.365 111.712C246.044 111.712 245.783 111.459 245.763 111.135L242.3 37.4939C242.3 29.6549 236.359 23.2945 229.063 23.2945H49.4161C42.1198 23.2945 36.1785 29.6549 36.1785 37.4636L38.8079 93.3803C38.828 93.7146 38.5671 93.9982 38.2359 94.0184C37.9047 94.0285 37.6237 93.7754 37.6036 93.4411L34.9741 37.4939C34.9741 28.9864 41.4474 22.0791 49.4161 22.0791H229.063C237.021 22.0791 243.505 28.9763 243.505 37.4636L246.957 111.074C246.977 111.408 246.716 111.692 246.385 111.712C246.385 111.712 246.365 111.712 246.355 111.712H246.365Z" fill="#010101"/>
<path d="M261.74 377.694C261.419 377.694 261.158 377.441 261.138 377.117L258.228 315.042C258.208 314.708 258.469 314.424 258.8 314.404C259.111 314.384 259.412 314.647 259.432 314.981L262.343 377.056C262.363 377.39 262.102 377.674 261.771 377.694C261.771 377.694 261.75 377.694 261.74 377.694Z" fill="#F3F7F0"/>
<path d="M230.548 456.085H114.751C114.42 456.085 114.149 455.812 114.149 455.477C114.149 455.143 114.42 454.87 114.751 454.87H230.548C230.879 454.87 231.15 455.143 231.15 455.477C231.15 455.812 230.879 456.085 230.548 456.085Z" fill="#010101"/>
<path d="M100.269 456.085H68.3543C60.3956 456.085 53.9123 449.188 53.9123 440.701L51.3832 386.84C51.3631 386.506 51.624 386.222 51.9552 386.202C52.2864 386.182 52.5674 386.445 52.5875 386.779L55.1166 440.66C55.1166 448.499 61.058 454.86 68.3543 454.86H100.269C100.6 454.86 100.871 455.133 100.871 455.467C100.871 455.801 100.6 456.075 100.269 456.075V456.085Z" fill="#010101"/>
<path d="M174.085 1.20508L169.98 8.10226C167.481 12.2953 163.306 14.807 158.83 14.807H117.351C112.975 14.807 108.87 12.3965 106.351 8.35546L101.905 1.20508H174.085Z" fill="#010101"/>
<path d="M272.108 263.815C271.787 263.815 271.526 263.562 271.506 263.237L268.495 202.976C268.475 202.642 268.736 202.358 269.067 202.338C269.408 202.328 269.679 202.581 269.699 202.915L272.71 263.177C272.73 263.511 272.469 263.795 272.138 263.815C272.128 263.815 272.118 263.815 272.108 263.815Z" fill="#010101"/>
<path d="M143.936 321.636C203.217 321.636 251.273 273.14 251.273 213.317C251.273 153.494 203.217 104.998 143.936 104.998C84.6561 104.998 36.5999 153.494 36.5999 213.317C36.5999 273.14 84.6561 321.636 143.936 321.636Z" fill="#F3F7F0"/>
<path d="M143.936 322.243C84.412 322.243 35.9977 273.376 35.9977 213.316C35.9977 153.257 84.4221 104.39 143.936 104.39C203.451 104.39 251.875 153.257 251.875 213.316C251.875 273.376 203.451 322.243 143.936 322.243ZM143.936 105.595C85.0845 105.595 37.2021 153.916 37.2021 213.306C37.2021 272.697 85.0845 321.018 143.936 321.018C202.788 321.018 250.671 272.697 250.671 213.306C250.671 153.916 202.788 105.595 143.936 105.595Z" fill="#010101"/>
<path d="M203.601 288.669L103.892 294.341C103.892 294.341 103.842 303.172 103.621 313.24C117.812 320.228 133.649 321.636 150.5 321.636C170.803 321.636 189.621 311.7 205.809 301.815L203.611 288.669H203.601Z" fill="#010101"/>
<path d="M288.236 94.0084C287.995 91.9625 289.149 89.6939 289.561 87.6379C290.444 83.1714 291.207 78.6442 291.076 74.0967C290.966 70.0658 290.785 66.4399 289.149 62.7938C288.025 60.3023 286.239 57.1728 282.816 57.4969C280.337 57.74 278.029 59.3199 276.654 61.386C274.767 64.2118 274.326 67.787 274.426 71.2001C274.516 74.2689 275.62 78.0061 274.978 81.0243C274.296 84.2247 272.459 83.9411 270.863 81.4598C266.859 75.2108 260.195 74.0258 262.543 76.2337C264.892 78.4416 269.117 87.2834 270.683 89.7141C271.255 90.5952 273.001 91.6688 274.998 92.6816C275.018 98.4647 274.296 107.347 270.231 117.029C265.384 128.565 257.776 136.506 251.494 141.59C256.642 150.675 267.842 165.522 287.052 167.994C289.771 162.535 291.909 156.782 293.394 150.857C296.034 140.344 296.646 129.335 295.211 118.589C294.478 113.16 293.234 107.803 291.477 102.617C290.594 99.9839 289.34 97.4823 288.437 94.8693C288.336 94.5857 288.276 94.3021 288.246 94.0084H288.236Z" fill="#F3F7F0"/>
<path d="M287.042 168.611C287.042 168.611 286.991 168.611 286.961 168.611C267.361 166.09 255.99 150.796 250.962 141.904C250.811 141.641 250.881 141.316 251.112 141.124C259.502 134.328 265.745 126.145 269.669 116.797C272.78 109.393 274.366 101.402 274.386 93.0565C272.088 91.8614 270.703 90.8789 270.171 90.0383C269.659 89.2382 268.876 87.8 267.983 86.1289C266.156 82.7461 263.657 78.1075 262.132 76.6693C261.921 76.4769 261.289 75.8692 261.49 75.221C261.54 75.059 261.72 74.6741 262.323 74.6032C263.878 74.3804 268.374 76.4465 271.375 81.1155C272.218 82.422 272.961 82.817 273.332 82.736C273.764 82.655 274.165 81.9663 274.396 80.8725C274.787 79.0494 274.486 76.8719 274.205 74.7653C274.045 73.5702 273.874 72.3345 273.834 71.2002C273.714 66.8958 274.476 63.5637 276.172 61.0317C277.718 58.7124 280.247 57.1223 282.776 56.8792C286.52 56.5146 288.447 59.7049 289.711 62.5306C291.347 66.1565 291.568 69.7519 291.688 74.0664C291.809 78.4215 291.166 82.6854 290.163 87.7494C290.022 88.4786 289.781 89.2382 289.551 89.9674C289.129 91.3144 288.697 92.702 288.838 93.9275C288.868 94.1908 288.918 94.4339 288.999 94.6668C289.43 95.9227 289.952 97.1786 290.464 98.3939C291.006 99.7004 291.578 101.047 292.04 102.425C293.796 107.641 295.06 113.049 295.793 118.518C297.238 129.284 296.606 140.526 293.966 151.019C292.461 156.985 290.313 162.798 287.573 168.277C287.473 168.48 287.262 168.611 287.031 168.611H287.042ZM252.266 141.742C257.274 150.422 268.194 164.763 286.7 167.335C289.31 162.049 291.357 156.458 292.802 150.715C295.402 140.364 296.024 129.284 294.599 118.67C293.876 113.282 292.632 107.945 290.895 102.81C290.444 101.473 289.892 100.146 289.35 98.8699C288.838 97.6343 288.296 96.3683 287.854 95.0719C287.744 94.758 287.674 94.4237 287.634 94.0794C287.463 92.6007 287.935 91.0815 288.386 89.6129C288.617 88.8837 288.828 88.1849 288.958 87.5164C289.942 82.5335 290.584 78.3506 290.454 74.1069C290.333 69.7924 290.123 66.4704 288.577 63.037C287.473 60.586 285.827 57.811 282.856 58.0945C280.679 58.3072 278.491 59.6948 277.136 61.7103C275.59 64.0296 274.888 67.1186 275.008 71.1698C275.038 72.2333 275.199 73.3879 275.359 74.6032C275.661 76.8111 275.982 79.1001 275.54 81.1358C275.088 83.2222 274.195 83.8096 273.513 83.9311C272.479 84.1236 271.345 83.3538 270.331 81.7739C267.832 77.8746 264.43 76.1832 263.015 75.8591C264.681 77.4998 267.08 81.9562 269.017 85.5516C269.91 87.2025 270.673 88.6204 271.164 89.38C271.405 89.7649 272.268 90.6257 275.249 92.1348C275.45 92.2361 275.58 92.4488 275.58 92.6817C275.6 101.331 273.985 109.606 270.763 117.273C266.819 126.651 260.596 134.885 252.246 141.742H252.266Z" fill="#010101"/>
<path d="M251.484 141.6C247.439 144.871 243.946 146.968 242.1 148.082C211.53 166.404 192.913 145.388 142.832 146.745C124.516 147.241 111.961 144.608 79.3037 158.919C79.3037 158.919 19.7894 178.172 19.7894 239.67C19.7894 256.918 31.05 271.522 44.3177 276.191C56.1804 261.222 59.9841 252.674 69.2475 249.008C69.1772 248.309 62.734 243.853 62.8143 243.123C64.4201 227.496 69.6489 223.039 75.6505 220.153C78.4004 218.836 81.6321 220.437 81.9432 223.485C83.3382 236.905 81.3912 247.57 84.3619 279.463C86.0881 297.977 87.9247 300.701 89.6911 302.524C101.343 314.485 121.205 298.473 167.612 297.764C189.641 297.43 204.173 300.742 208.298 293.054C211.269 287.514 206.321 280.952 202.698 271.32C198.222 259.419 195.131 241.037 202.899 213.793C233.8 217.246 264.129 203.249 281.532 177.463C283.589 174.415 285.426 171.255 287.042 168.014C267.832 165.543 256.632 150.695 251.484 141.61V141.6Z" fill="#F3F7F0"/>
<path d="M101.243 307.568C96.3952 307.568 92.5514 306.332 89.2595 302.949C87.2523 300.883 85.4558 297.703 83.7597 279.523C81.9934 260.594 81.9632 249.251 81.9432 240.135C81.9231 233.907 81.9131 228.985 81.351 223.556C81.2306 222.371 80.5783 221.368 79.5646 220.791C78.4707 220.173 77.1058 220.133 75.9215 220.71C70.512 223.303 65.1025 227.161 63.4366 243.052C63.7677 243.528 65.4638 244.886 66.5979 245.797C69.1471 247.843 69.7995 248.42 69.8496 248.947C69.8797 249.22 69.7192 249.474 69.4683 249.575C62.8745 252.188 59.1411 257.292 52.9588 265.749C50.6405 268.909 48.0211 272.494 44.7894 276.576C44.6288 276.779 44.3579 276.85 44.117 276.769C29.665 271.684 19.1873 256.087 19.1873 239.67C19.1873 207.665 35.4859 187.257 49.1652 175.762C63.9584 163.325 78.9725 158.382 79.123 158.331C106.763 146.218 120.291 146.218 134.613 146.208C137.252 146.208 139.982 146.208 142.822 146.127C163.386 145.57 178.37 148.71 191.598 151.485C210.376 155.415 223.934 158.261 241.799 147.555C243.645 146.451 247.088 144.385 251.112 141.124C251.253 141.013 251.433 140.972 251.604 141.002C251.775 141.033 251.925 141.144 252.015 141.296C256.933 149.986 268.043 164.945 287.122 167.396C287.312 167.416 287.483 167.538 287.573 167.71C287.664 167.882 287.664 168.095 287.573 168.267C285.928 171.569 284.061 174.769 282.023 177.787C264.531 203.715 234.412 217.722 203.34 214.431C197.268 236.003 197.238 255.054 203.26 271.087C204.223 273.639 205.257 275.938 206.261 278.156C208.991 284.213 211.158 289.003 208.83 293.328C205.628 299.293 196.867 299.01 183.599 298.584C178.862 298.432 173.503 298.26 167.622 298.351C146.977 298.665 131.301 302.089 119.85 304.58C112.282 306.231 106.241 307.548 101.243 307.548V307.568ZM77.6678 219.079C78.5309 219.079 79.384 219.292 80.1467 219.728C81.5116 220.497 82.3848 221.844 82.5453 223.424C83.1174 228.924 83.1274 233.866 83.1475 240.125C83.1676 249.21 83.1977 260.523 84.9641 279.402C86.62 297.156 88.3462 300.266 90.1226 302.089C96.345 308.479 105.097 306.565 119.599 303.405C131.1 300.893 146.847 297.46 167.612 297.146C173.513 297.055 178.892 297.227 183.639 297.379C196.455 297.784 204.926 298.058 207.776 292.751C209.814 288.953 207.766 284.415 205.167 278.662C204.203 276.525 203.109 274.115 202.136 271.522C195.974 255.125 196.034 235.639 202.327 213.61C202.407 213.327 202.678 213.144 202.969 213.175C233.78 216.618 263.697 202.804 281.03 177.109C282.877 174.364 284.593 171.468 286.118 168.49C267.471 165.705 256.441 151.343 251.313 142.512C247.459 145.57 244.197 147.525 242.401 148.598C224.135 159.547 210.376 156.67 191.337 152.68C178.18 149.925 163.256 146.796 142.842 147.353C139.982 147.434 137.242 147.434 134.603 147.434C120.412 147.434 107.003 147.444 79.5345 159.476C79.3338 159.547 64.5104 164.429 49.8878 176.724C36.4293 188.047 20.3816 208.151 20.3816 239.67C20.3816 255.429 30.3374 270.408 44.107 275.472C47.1981 271.553 49.7372 268.089 51.9753 265.03C58.0572 256.715 61.8207 251.58 68.2539 248.765C67.6818 248.228 66.6481 247.407 65.8352 246.749C62.6838 244.227 62.1419 243.67 62.2021 243.062C63.9183 226.432 69.8998 222.239 75.3795 219.606C76.1021 219.262 76.885 219.079 77.6577 219.079H77.6678Z" fill="#010101"/>
<path d="M123.714 245.2C123.603 245.2 123.493 245.169 123.402 245.109C111.209 237.543 105.558 225.602 108.649 219.981C109.593 218.279 112.784 214.816 122.118 219.505C122.419 219.657 122.539 220.021 122.389 220.325C122.238 220.629 121.877 220.751 121.576 220.599C115.655 217.621 111.329 217.611 109.703 220.578C107.264 225.015 111.63 236.378 124.035 244.075C124.316 244.248 124.406 244.622 124.235 244.916C124.125 245.098 123.924 245.21 123.724 245.21L123.714 245.2Z" fill="#010101"/>
<path d="M123.844 249.919L141.728 248.532C142.983 248.43 143.946 247.367 143.916 246.091L143.113 213.033C143.083 211.666 141.919 210.602 140.564 210.714L119.458 212.354C118.113 212.456 117.13 213.681 117.29 215.028L121.325 247.843C121.486 249.109 122.59 250.031 123.854 249.929L123.844 249.919Z" fill="#010101"/>
<path d="M137.463 230.635C137.353 230.392 137.222 230.159 137.052 229.936C133.84 225.673 126.845 230.088 123.192 231.263C120.321 232.185 117.451 233.117 114.581 234.038L103.641 247.093C97.7099 248.673 79.695 254.801 66.5075 246.131C62.2723 243.346 56.6019 244.521 53.5911 248.623C49.0949 254.75 44.8697 262.721 42.1398 275.199C63.3161 281.61 93.565 273.76 107.164 261.536C113.356 261.779 118.214 255.722 121.927 251.529C124.025 249.17 125.982 246.354 128.641 244.622C131.08 243.032 134.031 242.05 135.867 239.659C137.041 238.12 137.573 236.175 137.804 234.251C137.945 233.036 137.955 231.719 137.463 230.625V230.635Z" fill="#F3F7F0"/>
<path d="M59.121 278.136C53.1696 278.136 47.3285 277.407 41.9592 275.786C41.6581 275.695 41.4775 275.381 41.5477 275.067C43.8962 264.321 47.5694 255.804 53.0993 248.258C56.341 243.842 62.3727 242.688 66.8287 245.615C78.7617 253.464 94.96 248.896 101.875 246.942C102.397 246.79 102.879 246.658 103.29 246.547L114.109 233.644C114.179 233.552 114.28 233.492 114.39 233.461L123.001 230.686C123.724 230.453 124.617 230.079 125.56 229.673C129.414 228.043 134.693 225.794 137.533 229.562C137.714 229.805 137.875 230.079 138.015 230.372C138.477 231.405 138.607 232.661 138.406 234.322C138.125 236.722 137.443 238.596 136.349 240.034C135.004 241.797 133.107 242.82 131.281 243.802C130.508 244.217 129.705 244.653 128.982 245.129C127.046 246.395 125.45 248.309 123.904 250.152C123.402 250.76 122.891 251.357 122.389 251.935L121.616 252.806C117.953 256.979 113.406 262.144 107.535 262.144C107.485 262.144 107.435 262.144 107.395 262.144C97.3085 271.087 77.6577 278.116 59.1411 278.126L59.121 278.136ZM42.8424 274.773C64.5706 281.063 93.856 272.677 106.752 261.08C106.873 260.979 107.023 260.908 107.174 260.928C112.654 261.131 117.11 256.077 120.693 252.006L121.465 251.125C121.967 250.557 122.459 249.97 122.961 249.372C124.557 247.458 126.213 245.483 128.3 244.116C129.073 243.61 129.896 243.164 130.689 242.739C132.485 241.766 134.181 240.845 135.375 239.295C136.339 238.039 136.931 236.368 137.192 234.19C137.363 232.773 137.262 231.689 136.901 230.889C136.811 230.676 136.69 230.484 136.56 230.311C134.292 227.293 129.705 229.248 126.022 230.808C125.058 231.213 124.145 231.608 123.362 231.851L114.912 234.575L104.083 247.489C104.003 247.58 103.892 247.651 103.772 247.681C103.31 247.803 102.778 247.954 102.186 248.116C95.1105 250.112 78.5409 254.781 66.1563 246.638C62.2322 244.055 56.913 245.088 54.0527 248.988C48.7135 256.249 45.1407 264.463 42.8323 274.773H42.8424Z" fill="#010101"/>
<path d="M134.051 118.265C130.408 120.119 127.668 120.382 125.691 120.27C118.545 119.855 113.968 114.042 113.045 112.877C108.308 106.871 106.03 97.0064 110.044 91.2132C112.935 87.0404 116.578 88.6103 119.9 83.9514C123.683 78.6544 119.809 74.3399 123.292 69.7013C127.306 64.3638 136.148 64.7689 137.744 64.8499C143.204 65.1031 143.856 67.8377 149.015 67.6959C154.284 67.5541 154.976 64.8803 159.814 64.8499C163.657 64.8297 169.247 66.4805 171.756 70.9571C174.908 76.5782 171.686 83.9919 167.953 87.9013C163.467 92.6007 160.305 90.0788 154.023 93.8971C143.133 100.521 145.733 112.33 134.061 118.265H134.051Z" fill="#010101"/>
<path d="M154.324 143.271L151.373 124.767C152.025 124.696 157.455 123.744 158.067 123.43C163.095 120.908 161.7 108.167 161.7 108.167L164.49 104.795L156.15 85.9668C147.298 93.4109 144.137 86.0985 135.376 89.7648C126.614 93.4311 131.371 103.276 131.371 103.276C131.371 103.276 124.215 100.095 125.741 107.084C126.895 112.36 130.709 112.695 133.218 112.482L128.551 144.213C128.551 144.213 119.398 146.836 113.999 148.355C113.186 148.578 113.206 149.743 114.019 149.945C122.419 152.062 143.465 158.088 167.22 149.237C168.214 148.862 168.164 147.424 167.14 147.12L154.314 143.261L154.324 143.271Z" fill="#F3F7F0"/>
<path d="M140.865 154.513C129.464 154.513 120.201 152.143 115.012 150.827L113.878 150.543C113.246 150.381 112.814 149.834 112.804 149.176C112.804 148.518 113.216 147.95 113.838 147.778C118.595 146.441 126.243 144.243 128.009 143.737L132.515 113.13C128.511 113.231 126.042 111.246 125.159 107.215C124.677 105.028 124.958 103.488 125.992 102.638C127.196 101.635 129.073 101.908 130.327 102.263C129.715 100.501 128.922 97.1988 130.066 94.1604C130.899 91.9323 132.616 90.2713 135.155 89.2078C139.089 87.557 142.019 88.0532 144.599 88.4888C148.001 89.066 150.952 89.5623 155.769 85.501C155.909 85.3794 156.11 85.3389 156.291 85.3795C156.471 85.42 156.632 85.5516 156.702 85.7238L165.042 104.552C165.133 104.764 165.103 105.008 164.952 105.19L162.323 108.36C162.503 110.274 163.326 121.466 158.338 123.967C157.686 124.291 153.651 125.01 152.066 125.274L154.856 142.795L167.321 146.543C168.043 146.755 168.515 147.393 168.545 148.143C168.565 148.892 168.133 149.551 167.431 149.814C157.967 153.338 148.884 154.513 140.855 154.513H140.865ZM133.228 111.864C133.398 111.864 133.549 111.935 133.669 112.057C133.8 112.188 133.85 112.381 133.83 112.563L129.163 144.294C129.133 144.527 128.962 144.73 128.732 144.79C128.732 144.79 119.579 147.414 114.179 148.933C114.049 148.973 114.019 149.064 114.019 149.145C114.019 149.226 114.049 149.318 114.179 149.348L115.313 149.642C124.035 151.87 144.448 157.086 167.019 148.669C167.331 148.558 167.341 148.264 167.341 148.183C167.341 148.092 167.3 147.798 166.979 147.707L154.153 143.848C153.932 143.778 153.762 143.595 153.732 143.362L150.781 124.858C150.751 124.696 150.801 124.524 150.891 124.393C150.992 124.261 151.142 124.17 151.303 124.16C152.086 124.068 157.244 123.137 157.806 122.884C161.62 120.969 161.479 111.662 161.108 108.238C161.088 108.076 161.138 107.904 161.249 107.783L163.798 104.704L155.94 86.9493C151.042 90.8182 147.82 90.2713 144.418 89.694C141.879 89.2686 139.249 88.823 135.636 90.3321C133.408 91.2638 131.923 92.6919 131.211 94.5959C129.765 98.4345 131.913 102.972 131.933 103.012C132.044 103.245 132.003 103.519 131.823 103.701C131.652 103.883 131.381 103.944 131.15 103.833C130.297 103.458 127.858 102.678 126.765 103.579C125.962 104.248 126.092 105.787 126.353 106.952C127.156 110.639 129.334 112.198 133.188 111.874C133.208 111.874 133.218 111.874 133.238 111.874L133.228 111.864Z" fill="#010101"/>
<path d="M149.386 125.507C141.939 125.507 138.457 119.683 138.416 119.612C138.246 119.318 138.346 118.954 138.627 118.782C138.918 118.609 139.28 118.711 139.45 118.994C139.601 119.248 143.224 125.264 151.293 124.15C151.624 124.109 151.925 124.342 151.975 124.666C152.015 125 151.785 125.304 151.463 125.355C150.741 125.456 150.048 125.497 149.386 125.497V125.507Z" fill="#010101"/>
<path d="M120.211 367.93C113.065 367.93 107.254 362.066 107.254 354.855C107.254 347.644 113.065 341.78 120.211 341.78C127.357 341.78 133.168 347.644 133.168 354.855C133.168 362.066 127.357 367.93 120.211 367.93ZM120.211 342.995C113.728 342.995 108.459 348.312 108.459 354.855C108.459 361.398 113.728 366.715 120.211 366.715C126.694 366.715 131.963 361.398 131.963 354.855C131.963 348.312 126.694 342.995 120.211 342.995Z" fill="#010101"/>
<path d="M155.066 367.93C147.921 367.93 142.11 362.066 142.11 354.855C142.11 347.644 147.921 341.78 155.066 341.78C162.212 341.78 168.023 347.644 168.023 354.855C168.023 362.066 162.212 367.93 155.066 367.93ZM155.066 342.995C148.583 342.995 143.314 348.312 143.314 354.855C143.314 361.398 148.583 366.715 155.066 366.715C161.55 366.715 166.819 361.398 166.819 354.855C166.819 348.312 161.55 342.995 155.066 342.995Z" fill="#010101"/>
<path d="M190.554 366.644C183.409 366.644 177.598 360.78 177.598 353.569C177.598 346.358 183.409 340.494 190.554 340.494C197.7 340.494 203.511 346.358 203.511 353.569C203.511 360.78 197.7 366.644 190.554 366.644ZM190.554 341.709C184.071 341.709 178.802 347.026 178.802 353.569C178.802 360.112 184.071 365.429 190.554 365.429C197.038 365.429 202.307 360.112 202.307 353.569C202.307 347.026 197.038 341.709 190.554 341.709Z" fill="#010101"/>
<path d="M277.206 460.744C277.206 460.744 291.006 456.389 313.617 412.129C332.696 374.767 315.685 338.651 312.252 314.495C311.901 312.024 308.559 311.67 307.736 314.019C302.015 330.244 292.812 359.757 294.298 377.927C296.445 404.108 277.206 460.744 277.206 460.744Z" fill="#F3F7F0"/>
<path d="M277.206 461.351C277.046 461.351 276.885 461.291 276.775 461.169C276.614 461.007 276.564 460.764 276.634 460.551C276.825 459.984 295.803 403.743 293.696 377.978C292.2 359.656 301.494 329.91 307.164 313.817C307.626 312.5 308.85 311.71 310.215 311.852C311.59 311.994 312.644 313.017 312.844 314.414C313.617 319.863 315.113 326.011 316.688 332.513C322.178 355.149 329.003 383.315 314.149 412.403C291.688 456.389 277.959 461.139 277.387 461.321C277.327 461.341 277.266 461.351 277.206 461.351ZM309.914 313.047C309.302 313.047 308.609 313.351 308.298 314.222C302.658 330.234 293.414 359.788 294.89 377.876C296.837 401.606 281.14 450.707 278.23 459.559C282.044 457.361 294.669 447.871 313.075 411.846C327.728 383.163 320.954 355.24 315.514 332.797C313.928 326.264 312.433 320.086 311.65 314.576C311.51 313.553 310.717 313.118 310.095 313.047C310.034 313.047 309.974 313.047 309.914 313.047Z" fill="#010101"/>
<path d="M292.16 436.538L297.078 397.312C299.215 380.287 296.455 362.988 289.129 347.533C278.461 325.008 277.628 298.938 286.821 275.755L294.719 255.854C295.713 253.342 292.541 251.296 290.735 253.291L279.645 265.597C254.494 293.52 245.994 333.06 257.405 369.136L277.838 433.763L292.16 436.538Z" fill="#F3F7F0"/>
<path d="M292.16 437.145C292.16 437.145 292.08 437.145 292.05 437.135L277.728 434.36C277.507 434.32 277.337 434.158 277.266 433.945L256.833 369.318C245.392 333.11 253.962 293.216 279.203 265.182L290.293 252.876C291.457 251.59 293.033 251.681 294.077 252.35C295.141 253.018 295.924 254.436 295.271 256.077L287.373 275.978C278.26 298.959 279.093 324.947 289.661 347.269C297.048 362.877 299.818 380.206 297.66 397.393L292.742 436.619C292.722 436.781 292.632 436.933 292.501 437.034C292.401 437.115 292.27 437.145 292.15 437.145H292.16ZM278.3 433.226L291.638 435.819L296.476 397.241C298.603 380.287 295.873 363.191 288.577 347.796C277.858 325.17 277.015 298.827 286.259 275.522L294.157 255.621C294.579 254.568 294.027 253.757 293.435 253.383C292.852 253.018 291.919 252.876 291.176 253.697L280.086 266.002C255.127 293.712 246.656 333.151 257.977 368.943L278.3 433.226Z" fill="#010101"/>
<path d="M285.827 437.824L268.776 393.869C263.928 381.361 253.712 371.81 241.076 367.951L229.444 364.396C226.624 363.535 224.727 367.293 227.056 369.126L234.201 374.737C241.949 380.814 246.566 390.142 246.767 400.098C246.887 405.952 248.533 411.664 251.544 416.647L263.095 435.768L285.807 437.824H285.827Z" fill="#F3F7F0"/>
<path d="M285.827 438.432C285.827 438.432 285.787 438.432 285.777 438.432L263.065 436.376C262.875 436.356 262.704 436.254 262.604 436.082L251.052 416.96C247.991 411.886 246.305 406.063 246.184 400.107C245.984 390.283 241.488 381.219 233.85 375.223L226.704 369.612C225.209 368.437 225.179 366.685 225.811 365.459C226.433 364.254 227.848 363.272 229.635 363.819L241.267 367.374C254.163 371.313 264.41 380.895 269.358 393.656L286.409 437.611C286.49 437.804 286.459 438.027 286.329 438.199C286.219 438.351 286.038 438.442 285.847 438.442L285.827 438.432ZM263.467 435.191L284.904 437.135L268.204 394.102C263.386 381.695 253.431 372.377 240.885 368.538L229.254 364.983C228.059 364.619 227.206 365.308 226.845 366.017C226.474 366.736 226.403 367.86 227.407 368.65L234.553 374.261C242.481 380.479 247.148 389.898 247.359 400.087C247.479 405.83 249.095 411.441 252.056 416.333L263.457 435.191H263.467Z" fill="#010101"/>
<path d="M283.298 417.781C283.298 417.781 283.258 417.781 283.238 417.781C282.907 417.75 282.666 417.456 282.696 417.122C285.295 389.047 279.705 370.969 274.777 355.027C272.499 347.654 270.351 340.696 269.067 333.222C263.035 297.905 283.589 267.268 283.8 266.964C283.991 266.691 284.362 266.62 284.643 266.812C284.914 267.005 284.984 267.379 284.793 267.663C284.593 267.967 264.31 298.209 270.251 333.029C271.516 340.433 273.653 347.35 275.922 354.683C280.879 370.736 286.51 388.936 283.89 417.254C283.86 417.568 283.599 417.811 283.288 417.811L283.298 417.781Z" fill="#010101"/>
<path d="M306.02 399.013C306.02 399.013 305.95 399.013 305.92 399.013C305.588 398.953 305.368 398.639 305.428 398.315C310.074 370.594 308.469 327.915 308.449 327.489C308.439 327.155 308.69 326.872 309.031 326.861C309.372 326.841 309.643 327.105 309.653 327.449C309.673 327.874 311.289 370.685 306.612 398.527C306.562 398.821 306.311 399.034 306.02 399.034V399.013Z" fill="#010101"/>
<path d="M265.303 421.984C264.972 421.984 264.701 421.71 264.701 421.376C264.37 386.829 237.032 371.668 236.751 371.516C236.459 371.354 236.349 370.989 236.5 370.696C236.66 370.402 237.022 370.29 237.313 370.442C237.594 370.594 265.564 386.1 265.895 421.366C265.895 421.7 265.634 421.974 265.293 421.984H265.303Z" fill="#010101"/>
<path d="M268.997 357.367C268.816 357.367 268.635 357.286 268.525 357.134C261.128 347.543 257.846 334.589 257.816 334.458C257.736 334.133 257.927 333.799 258.258 333.718C258.579 333.637 258.91 333.83 258.991 334.164C259.021 334.295 262.242 347.006 269.478 356.395C269.679 356.658 269.639 357.043 269.368 357.246C269.258 357.337 269.127 357.377 268.997 357.377V357.367Z" fill="#010101"/>
<path d="M249.486 427.199H314.099V456.297C314.099 474.295 299.627 488.899 281.793 488.899C263.958 488.899 249.486 474.295 249.486 456.297V427.199Z" fill="#FFE600"/>
<path d="M283.338 489.507H280.227C262.935 489.507 248.874 475.318 248.874 457.867V427.199C248.874 426.865 249.145 426.592 249.476 426.592H314.089C314.42 426.592 314.691 426.865 314.691 427.199V457.867C314.691 475.318 300.63 489.507 283.338 489.507ZM250.078 427.807V457.867C250.078 474.639 263.597 488.292 280.227 488.292H283.338C299.958 488.292 313.487 474.649 313.487 457.867V427.807H250.089H250.078Z" fill="#010101"/>
<path d="M307.756 438.705H255.819C255.488 438.705 255.217 438.432 255.217 438.097C255.217 437.763 255.488 437.49 255.819 437.49H307.756C308.087 437.49 308.358 437.763 308.358 438.097C308.358 438.432 308.087 438.705 307.756 438.705Z" fill="#010101"/>
</g>
<defs>
<clipPath id="clip0_18_2155">
<rect width="500" height="500" fill="white" transform="translate(0.5)"/>
</clipPath>
</defs>
</svg>
