<svg width="43" height="43" viewBox="0 0 43 43" fill="none" xmlns="http://www.w3.org/2000/svg">
<path d="M30.4 17.25L22 22.5625L13.6 17.25V15.125L22 20.4375L30.4 15.125M30.4 13H13.6C12.4345 13 11.5 13.9456 11.5 15.125V27.875C11.5 28.4386 11.7212 28.9791 12.1151 29.3776C12.5089 29.7761 13.043 30 13.6 30H30.4C30.957 30 31.4911 29.7761 31.8849 29.3776C32.2787 28.9791 32.5 28.4386 32.5 27.875V15.125C32.5 14.5614 32.2787 14.0209 31.8849 13.6224C31.4911 13.2239 30.957 13 30.4 13V13Z" fill="#F3F7F0"/>
<path d="M42 21.5C42 33.1091 32.8108 42.5 21.5 42.5C10.1892 42.5 1 33.1091 1 21.5C1 9.89086 10.1892 0.5 21.5 0.5C32.8108 0.5 42 9.89086 42 21.5Z" stroke="#F3F7F0"/>
</svg>
