<svg width="43" height="43" viewBox="0 0 43 43" fill="none" xmlns="http://www.w3.org/2000/svg">
<path d="M42 21.5C42 33.1091 32.8108 42.5 21.5 42.5C10.1892 42.5 1 33.1091 1 21.5C1 9.89086 10.1892 0.5 21.5 0.5C32.8108 0.5 42 9.89086 42 21.5Z" stroke="#F3F7F0"/>
<path d="M22.0012 10.25C28.2146 10.25 33.2512 15.2866 33.2512 21.5C33.2512 27.7134 28.2146 32.75 22.0012 32.75C20.0131 32.7532 18.06 32.2271 16.3425 31.2256L10.7557 32.75L12.2767 27.161C11.2745 25.443 10.7479 23.489 10.7512 21.5C10.7512 15.2866 15.7879 10.25 22.0012 10.25ZM18.1672 16.2125L17.9422 16.2215C17.7966 16.2304 17.6542 16.2686 17.5237 16.334C17.4017 16.4031 17.2903 16.4895 17.193 16.5905C17.058 16.7176 16.9815 16.8279 16.8994 16.9347C16.4832 17.4758 16.2592 18.14 16.2626 18.8225C16.2649 19.3737 16.4089 19.9104 16.6339 20.4121C17.094 21.4269 17.8511 22.5012 18.8501 23.4969C19.0909 23.7365 19.3271 23.9773 19.5814 24.2011C20.8227 25.294 22.3019 26.0822 23.9014 26.5029L24.5404 26.6008C24.7485 26.612 24.9566 26.5962 25.1659 26.5861C25.4935 26.5692 25.8134 26.4805 26.103 26.3263C26.2503 26.2504 26.3941 26.1678 26.5339 26.0787C26.5339 26.0787 26.5822 26.0472 26.6745 25.9775C26.8264 25.865 26.9197 25.7851 27.0457 25.6535C27.1391 25.5568 27.2201 25.4431 27.282 25.3138C27.3697 25.1304 27.4575 24.7805 27.4935 24.4891C27.5205 24.2664 27.5126 24.1449 27.5092 24.0695C27.5047 23.9491 27.4046 23.8243 27.2955 23.7714L26.6407 23.4778C26.6407 23.4778 25.662 23.0514 25.0635 22.7791C25.0009 22.7518 24.9338 22.7361 24.8655 22.733C24.7885 22.7251 24.7107 22.7338 24.6374 22.7584C24.564 22.783 24.4968 22.8231 24.4402 22.8759C24.4346 22.8736 24.3592 22.9378 23.5459 23.9233C23.4992 23.986 23.4349 24.0334 23.3611 24.0594C23.2874 24.0855 23.2076 24.089 23.1319 24.0695C23.0586 24.0498 22.9868 24.025 22.917 23.9953C22.7775 23.9368 22.7291 23.9142 22.6335 23.8737C21.9878 23.592 21.39 23.2113 20.8616 22.7454C20.7199 22.6216 20.5882 22.4866 20.4532 22.3561C20.0106 21.9323 19.6249 21.4528 19.3057 20.9296L19.2394 20.8227C19.1917 20.7509 19.1531 20.6735 19.1246 20.5921C19.0819 20.4267 19.1932 20.294 19.1932 20.294C19.1932 20.294 19.4666 19.9947 19.5937 19.8327C19.7175 19.6752 19.8221 19.5223 19.8896 19.4131C20.0224 19.1994 20.064 18.98 19.9942 18.8101C19.6792 18.0406 19.353 17.2745 19.0177 16.514C18.9514 16.3632 18.7545 16.2552 18.5756 16.2339C18.5149 16.2271 18.4541 16.2204 18.3934 16.2159C18.2423 16.2084 18.0909 16.2099 17.94 16.2204L18.1661 16.2114L18.1672 16.2125Z" fill="#F3F7F0"/>
</svg>
