<svg width="59" height="58" viewBox="0 0 59 58" fill="none" xmlns="http://www.w3.org/2000/svg">
<circle cx="29.5" cy="29" r="29" fill="#F3F7F0"/>
<path d="M30 21.0889C25.9051 21.0889 22.5486 24.4645 22.5486 28.5828C22.5486 32.7011 25.9051 36.0767 30 36.0767C34.0949 36.0767 37.4514 32.7011 37.4514 28.5828C37.4514 24.4645 34.0949 21.0889 30 21.0889ZM30 33.4437C27.3148 33.4437 25.1667 31.2833 25.1667 28.5828C25.1667 25.8823 27.3148 23.7219 30 23.7219C32.6852 23.7219 34.8333 25.8823 34.8333 28.5828C34.8333 31.2833 32.6181 33.4437 30 33.4437ZM39.4653 20.8188C39.4653 21.764 38.6597 22.5742 37.7199 22.5742C36.7801 22.5742 35.9745 21.764 35.9745 20.8188C35.9745 19.8736 36.7801 19.0635 37.7199 19.0635C38.6597 19.0635 39.4653 19.8061 39.4653 20.8188ZM44.4329 22.5742C44.3657 21.0214 44.0972 19.9411 43.7616 18.996C43.3588 18.0508 42.8889 17.2406 42.0833 16.4305C41.2778 15.6203 40.4722 15.1477 39.5324 14.7426C38.5926 14.4051 37.5857 14.135 35.9745 14.0675C34.4306 14 33.9606 14 30 14C26.0393 14 25.5694 14 24.0255 14.0675C22.4815 14.135 21.4074 14.4051 20.4676 14.7426C19.5278 15.1477 18.7222 15.6203 17.9167 16.4305C17.1111 17.2406 16.6412 18.0508 16.2384 18.996C15.9028 19.9411 15.6343 21.0214 15.5671 22.5742C15.5 24.1269 15.5 24.5995 15.5 28.5828C15.5 32.5661 15.5 33.0387 15.5671 34.5915C15.6343 36.1443 15.9028 37.2245 16.2384 38.1697C16.6412 39.1148 17.1111 39.925 17.9167 40.7351C18.7222 41.5453 19.5278 42.0179 20.4676 42.423C21.4074 42.7605 22.4144 43.0306 24.0255 43.0981C25.5694 43.1656 26.0393 43.1656 30 43.1656C33.9606 43.1656 34.4306 43.1656 35.9745 43.0981C37.5185 43.0306 38.5926 42.7605 39.5324 42.423C40.4722 42.0179 41.2778 41.5453 42.0833 40.7351C42.8889 39.925 43.3588 39.1148 43.7616 38.1697C44.0972 37.2245 44.3657 36.1443 44.4329 34.5915C44.5 33.0387 44.5 32.5661 44.5 28.5828C44.5 24.5995 44.5 24.1269 44.4329 22.5742ZM41.8148 34.524C41.7477 35.9417 41.5463 36.7519 41.3449 37.2245C41.0764 37.8996 40.7407 38.3722 40.2708 38.9123C39.7338 39.4524 39.2639 39.7225 38.5926 39.9925C38.0556 40.195 37.3171 40.3976 35.9074 40.4651C34.3634 40.5326 33.8935 40.5326 30.0671 40.5326C26.1736 40.5326 25.7037 40.5326 24.2269 40.4651C22.8171 40.3976 22.0116 40.195 21.5417 39.9925C20.8704 39.7225 20.4005 39.3849 19.8634 38.9123C19.3264 38.3722 19.0579 37.8996 18.7893 37.2245C18.588 36.6844 18.3866 35.9417 18.3194 34.524C18.2523 32.9712 18.2523 32.4986 18.2523 28.6503C18.2523 24.7346 18.2523 24.262 18.3194 22.7767C18.3866 21.3589 18.588 20.5488 18.7893 20.0762C19.0579 19.401 19.3935 18.9284 19.8634 18.3883C20.4005 17.8482 20.8704 17.5782 21.5417 17.3081C22.0787 17.1056 22.8171 16.9031 24.2269 16.8355C25.7708 16.768 26.2407 16.768 30.0671 16.768C33.9606 16.768 34.4306 16.768 35.9074 16.8355C37.3171 16.9031 38.1227 17.1056 38.5926 17.3081C39.2639 17.5782 39.7338 17.9158 40.2708 18.3883C40.8079 18.9284 41.0764 19.401 41.3449 20.0762C41.5463 20.6163 41.7477 21.3589 41.8148 22.7767C41.8819 24.3295 41.8819 24.8021 41.8819 28.6503C41.8819 32.4986 41.8819 32.9712 41.8148 34.524Z" fill="#2C3238"/>
</svg>
