<svg width="43" height="41" viewBox="0 0 43 41" fill="none" xmlns="http://www.w3.org/2000/svg">
<path d="M42 20.5C42 31.5344 32.8333 40.5 21.5 40.5C10.1667 40.5 1 31.5344 1 20.5C1 9.4656 10.1667 0.5 21.5 0.5C32.8333 0.5 42 9.4656 42 20.5Z" stroke="#F3F7F0"/>
<path d="M22 10C19.4814 10.0027 17.0667 10.9142 15.2858 12.5344C13.5048 14.1547 12.503 16.3515 12.5 18.6429C12.497 20.5154 13.1693 22.3371 14.4138 23.8286C14.4138 23.8286 14.6729 24.1389 14.7152 24.1837L22 32L29.2882 24.1798C29.3262 24.1381 29.5862 23.8286 29.5862 23.8286L29.587 23.8262C30.8309 22.3354 31.5029 20.5145 31.5 18.6429C31.497 16.3515 30.4952 14.1547 28.7142 12.5344C26.9333 10.9142 24.5186 10.0027 22 10V10ZM22 21.7857C21.3168 21.7857 20.6489 21.6014 20.0808 21.256C19.5127 20.9107 19.0699 20.4199 18.8084 19.8456C18.547 19.2713 18.4785 18.6394 18.6118 18.0297C18.7451 17.4201 19.0741 16.8601 19.5573 16.4205C20.0404 15.981 20.6559 15.6817 21.3261 15.5604C21.9962 15.4391 22.6908 15.5014 23.322 15.7392C23.9532 15.9771 24.4928 16.3799 24.8723 16.8968C25.2519 17.4136 25.4545 18.0213 25.4545 18.6429C25.4534 19.4761 25.0891 20.2749 24.4415 20.864C23.7939 21.4532 22.9159 21.7847 22 21.7857V21.7857Z" fill="#F3F7F0"/>
</svg>
