<svg width="59" height="58" viewBox="0 0 59 58" fill="none" xmlns="http://www.w3.org/2000/svg">
<circle cx="29.5" cy="29" r="29" fill="#F3F7F0"/>
<path d="M41.3569 22.3222C41.3569 22.5701 41.3569 22.88 41.3569 23.1279C41.3569 31.5575 34.9473 41.3507 23.2376 41.3507C19.663 41.3507 16.2734 40.297 13.5 38.4995C13.993 38.5615 14.4861 38.5615 15.0408 38.5615C17.999 38.5615 20.7724 37.5698 22.9294 35.8343C20.1561 35.7723 17.8141 33.9128 17.0129 31.3716C17.3827 31.4336 17.8141 31.4955 18.1839 31.4955C18.7386 31.4955 19.3549 31.4336 19.8479 31.2476C16.9513 30.6898 14.7326 28.0865 14.7326 24.9874V24.9254C15.5954 25.4213 16.5815 25.6692 17.6292 25.7312C15.9036 24.5535 14.7942 22.6321 14.7942 20.4007C14.7942 19.2231 15.1024 18.1074 15.6571 17.1777C18.8002 21.0206 23.4841 23.6238 28.7843 23.8717C28.661 23.3759 28.5994 22.942 28.5994 22.3842C28.5994 18.8512 31.4344 16 34.9473 16C36.7962 16 38.4602 16.8058 39.5696 18.0454C41.0487 17.7355 42.4046 17.2396 43.6372 16.4959C43.1441 17.9834 42.1581 19.2231 40.8638 20.0288C42.1581 19.9049 43.3907 19.533 44.5 19.0371C43.6988 20.2768 42.5895 21.3924 41.3569 22.3222Z" fill="#2C3238"/>
</svg>
