<svg width="55" height="55" viewBox="0 0 55 55" fill="none" xmlns="http://www.w3.org/2000/svg">
<circle cx="27.5" cy="27.5" r="26.75" fill="#F3F7F0" stroke="#F3F7F0" stroke-width="1.5"/>
<path d="M16.63 19.26C18.6467 19.26 20.26 17.6215 20.26 15.63C20.26 13.6385 18.6215 12 16.63 12C14.6385 12 13 13.6385 13 15.63C13 17.6215 14.6385 19.26 16.63 19.26ZM23.7135 22.0077V42.2248H29.9652V32.2423C29.9652 29.5954 30.4694 27.0494 33.7213 27.0494C36.9731 27.0494 36.9731 30.0744 36.9731 32.3935V42.2248H43.25V31.1331C43.25 25.6881 42.0904 21.5035 35.7379 21.5035C32.6877 21.5035 30.6458 23.1673 29.814 24.7554H29.7383V21.9825H23.7388L23.7135 22.0077ZM13.5042 22.0077H19.781V42.2248H13.5042V22.0077Z" fill="#2C3238"/>
</svg>
