<svg width="1920" height="1080" viewBox="0 0 1920 1080" fill="none" xmlns="http://www.w3.org/2000/svg">
<g clip-path="url(#clip0_191_1031)">
<circle cx="84.7268" cy="105.516" r="204.016" fill="#2C3238" stroke="#363C41" stroke-width="11"/>
<circle cx="84.7269" cy="105.516" r="165.301" fill="#2C3238" stroke="#363C41" stroke-width="11"/>
<circle cx="84.1573" cy="104.947" r="123.74" fill="#2C3238" stroke="#363C41" stroke-width="11"/>
<circle cx="84.1574" cy="104.947" r="82.7473" fill="#2C3238" stroke="#363C41" stroke-width="11"/>
<circle cx="84.1573" cy="104.947" r="37.2003" fill="#2C3238" stroke="#363C41" stroke-width="11"/>
<circle cx="514.007" cy="105.516" r="204.016" fill="#2C3238" stroke="#363C41" stroke-width="11"/>
<circle cx="514.007" cy="105.516" r="165.301" fill="#2C3238" stroke="#363C41" stroke-width="11"/>
<circle cx="513.438" cy="104.947" r="123.74" fill="#2C3238" stroke="#363C41" stroke-width="11"/>
<circle cx="513.438" cy="104.947" r="82.7473" fill="#2C3238" stroke="#363C41" stroke-width="11"/>
<circle cx="513.438" cy="104.947" r="37.2003" fill="#2C3238" stroke="#363C41" stroke-width="11"/>
<circle cx="943.287" cy="105.516" r="204.016" fill="#2C3238" stroke="#363C41" stroke-width="11"/>
<circle cx="943.287" cy="105.516" r="165.301" fill="#2C3238" stroke="#363C41" stroke-width="11"/>
<circle cx="942.718" cy="104.947" r="123.74" fill="#2C3238" stroke="#363C41" stroke-width="11"/>
<circle cx="942.718" cy="104.947" r="82.7473" fill="#2C3238" stroke="#363C41" stroke-width="11"/>
<circle cx="942.718" cy="104.947" r="37.2003" fill="#2C3238" stroke="#363C41" stroke-width="11"/>
<circle cx="1372.57" cy="105.516" r="204.016" fill="#2C3238" stroke="#363C41" stroke-width="11"/>
<circle cx="1372.57" cy="105.516" r="165.301" fill="#2C3238" stroke="#363C41" stroke-width="11"/>
<circle cx="1372" cy="104.947" r="123.74" fill="#2C3238" stroke="#363C41" stroke-width="11"/>
<circle cx="1372" cy="104.947" r="82.7473" fill="#2C3238" stroke="#363C41" stroke-width="11"/>
<circle cx="1372" cy="104.947" r="37.2003" fill="#2C3238" stroke="#363C41" stroke-width="11"/>
<circle cx="1801.85" cy="105.516" r="204.016" fill="#2C3238" stroke="#363C41" stroke-width="11"/>
<circle cx="1801.85" cy="105.516" r="165.301" fill="#2C3238" stroke="#363C41" stroke-width="11"/>
<circle cx="1801.28" cy="104.947" r="123.74" fill="#2C3238" stroke="#363C41" stroke-width="11"/>
<circle cx="1801.28" cy="104.947" r="82.7473" fill="#2C3238" stroke="#363C41" stroke-width="11"/>
<circle cx="1801.28" cy="104.947" r="37.2003" fill="#2C3238" stroke="#363C41" stroke-width="11"/>
<circle cx="-128.775" cy="205.15" r="204.016" fill="#2C3238" stroke="#363C41" stroke-width="11"/>
<circle cx="-128.775" cy="205.15" r="165.301" fill="#2C3238" stroke="#363C41" stroke-width="11"/>
<circle cx="300.505" cy="205.15" r="204.016" fill="#2C3238" stroke="#363C41" stroke-width="11"/>
<circle cx="300.505" cy="205.15" r="165.301" fill="#2C3238" stroke="#363C41" stroke-width="11"/>
<circle cx="299.936" cy="204.581" r="123.74" fill="#2C3238" stroke="#363C41" stroke-width="11"/>
<circle cx="299.936" cy="204.581" r="82.7473" fill="#2C3238" stroke="#363C41" stroke-width="11"/>
<circle cx="299.936" cy="204.581" r="37.2003" fill="#2C3238" stroke="#363C41" stroke-width="11"/>
<circle cx="729.786" cy="205.15" r="204.016" fill="#2C3238" stroke="#363C41" stroke-width="11"/>
<circle cx="729.786" cy="205.15" r="165.301" fill="#2C3238" stroke="#363C41" stroke-width="11"/>
<circle cx="729.216" cy="204.581" r="123.74" fill="#2C3238" stroke="#363C41" stroke-width="11"/>
<circle cx="729.216" cy="204.581" r="82.7473" fill="#2C3238" stroke="#363C41" stroke-width="11"/>
<circle cx="729.216" cy="204.581" r="37.2003" fill="#2C3238" stroke="#363C41" stroke-width="11"/>
<circle cx="1159.07" cy="205.15" r="204.016" fill="#2C3238" stroke="#363C41" stroke-width="11"/>
<circle cx="1159.07" cy="205.15" r="165.301" fill="#2C3238" stroke="#363C41" stroke-width="11"/>
<circle cx="1158.5" cy="204.581" r="123.74" fill="#2C3238" stroke="#363C41" stroke-width="11"/>
<circle cx="1158.5" cy="204.581" r="82.7473" fill="#2C3238" stroke="#363C41" stroke-width="11"/>
<circle cx="1158.5" cy="204.581" r="37.2003" fill="#2C3238" stroke="#363C41" stroke-width="11"/>
<circle cx="1588.35" cy="205.15" r="204.016" fill="#2C3238" stroke="#363C41" stroke-width="11"/>
<circle cx="1588.35" cy="205.15" r="165.301" fill="#2C3238" stroke="#363C41" stroke-width="11"/>
<circle cx="1587.78" cy="204.581" r="123.74" fill="#2C3238" stroke="#363C41" stroke-width="11"/>
<circle cx="1587.78" cy="204.581" r="82.7473" fill="#2C3238" stroke="#363C41" stroke-width="11"/>
<circle cx="1587.78" cy="204.581" r="37.2003" fill="#2C3238" stroke="#363C41" stroke-width="11"/>
<circle cx="2008.52" cy="205.15" r="204.016" fill="#2C3238" stroke="#363C41" stroke-width="11"/>
<circle cx="2008.52" cy="205.15" r="165.301" fill="#2C3238" stroke="#363C41" stroke-width="11"/>
<circle cx="2007.95" cy="204.581" r="123.74" fill="#2C3238" stroke="#363C41" stroke-width="11"/>
<circle cx="2007.95" cy="204.581" r="82.7473" fill="#2C3238" stroke="#363C41" stroke-width="11"/>
<circle cx="84.7268" cy="325.28" r="204.016" fill="#2C3238" stroke="#363C41" stroke-width="11"/>
<circle cx="84.7269" cy="325.28" r="165.301" fill="#2C3238" stroke="#363C41" stroke-width="11"/>
<circle cx="84.1573" cy="324.711" r="123.74" fill="#2C3238" stroke="#363C41" stroke-width="11"/>
<circle cx="84.1574" cy="324.711" r="82.7473" fill="#2C3238" stroke="#363C41" stroke-width="11"/>
<circle cx="84.1573" cy="324.711" r="37.2003" fill="#2C3238" stroke="#363C41" stroke-width="11"/>
<circle cx="514.007" cy="325.28" r="204.016" fill="#2C3238" stroke="#363C41" stroke-width="11"/>
<circle cx="514.007" cy="325.28" r="165.301" fill="#2C3238" stroke="#363C41" stroke-width="11"/>
<circle cx="513.438" cy="324.711" r="123.74" fill="#2C3238" stroke="#363C41" stroke-width="11"/>
<circle cx="513.438" cy="324.711" r="82.7473" fill="#2C3238" stroke="#363C41" stroke-width="11"/>
<circle cx="513.438" cy="324.711" r="37.2003" fill="#2C3238" stroke="#363C41" stroke-width="11"/>
<circle cx="943.287" cy="325.28" r="204.016" fill="#2C3238" stroke="#363C41" stroke-width="11"/>
<circle cx="943.287" cy="325.28" r="165.301" fill="#2C3238" stroke="#363C41" stroke-width="11"/>
<circle cx="942.718" cy="324.711" r="123.74" fill="#2C3238" stroke="#363C41" stroke-width="11"/>
<circle cx="942.718" cy="324.711" r="82.7473" fill="#2C3238" stroke="#363C41" stroke-width="11"/>
<circle cx="942.718" cy="324.711" r="37.2003" fill="#2C3238" stroke="#363C41" stroke-width="11"/>
<circle cx="1372.57" cy="325.28" r="204.016" fill="#2C3238" stroke="#363C41" stroke-width="11"/>
<circle cx="1372.57" cy="325.28" r="165.301" fill="#2C3238" stroke="#363C41" stroke-width="11"/>
<circle cx="1372" cy="324.711" r="123.74" fill="#2C3238" stroke="#363C41" stroke-width="11"/>
<circle cx="1372" cy="324.711" r="82.7473" fill="#2C3238" stroke="#363C41" stroke-width="11"/>
<circle cx="1372" cy="324.711" r="37.2003" fill="#2C3238" stroke="#363C41" stroke-width="11"/>
<circle cx="1801.85" cy="325.28" r="204.016" fill="#2C3238" stroke="#363C41" stroke-width="11"/>
<circle cx="1801.85" cy="325.28" r="165.301" fill="#2C3238" stroke="#363C41" stroke-width="11"/>
<circle cx="1801.28" cy="324.711" r="123.74" fill="#2C3238" stroke="#363C41" stroke-width="11"/>
<circle cx="1801.28" cy="324.711" r="82.7473" fill="#2C3238" stroke="#363C41" stroke-width="11"/>
<circle cx="1801.28" cy="324.711" r="37.2003" fill="#2C3238" stroke="#363C41" stroke-width="11"/>
<circle cx="-128.775" cy="424.914" r="204.016" fill="#2C3238" stroke="#363C41" stroke-width="11"/>
<circle cx="-128.775" cy="424.914" r="165.301" fill="#2C3238" stroke="#363C41" stroke-width="11"/>
<circle cx="300.505" cy="424.914" r="204.016" fill="#2C3238" stroke="#363C41" stroke-width="11"/>
<circle cx="300.505" cy="424.914" r="165.301" fill="#2C3238" stroke="#363C41" stroke-width="11"/>
<circle cx="299.936" cy="424.345" r="123.74" fill="#2C3238" stroke="#363C41" stroke-width="11"/>
<circle cx="299.936" cy="424.345" r="82.7473" fill="#2C3238" stroke="#363C41" stroke-width="11"/>
<circle cx="299.936" cy="424.345" r="37.2003" fill="#2C3238" stroke="#363C41" stroke-width="11"/>
<circle cx="729.786" cy="424.914" r="204.016" fill="#2C3238" stroke="#363C41" stroke-width="11"/>
<circle cx="729.786" cy="424.914" r="165.301" fill="#2C3238" stroke="#363C41" stroke-width="11"/>
<circle cx="729.216" cy="424.345" r="123.74" fill="#2C3238" stroke="#363C41" stroke-width="11"/>
<circle cx="729.216" cy="424.345" r="82.7473" fill="#2C3238" stroke="#363C41" stroke-width="11"/>
<circle cx="729.216" cy="424.345" r="37.2003" fill="#2C3238" stroke="#363C41" stroke-width="11"/>
<circle cx="1159.07" cy="424.914" r="204.016" fill="#2C3238" stroke="#363C41" stroke-width="11"/>
<circle cx="1159.07" cy="424.914" r="165.301" fill="#2C3238" stroke="#363C41" stroke-width="11"/>
<circle cx="1158.5" cy="424.345" r="123.74" fill="#2C3238" stroke="#363C41" stroke-width="11"/>
<circle cx="1158.5" cy="424.345" r="82.7473" fill="#2C3238" stroke="#363C41" stroke-width="11"/>
<circle cx="1158.5" cy="424.345" r="37.2003" fill="#2C3238" stroke="#363C41" stroke-width="11"/>
<circle cx="1588.35" cy="424.914" r="204.016" fill="#2C3238" stroke="#363C41" stroke-width="11"/>
<circle cx="1588.35" cy="424.914" r="165.301" fill="#2C3238" stroke="#363C41" stroke-width="11"/>
<circle cx="1587.78" cy="424.345" r="123.74" fill="#2C3238" stroke="#363C41" stroke-width="11"/>
<circle cx="1587.78" cy="424.345" r="82.7473" fill="#2C3238" stroke="#363C41" stroke-width="11"/>
<circle cx="1587.78" cy="424.345" r="37.2003" fill="#2C3238" stroke="#363C41" stroke-width="11"/>
<circle cx="2008.52" cy="424.914" r="204.016" fill="#2C3238" stroke="#363C41" stroke-width="11"/>
<circle cx="2008.52" cy="424.914" r="165.301" fill="#2C3238" stroke="#363C41" stroke-width="11"/>
<circle cx="2007.95" cy="424.345" r="123.74" fill="#2C3238" stroke="#363C41" stroke-width="11"/>
<circle cx="2007.95" cy="424.345" r="82.7473" fill="#2C3238" stroke="#363C41" stroke-width="11"/>
<circle cx="84.7268" cy="547.322" r="204.016" fill="#2C3238" stroke="#363C41" stroke-width="11"/>
<circle cx="84.7269" cy="547.322" r="165.301" fill="#2C3238" stroke="#363C41" stroke-width="11"/>
<circle cx="84.1573" cy="546.752" r="123.74" fill="#2C3238" stroke="#363C41" stroke-width="11"/>
<circle cx="84.1574" cy="546.752" r="82.7473" fill="#2C3238" stroke="#363C41" stroke-width="11"/>
<circle cx="84.1573" cy="546.753" r="37.2003" fill="#2C3238" stroke="#363C41" stroke-width="11"/>
<circle cx="514.007" cy="547.322" r="204.016" fill="#2C3238" stroke="#363C41" stroke-width="11"/>
<circle cx="514.007" cy="547.322" r="165.301" fill="#2C3238" stroke="#363C41" stroke-width="11"/>
<circle cx="513.438" cy="546.752" r="123.74" fill="#2C3238" stroke="#363C41" stroke-width="11"/>
<circle cx="513.438" cy="546.752" r="82.7473" fill="#2C3238" stroke="#363C41" stroke-width="11"/>
<circle cx="513.438" cy="546.753" r="37.2003" fill="#2C3238" stroke="#363C41" stroke-width="11"/>
<circle cx="943.287" cy="547.322" r="204.016" fill="#2C3238" stroke="#363C41" stroke-width="11"/>
<circle cx="943.287" cy="547.322" r="165.301" fill="#2C3238" stroke="#363C41" stroke-width="11"/>
<circle cx="942.718" cy="546.752" r="123.74" fill="#2C3238" stroke="#363C41" stroke-width="11"/>
<circle cx="942.718" cy="546.752" r="82.7473" fill="#2C3238" stroke="#363C41" stroke-width="11"/>
<circle cx="942.718" cy="546.753" r="37.2003" fill="#2C3238" stroke="#363C41" stroke-width="11"/>
<circle cx="1372.57" cy="547.322" r="204.016" fill="#2C3238" stroke="#363C41" stroke-width="11"/>
<circle cx="1372.57" cy="547.322" r="165.301" fill="#2C3238" stroke="#363C41" stroke-width="11"/>
<circle cx="1372" cy="546.752" r="123.74" fill="#2C3238" stroke="#363C41" stroke-width="11"/>
<circle cx="1372" cy="546.752" r="82.7473" fill="#2C3238" stroke="#363C41" stroke-width="11"/>
<circle cx="1372" cy="546.753" r="37.2003" fill="#2C3238" stroke="#363C41" stroke-width="11"/>
<circle cx="1801.85" cy="547.322" r="204.016" fill="#2C3238" stroke="#363C41" stroke-width="11"/>
<circle cx="1801.85" cy="547.322" r="165.301" fill="#2C3238" stroke="#363C41" stroke-width="11"/>
<circle cx="1801.28" cy="546.752" r="123.74" fill="#2C3238" stroke="#363C41" stroke-width="11"/>
<circle cx="1801.28" cy="546.752" r="82.7473" fill="#2C3238" stroke="#363C41" stroke-width="11"/>
<circle cx="1801.28" cy="546.753" r="37.2003" fill="#2C3238" stroke="#363C41" stroke-width="11"/>
<circle cx="-128.775" cy="646.956" r="204.016" fill="#2C3238" stroke="#363C41" stroke-width="11"/>
<circle cx="-128.775" cy="646.956" r="165.301" fill="#2C3238" stroke="#363C41" stroke-width="11"/>
<circle cx="300.505" cy="646.956" r="204.016" fill="#2C3238" stroke="#363C41" stroke-width="11"/>
<circle cx="300.505" cy="646.956" r="165.301" fill="#2C3238" stroke="#363C41" stroke-width="11"/>
<circle cx="299.936" cy="646.386" r="123.74" fill="#2C3238" stroke="#363C41" stroke-width="11"/>
<circle cx="299.936" cy="646.386" r="82.7473" fill="#2C3238" stroke="#363C41" stroke-width="11"/>
<circle cx="299.936" cy="646.386" r="37.2003" fill="#2C3238" stroke="#363C41" stroke-width="11"/>
<circle cx="729.786" cy="646.956" r="204.016" fill="#2C3238" stroke="#363C41" stroke-width="11"/>
<circle cx="729.786" cy="646.956" r="165.301" fill="#2C3238" stroke="#363C41" stroke-width="11"/>
<circle cx="729.216" cy="646.386" r="123.74" fill="#2C3238" stroke="#363C41" stroke-width="11"/>
<circle cx="729.216" cy="646.386" r="82.7473" fill="#2C3238" stroke="#363C41" stroke-width="11"/>
<circle cx="729.216" cy="646.386" r="37.2003" fill="#2C3238" stroke="#363C41" stroke-width="11"/>
<circle cx="1159.07" cy="646.956" r="204.016" fill="#2C3238" stroke="#363C41" stroke-width="11"/>
<circle cx="1159.07" cy="646.956" r="165.301" fill="#2C3238" stroke="#363C41" stroke-width="11"/>
<circle cx="1158.5" cy="646.386" r="123.74" fill="#2C3238" stroke="#363C41" stroke-width="11"/>
<circle cx="1158.5" cy="646.386" r="82.7473" fill="#2C3238" stroke="#363C41" stroke-width="11"/>
<circle cx="1158.5" cy="646.386" r="37.2003" fill="#2C3238" stroke="#363C41" stroke-width="11"/>
<circle cx="1588.35" cy="646.956" r="204.016" fill="#2C3238" stroke="#363C41" stroke-width="11"/>
<circle cx="1588.35" cy="646.956" r="165.301" fill="#2C3238" stroke="#363C41" stroke-width="11"/>
<circle cx="1587.78" cy="646.386" r="123.74" fill="#2C3238" stroke="#363C41" stroke-width="11"/>
<circle cx="1587.78" cy="646.386" r="82.7473" fill="#2C3238" stroke="#363C41" stroke-width="11"/>
<circle cx="1587.78" cy="646.386" r="37.2003" fill="#2C3238" stroke="#363C41" stroke-width="11"/>
<circle cx="2008.52" cy="646.956" r="204.016" fill="#2C3238" stroke="#363C41" stroke-width="11"/>
<circle cx="2008.52" cy="646.956" r="165.301" fill="#2C3238" stroke="#363C41" stroke-width="11"/>
<circle cx="2007.95" cy="646.386" r="123.74" fill="#2C3238" stroke="#363C41" stroke-width="11"/>
<circle cx="2007.95" cy="646.386" r="82.7473" fill="#2C3238" stroke="#363C41" stroke-width="11"/>
<circle cx="84.7268" cy="767.086" r="204.016" fill="#2C3238" stroke="#363C41" stroke-width="11"/>
<circle cx="84.7269" cy="767.086" r="165.301" fill="#2C3238" stroke="#363C41" stroke-width="11"/>
<circle cx="84.1573" cy="766.517" r="123.74" fill="#2C3238" stroke="#363C41" stroke-width="11"/>
<circle cx="84.1574" cy="766.517" r="82.7473" fill="#2C3238" stroke="#363C41" stroke-width="11"/>
<circle cx="84.1573" cy="766.517" r="37.2003" fill="#2C3238" stroke="#363C41" stroke-width="11"/>
<circle cx="514.007" cy="767.086" r="204.016" fill="#2C3238" stroke="#363C41" stroke-width="11"/>
<circle cx="514.007" cy="767.086" r="165.301" fill="#2C3238" stroke="#363C41" stroke-width="11"/>
<circle cx="513.438" cy="766.517" r="123.74" fill="#2C3238" stroke="#363C41" stroke-width="11"/>
<circle cx="513.438" cy="766.517" r="82.7473" fill="#2C3238" stroke="#363C41" stroke-width="11"/>
<circle cx="513.438" cy="766.517" r="37.2003" fill="#2C3238" stroke="#363C41" stroke-width="11"/>
<circle cx="943.287" cy="767.086" r="204.016" fill="#2C3238" stroke="#363C41" stroke-width="11"/>
<circle cx="943.287" cy="767.086" r="165.301" fill="#2C3238" stroke="#363C41" stroke-width="11"/>
<circle cx="942.718" cy="766.517" r="123.74" fill="#2C3238" stroke="#363C41" stroke-width="11"/>
<circle cx="942.718" cy="766.517" r="82.7473" fill="#2C3238" stroke="#363C41" stroke-width="11"/>
<circle cx="942.718" cy="766.517" r="37.2003" fill="#2C3238" stroke="#363C41" stroke-width="11"/>
<circle cx="1372.57" cy="767.086" r="204.016" fill="#2C3238" stroke="#363C41" stroke-width="11"/>
<circle cx="1372.57" cy="767.086" r="165.301" fill="#2C3238" stroke="#363C41" stroke-width="11"/>
<circle cx="1372" cy="766.517" r="123.74" fill="#2C3238" stroke="#363C41" stroke-width="11"/>
<circle cx="1372" cy="766.517" r="82.7473" fill="#2C3238" stroke="#363C41" stroke-width="11"/>
<circle cx="1372" cy="766.517" r="37.2003" fill="#2C3238" stroke="#363C41" stroke-width="11"/>
<circle cx="1801.85" cy="767.086" r="204.016" fill="#2C3238" stroke="#363C41" stroke-width="11"/>
<circle cx="1801.85" cy="767.086" r="165.301" fill="#2C3238" stroke="#363C41" stroke-width="11"/>
<circle cx="1801.28" cy="766.517" r="123.74" fill="#2C3238" stroke="#363C41" stroke-width="11"/>
<circle cx="1801.28" cy="766.517" r="82.7473" fill="#2C3238" stroke="#363C41" stroke-width="11"/>
<circle cx="1801.28" cy="766.517" r="37.2003" fill="#2C3238" stroke="#363C41" stroke-width="11"/>
<circle cx="-128.775" cy="866.72" r="204.016" fill="#2C3238" stroke="#363C41" stroke-width="11"/>
<circle cx="-128.775" cy="866.72" r="165.301" fill="#2C3238" stroke="#363C41" stroke-width="11"/>
<circle cx="300.505" cy="866.72" r="204.016" fill="#2C3238" stroke="#363C41" stroke-width="11"/>
<circle cx="300.505" cy="866.72" r="165.301" fill="#2C3238" stroke="#363C41" stroke-width="11"/>
<circle cx="299.936" cy="866.151" r="123.74" fill="#2C3238" stroke="#363C41" stroke-width="11"/>
<circle cx="299.936" cy="866.151" r="82.7473" fill="#2C3238" stroke="#363C41" stroke-width="11"/>
<circle cx="299.936" cy="866.151" r="37.2003" fill="#2C3238" stroke="#363C41" stroke-width="11"/>
<circle cx="729.786" cy="866.72" r="204.016" fill="#2C3238" stroke="#363C41" stroke-width="11"/>
<circle cx="729.786" cy="866.72" r="165.301" fill="#2C3238" stroke="#363C41" stroke-width="11"/>
<circle cx="729.216" cy="866.151" r="123.74" fill="#2C3238" stroke="#363C41" stroke-width="11"/>
<circle cx="729.216" cy="866.151" r="82.7473" fill="#2C3238" stroke="#363C41" stroke-width="11"/>
<circle cx="729.216" cy="866.151" r="37.2003" fill="#2C3238" stroke="#363C41" stroke-width="11"/>
<circle cx="1159.07" cy="866.72" r="204.016" fill="#2C3238" stroke="#363C41" stroke-width="11"/>
<circle cx="1159.07" cy="866.72" r="165.301" fill="#2C3238" stroke="#363C41" stroke-width="11"/>
<circle cx="1158.5" cy="866.151" r="123.74" fill="#2C3238" stroke="#363C41" stroke-width="11"/>
<circle cx="1158.5" cy="866.151" r="82.7473" fill="#2C3238" stroke="#363C41" stroke-width="11"/>
<circle cx="1158.5" cy="866.151" r="37.2003" fill="#2C3238" stroke="#363C41" stroke-width="11"/>
<circle cx="1588.35" cy="866.72" r="204.016" fill="#2C3238" stroke="#363C41" stroke-width="11"/>
<circle cx="1588.35" cy="866.72" r="165.301" fill="#2C3238" stroke="#363C41" stroke-width="11"/>
<circle cx="1587.78" cy="866.151" r="123.74" fill="#2C3238" stroke="#363C41" stroke-width="11"/>
<circle cx="1587.78" cy="866.151" r="82.7473" fill="#2C3238" stroke="#363C41" stroke-width="11"/>
<circle cx="1587.78" cy="866.151" r="37.2003" fill="#2C3238" stroke="#363C41" stroke-width="11"/>
<circle cx="2008.52" cy="866.72" r="204.016" fill="#2C3238" stroke="#363C41" stroke-width="11"/>
<circle cx="2008.52" cy="866.72" r="165.301" fill="#2C3238" stroke="#363C41" stroke-width="11"/>
<circle cx="2007.95" cy="866.151" r="123.74" fill="#2C3238" stroke="#363C41" stroke-width="11"/>
<circle cx="2007.95" cy="866.151" r="82.7473" fill="#2C3238" stroke="#363C41" stroke-width="11"/>
<circle cx="84.7268" cy="986.85" r="204.016" fill="#2C3238" stroke="#363C41" stroke-width="11"/>
<circle cx="84.7269" cy="986.85" r="165.301" fill="#2C3238" stroke="#363C41" stroke-width="11"/>
<circle cx="84.1573" cy="986.281" r="123.74" fill="#2C3238" stroke="#363C41" stroke-width="11"/>
<circle cx="84.1574" cy="986.281" r="82.7473" fill="#2C3238" stroke="#363C41" stroke-width="11"/>
<circle cx="84.1573" cy="986.28" r="37.2003" fill="#2C3238" stroke="#363C41" stroke-width="11"/>
<circle cx="514.007" cy="986.85" r="204.016" fill="#2C3238" stroke="#363C41" stroke-width="11"/>
<circle cx="514.007" cy="986.85" r="165.301" fill="#2C3238" stroke="#363C41" stroke-width="11"/>
<circle cx="513.438" cy="986.281" r="123.74" fill="#2C3238" stroke="#363C41" stroke-width="11"/>
<circle cx="513.438" cy="986.281" r="82.7473" fill="#2C3238" stroke="#363C41" stroke-width="11"/>
<circle cx="513.438" cy="986.28" r="37.2003" fill="#2C3238" stroke="#363C41" stroke-width="11"/>
<circle cx="943.287" cy="986.85" r="204.016" fill="#2C3238" stroke="#363C41" stroke-width="11"/>
<circle cx="943.287" cy="986.85" r="165.301" fill="#2C3238" stroke="#363C41" stroke-width="11"/>
<circle cx="942.718" cy="986.281" r="123.74" fill="#2C3238" stroke="#363C41" stroke-width="11"/>
<circle cx="942.718" cy="986.281" r="82.7473" fill="#2C3238" stroke="#363C41" stroke-width="11"/>
<circle cx="942.718" cy="986.28" r="37.2003" fill="#2C3238" stroke="#363C41" stroke-width="11"/>
<circle cx="1372.57" cy="986.85" r="204.016" fill="#2C3238" stroke="#363C41" stroke-width="11"/>
<circle cx="1372.57" cy="986.85" r="165.301" fill="#2C3238" stroke="#363C41" stroke-width="11"/>
<circle cx="1372" cy="986.281" r="123.74" fill="#2C3238" stroke="#363C41" stroke-width="11"/>
<circle cx="1372" cy="986.281" r="82.7473" fill="#2C3238" stroke="#363C41" stroke-width="11"/>
<circle cx="1372" cy="986.28" r="37.2003" fill="#2C3238" stroke="#363C41" stroke-width="11"/>
<circle cx="1801.85" cy="986.85" r="204.016" fill="#2C3238" stroke="#363C41" stroke-width="11"/>
<circle cx="1801.85" cy="986.85" r="165.301" fill="#2C3238" stroke="#363C41" stroke-width="11"/>
<circle cx="1801.28" cy="986.281" r="123.74" fill="#2C3238" stroke="#363C41" stroke-width="11"/>
<circle cx="1801.28" cy="986.281" r="82.7473" fill="#2C3238" stroke="#363C41" stroke-width="11"/>
<circle cx="1801.28" cy="986.28" r="37.2003" fill="#2C3238" stroke="#363C41" stroke-width="11"/>
<circle cx="-128.775" cy="1086.48" r="204.016" fill="#2C3238" stroke="#363C41" stroke-width="11"/>
<circle cx="-128.775" cy="1086.48" r="165.301" fill="#2C3238" stroke="#363C41" stroke-width="11"/>
<circle cx="300.505" cy="1086.48" r="204.016" fill="#2C3238" stroke="#363C41" stroke-width="11"/>
<circle cx="300.505" cy="1086.48" r="165.301" fill="#2C3238" stroke="#363C41" stroke-width="11"/>
<circle cx="299.936" cy="1085.91" r="123.74" fill="#2C3238" stroke="#363C41" stroke-width="11"/>
<circle cx="299.936" cy="1085.91" r="82.7473" fill="#2C3238" stroke="#363C41" stroke-width="11"/>
<circle cx="299.936" cy="1085.91" r="37.2003" fill="#2C3238" stroke="#363C41" stroke-width="11"/>
<circle cx="729.786" cy="1086.48" r="204.016" fill="#2C3238" stroke="#363C41" stroke-width="11"/>
<circle cx="729.786" cy="1086.48" r="165.301" fill="#2C3238" stroke="#363C41" stroke-width="11"/>
<circle cx="729.216" cy="1085.91" r="123.74" fill="#2C3238" stroke="#363C41" stroke-width="11"/>
<circle cx="729.216" cy="1085.91" r="82.7473" fill="#2C3238" stroke="#363C41" stroke-width="11"/>
<circle cx="729.216" cy="1085.91" r="37.2003" fill="#2C3238" stroke="#363C41" stroke-width="11"/>
<circle cx="1159.07" cy="1086.48" r="204.016" fill="#2C3238" stroke="#363C41" stroke-width="11"/>
<circle cx="1159.07" cy="1086.48" r="165.301" fill="#2C3238" stroke="#363C41" stroke-width="11"/>
<circle cx="1158.5" cy="1085.91" r="123.74" fill="#2C3238" stroke="#363C41" stroke-width="11"/>
<circle cx="1158.5" cy="1085.91" r="82.7473" fill="#2C3238" stroke="#363C41" stroke-width="11"/>
<circle cx="1158.5" cy="1085.91" r="37.2003" fill="#2C3238" stroke="#363C41" stroke-width="11"/>
<circle cx="1588.35" cy="1086.48" r="204.016" fill="#2C3238" stroke="#363C41" stroke-width="11"/>
<circle cx="1588.35" cy="1086.48" r="165.301" fill="#2C3238" stroke="#363C41" stroke-width="11"/>
<circle cx="1587.78" cy="1085.91" r="123.74" fill="#2C3238" stroke="#363C41" stroke-width="11"/>
<circle cx="1587.78" cy="1085.91" r="82.7473" fill="#2C3238" stroke="#363C41" stroke-width="11"/>
<circle cx="1587.78" cy="1085.91" r="37.2003" fill="#2C3238" stroke="#363C41" stroke-width="11"/>
<circle cx="2008.52" cy="1086.48" r="204.016" fill="#2C3238" stroke="#363C41" stroke-width="11"/>
<circle cx="2008.52" cy="1086.48" r="165.301" fill="#2C3238" stroke="#363C41" stroke-width="11"/>
<circle cx="2007.95" cy="1085.91" r="123.74" fill="#2C3238" stroke="#363C41" stroke-width="11"/>
<circle cx="2007.95" cy="1085.91" r="82.7473" fill="#2C3238" stroke="#363C41" stroke-width="11"/>
</g>
<defs>
<clipPath id="clip0_191_1031">
<rect width="1920" height="1080" fill="white"/>
</clipPath>
</defs>
</svg>
