<svg width="116" height="115" viewBox="0 0 116 115" fill="none" xmlns="http://www.w3.org/2000/svg">
<path d="M57.5 109C86.2188 109 109.5 85.7188 109.5 57C109.5 28.2812 86.2188 5 57.5 5C28.7812 5 5.5 28.2812 5.5 57C5.5 85.7188 28.7812 109 57.5 109Z" fill="#2C3238"/>
<path d="M41 84.6013V85.1013H41.5H53.112H53.612V84.6013V67.4164L59.5187 84.7624L59.6341 85.1013H59.9921H71.3239H71.8239V84.6013V29.2808V28.7808H71.3239H59.7119H59.2119V29.2808V46.4923L53.3052 29.1198L53.1899 28.7808H52.8318H41.5H41V29.2808V84.6013Z" stroke="#F3F7F0"/>
<path d="M44.4885 86.5937V31.2732H55.8204L62.7004 51.5086V31.2732H74.3124V86.5937H62.9806L56.1005 66.3894V86.5937H44.4885Z" fill="#F3F7F0"/>
</svg>
