<svg width="600" height="227" viewBox="0 0 600 227" fill="none" xmlns="http://www.w3.org/2000/svg">
<path d="M36.3296 206.011V206.511H36.8296H77.076H77.576V206.011V139.076L100.448 206.172L100.564 206.511H100.922H140.197H140.697V206.011V14.479V13.979H140.197H99.9506H99.4506V14.479V81.5178L76.5782 14.3179L76.4629 13.979H76.1049H36.8296H36.3296V14.479V206.011ZM217.224 203.889L217.227 203.89C221.673 205.637 226.303 206.511 231.113 206.511H262.727C267.537 206.511 272.132 205.637 276.508 203.889C280.878 202.143 284.707 199.739 287.991 196.678C291.348 193.615 294.012 189.97 295.98 185.747C298.029 181.507 299.05 176.87 299.05 171.844V48.6465C299.05 43.6921 298.065 39.1271 296.088 34.9593C294.12 30.7364 291.458 27.0567 288.103 23.9235C284.817 20.788 280.95 18.3477 276.507 16.6012C272.131 14.8528 267.537 13.979 262.727 13.979H231.113C226.232 13.979 221.601 14.8525 217.224 16.6015C212.852 18.3484 208.987 20.7886 205.631 23.9219C202.275 27.0556 199.612 30.7362 197.644 34.9601C195.667 39.1277 194.682 43.6924 194.682 48.6465V171.844C194.682 176.869 195.667 181.505 197.642 185.743L197.645 185.75C199.685 189.97 202.347 193.614 205.631 196.676L205.635 196.68C208.99 199.74 212.855 202.143 217.224 203.889ZM457.403 14.479V13.979H456.903H353.535H353.035V14.479V51.6645V52.1645H353.535H384.65V206.011V206.511H385.15H425.396H425.896V206.011V52.1645H456.903H457.403V51.6645V14.479ZM552.634 14.479V13.979H552.134H511.888H511.388V14.479V206.011V206.511H511.888H552.134H552.634V206.011V14.479ZM257.803 166.924H235.929V51.0866H257.803V166.924Z" stroke="#F3F7F0"/>
<path d="M47.188 212.909V21.3772H86.4633L110.309 91.4367V21.3772H150.555V212.909H111.28L87.4344 142.957V212.909H47.188Z" fill="#F3F7F0"/>
<path d="M205.541 178.742V55.5447C205.541 50.6585 206.512 46.1675 208.454 42.0717C210.396 37.904 213.022 34.2753 216.331 31.1855C219.64 28.0957 223.452 25.6885 227.768 23.964C232.084 22.2394 236.652 21.3772 241.471 21.3772H273.086C277.833 21.3772 282.365 22.2394 286.681 23.964C291.069 25.6885 294.881 28.0957 298.118 31.1855C301.427 34.2753 304.053 37.904 305.995 42.0717C307.937 46.1675 308.908 50.6585 308.908 55.5447V178.742C308.908 183.7 307.901 188.263 305.887 192.43C303.945 196.598 301.319 200.191 298.01 203.209C294.773 206.227 290.997 208.598 286.681 210.322C282.365 212.047 277.833 212.909 273.086 212.909H241.471C236.724 212.909 232.156 212.047 227.768 210.322C223.452 208.598 219.64 206.227 216.331 203.209C213.094 200.191 210.468 196.598 208.454 192.43C206.512 188.263 205.541 183.7 205.541 178.742ZM245.787 57.4848V174.323H268.662V57.4848H245.787Z" fill="#F3F7F0"/>
<path d="M467.261 21.3772V58.5626H435.754V212.909H395.508V58.5626H363.894V21.3772H467.261Z" fill="#F3F7F0"/>
<path d="M562.493 21.3772V212.909H522.246V21.3772H562.493Z" fill="#F3F7F0"/>
</svg>
