<svg width="58" height="57" viewBox="0 0 58 57" fill="none" xmlns="http://www.w3.org/2000/svg">
<g clip-path="url(#clip0_492_2698)">
<path d="M29.2304 56.7652C44.7135 56.7652 57.2652 44.2135 57.2652 28.7304C57.2652 13.2472 44.7135 0.695557 29.2304 0.695557C13.7472 0.695557 1.19556 13.2472 1.19556 28.7304C1.19556 44.2135 13.7472 56.7652 29.2304 56.7652Z" fill="#F3F7F0"/>
<path d="M20.3542 43.6112V43.8612H20.6042H26.8646H27.1146V43.6112V34.2282L30.3372 43.6918L30.3949 43.8612H30.5739H36.6832H36.9332V43.6112V13.7862V13.5362H36.6832H30.4228H30.1728V13.7862V23.1838L26.9503 13.7057L26.8926 13.5362H26.7136H20.6042H20.3542V13.7862V43.6112Z" stroke="#2C3238" stroke-width="0.5"/>
<path d="M22.2156 44.6854V14.8604H28.3249L32.0341 25.7699V14.8604H38.2945V44.6854H32.1852L28.4759 33.7926V44.6854H22.2156Z" fill="#2C3238"/>
</g>
<defs>
<clipPath id="clip0_492_2698">
<rect width="57" height="57" fill="white" transform="translate(0.5)"/>
</clipPath>
</defs>
</svg>
