<svg width="30" height="76" viewBox="0 0 30 76" fill="none" xmlns="http://www.w3.org/2000/svg">
<path d="M17 2C17 0.895431 16.1046 0 15 0C13.8954 0 13 0.895431 13 2L17 2ZM13.5858 75.4142C14.3668 76.1953 15.6332 76.1953 16.4142 75.4142L29.1421 62.6863C29.9232 61.9052 29.9232 60.6389 29.1421 59.8579C28.3611 59.0768 27.0948 59.0768 26.3137 59.8579L15 71.1716L3.68629 59.8579C2.90524 59.0768 1.63891 59.0768 0.857864 59.8579C0.0768158 60.6389 0.0768158 61.9052 0.857864 62.6863L13.5858 75.4142ZM13 2L13 74H17L17 2L13 2Z" fill="#2C3238"/>
</svg>
