<svg width="30" height="76" viewBox="0 0 30 76" fill="none" xmlns="http://www.w3.org/2000/svg">
<g clip-path="url(#clip0_427_1172)">
<path d="M16.9999 2C16.9999 0.895431 16.1045 0 14.9999 0C13.8953 0 12.9999 0.895431 12.9999 2H16.9999ZM13.5857 75.4142C14.3667 76.1953 15.6331 76.1953 16.4141 75.4142L29.142 62.6863C29.9231 61.9052 29.9231 60.6389 29.142 59.8579C28.361 59.0768 27.0947 59.0768 26.3136 59.8579L14.9999 71.1716L3.68618 59.8579C2.90513 59.0768 1.6388 59.0768 0.857759 59.8579C0.0767106 60.6389 0.0767106 61.9052 0.857759 62.6863L13.5857 75.4142ZM12.9999 2V74H16.9999V2H12.9999Z" fill="#F3F7F0"/>
</g>
<defs>
<clipPath id="clip0_427_1172">
<rect width="30" height="76" fill="white"/>
</clipPath>
</defs>
</svg>
