<svg width="224" height="30" viewBox="0 0 224 30" fill="none" xmlns="http://www.w3.org/2000/svg">
<path d="M2 13C0.89543 13 0 13.8954 0 15C0 16.1046 0.89543 17 2 17V13ZM223.414 16.4142C224.195 15.6332 224.195 14.3668 223.414 13.5858L210.686 0.857864C209.905 0.0768156 208.639 0.0768156 207.858 0.857864C207.077 1.63891 207.077 2.90524 207.858 3.68629L219.172 15L207.858 26.3137C207.077 27.0948 207.077 28.3611 207.858 29.1421C208.639 29.9232 209.905 29.9232 210.686 29.1421L223.414 16.4142ZM2 17H222V13H2V17Z" fill="#2C3238"/>
</svg>
